# Blender v2.78 (sub 0) OBJ File: ''
# www.blender.org
mtllib room.mtl
o Plane
v 0.450000 -0.000000 1.780000
v 0.450000 3.000000 -9.049999
v 0.450000 0.000000 -9.049999
v 1.000000 -0.000000 1.780000
v 0.450000 3.000000 1.780000
v -8.954999 0.000000 -9.049999
v -8.955000 -0.000000 1.780000
v 1.000000 0.000000 -9.049999
v 1.000000 3.000000 1.780000
v 9.099998 -0.000000 1.780000
v 1.000000 -0.000000 8.999999
v 9.099998 3.000000 8.999999
v 9.099998 -0.000000 8.999999
v 1.000000 -0.000000 4.307000
v 0.450000 -0.000000 4.307000
v -8.955000 3.000000 1.780000
v 0.450000 -0.000000 8.999999
v -8.955000 -0.000000 4.307000
v -8.955000 -0.000000 8.999999
v 9.099998 -0.000000 4.307000
v 9.099998 3.000000 1.780000
v 1.000000 3.000000 4.307000
v -8.954999 3.000000 -9.049999
v 9.099998 3.000000 -9.049999
v 1.000000 3.000000 -9.049999
v -8.955000 3.000000 8.999999
v 0.450000 3.000000 8.999999
v 1.000000 3.000000 8.999999
v -8.955000 3.000000 4.307000
v 9.099998 3.000000 4.307000
v 0.450000 3.000000 4.307000
v 9.099998 0.000000 -9.049999
vn -1.0000 0.0000 0.0000
vn 0.0000 -0.0000 1.0000
vn 0.0000 1.0000 0.0000
vn 1.0000 0.0000 0.0000
vn 0.0000 0.0000 -1.0000
usemtl None
s 1
f 1//1 2//1 3//1
f 4//2 5//2 1//2
f 1//3 6//3 7//3
f 8//4 9//4 4//4
f 10//3 8//3 4//3
f 11//5 12//5 13//5
f 14//3 1//3 15//3
f 6//4 16//4 7//4
f 17//3 18//3 19//3
f 20//1 21//1 10//1
f 15//5 22//5 14//5
f 3//2 23//2 6//2
f 13//3 14//3 11//3
f 10//1 24//1 32//1
f 14//4 28//4 11//4
f 32//2 25//2 8//2
f 17//1 31//1 15//1
f 18//4 26//4 19//4
f 13//1 30//1 20//1
f 19//5 27//5 17//5
f 7//4 29//4 18//4
f 1//1 5//1 2//1
f 4//2 9//2 5//2
f 1//3 3//3 6//3
f 8//4 25//4 9//4
f 10//3 32//3 8//3
f 11//5 28//5 12//5
f 18//3 15//3 7//3
f 14//3 20//3 10//3
f 4//3 1//3 14//3
f 14//3 10//3 4//3
f 7//3 15//3 1//3
f 6//4 23//4 16//4
f 17//3 15//3 18//3
f 20//1 30//1 21//1
f 15//5 31//5 22//5
f 3//2 2//2 23//2
f 13//3 20//3 14//3
f 10//1 21//1 24//1
f 14//4 22//4 28//4
f 32//2 24//2 25//2
f 17//1 27//1 31//1
f 18//4 29//4 26//4
f 13//1 12//1 30//1
f 19//5 26//5 27//5
f 7//4 16//4 29//4
