G04 #@! TF.GenerationSoftware,KiCad,Pcbnew,5.0.0-fee4fd1~66~ubuntu18.04.1*
G04 #@! TF.CreationDate,2018-10-03T14:59:09+02:00*
G04 #@! TF.ProjectId,pcb,7063622E6B696361645F706362000000,rev?*
G04 #@! TF.SameCoordinates,Original*
G04 #@! TF.FileFunction,Copper,L3,Inr,Signal*
G04 #@! TF.FilePolarity,Positive*
%FSLAX46Y46*%
G04 Gerber Fmt 4.6, Leading zero omitted, Abs format (unit mm)*
G04 Created by KiCad (PCBNEW 5.0.0-fee4fd1~66~ubuntu18.04.1) date Wed Oct  3 14:59:09 2018*
%MOMM*%
%LPD*%
G01*
G04 APERTURE LIST*
G04 #@! TA.AperFunction,ViaPad*
%ADD10C,1.524000*%
G04 #@! TD*
G04 #@! TA.AperFunction,ViaPad*
%ADD11C,1.523000*%
G04 #@! TD*
G04 #@! TA.AperFunction,ViaPad*
%ADD12O,1.850000X1.700000*%
G04 #@! TD*
G04 #@! TA.AperFunction,ViaPad*
%ADD13R,1.850000X1.700000*%
G04 #@! TD*
G04 #@! TA.AperFunction,ViaPad*
%ADD14O,1.700000X1.700000*%
G04 #@! TD*
G04 #@! TA.AperFunction,ViaPad*
%ADD15R,1.700000X1.700000*%
G04 #@! TD*
G04 #@! TA.AperFunction,ViaPad*
%ADD16C,1.700000*%
G04 #@! TD*
G04 #@! TA.AperFunction,ViaPad*
%ADD17C,1.000000*%
G04 #@! TD*
G04 #@! TA.AperFunction,Conductor*
%ADD18C,0.250000*%
G04 #@! TD*
G04 APERTURE END LIST*
D10*
G04 #@! TO.N,Net-(U2-PadNC1)*
G04 #@! TO.C,U2*
X83820000Y-101600000D03*
G04 #@! TO.N,Net-(JP8-Pad7)*
X86360000Y-101600000D03*
G04 #@! TO.N,/PYNQ_SCL*
X74676000Y-53340000D03*
G04 #@! TO.N,/PYNQ_SDA*
X77216000Y-53340000D03*
G04 #@! TO.N,VCC*
X93980000Y-101600000D03*
D11*
G04 #@! TO.N,Net-(JP4-Pad3)*
X79756000Y-53340000D03*
D10*
G04 #@! TO.N,Net-(JP4-Pad4)*
X82296000Y-53340000D03*
G04 #@! TO.N,Net-(JP4-Pad5)*
X84836000Y-53340000D03*
G04 #@! TO.N,Net-(JP4-Pad6)*
X87376000Y-53340000D03*
G04 #@! TO.N,Net-(JP4-Pad7)*
X89916000Y-53340000D03*
G04 #@! TO.N,Net-(JP4-Pad8)*
X92456000Y-53340000D03*
G04 #@! TO.N,Net-(JP4-Pad9)*
X94996000Y-53340000D03*
G04 #@! TO.N,Net-(JP4-Pad10)*
X97536000Y-53340000D03*
G04 #@! TO.N,Net-(JP3-Pad1)*
X101600000Y-53340000D03*
G04 #@! TO.N,Net-(JP3-Pad2)*
X104140000Y-53340000D03*
G04 #@! TO.N,/PYNQ-DEBUG/LED_2*
X106680000Y-53340000D03*
G04 #@! TO.N,/PYNQ-DEBUG/LED_1*
X109220000Y-53340000D03*
G04 #@! TO.N,/PYNQ-DEBUG/SW_2*
X111760000Y-53340000D03*
G04 #@! TO.N,/PYNQ-DEBUG/SW_1*
X114300000Y-53340000D03*
G04 #@! TO.N,/PYNQ_TX*
X116840000Y-53340000D03*
G04 #@! TO.N,/PYNQ_RX*
X119380000Y-53340000D03*
G04 #@! TO.N,Net-(JP8-Pad6)*
X88900000Y-101600000D03*
G04 #@! TO.N,+3V3*
X91440000Y-101600000D03*
G04 #@! TO.N,GND*
X96520000Y-101600000D03*
X99060000Y-101600000D03*
G04 #@! TO.N,Net-(JP8-Pad1)*
X101600000Y-101600000D03*
G04 #@! TO.N,Net-(JP7-Pad4)*
X111760000Y-101600000D03*
G04 #@! TO.N,Net-(JP7-Pad5)*
X109220000Y-101600000D03*
G04 #@! TO.N,Net-(JP7-Pad6)*
X106680000Y-101600000D03*
G04 #@! TO.N,Net-(JP7-Pad3)*
X114300000Y-101600000D03*
G04 #@! TO.N,Net-(JP7-Pad2)*
X116840000Y-101600000D03*
G04 #@! TO.N,Net-(JP7-Pad1)*
X119380000Y-101600000D03*
G04 #@! TO.N,Net-(JP1-Pad8)*
X119380000Y-55880000D03*
G04 #@! TO.N,Net-(JP1-Pad7)*
X116840000Y-55880000D03*
G04 #@! TO.N,Net-(JP1-Pad6)*
X114300000Y-55880000D03*
G04 #@! TO.N,Net-(JP1-Pad5)*
X111760000Y-55880000D03*
G04 #@! TO.N,Net-(JP1-Pad4)*
X109220000Y-55880000D03*
G04 #@! TO.N,Net-(JP1-Pad3)*
X106680000Y-55880000D03*
G04 #@! TO.N,Net-(JP1-Pad2)*
X104140000Y-55880000D03*
G04 #@! TO.N,Net-(JP1-Pad1)*
X101600000Y-55880000D03*
G04 #@! TO.N,Net-(JP2-Pad8)*
X97536000Y-55880000D03*
G04 #@! TO.N,Net-(JP2-Pad7)*
X94996000Y-55880000D03*
G04 #@! TO.N,Net-(JP2-Pad6)*
X92456000Y-55880000D03*
G04 #@! TO.N,Net-(JP2-Pad5)*
X89916000Y-55880000D03*
G04 #@! TO.N,Net-(JP2-Pad4)*
X87376000Y-55880000D03*
G04 #@! TO.N,Net-(JP2-Pad3)*
X84836000Y-55880000D03*
G04 #@! TO.N,Net-(JP2-Pad2)*
X82296000Y-55880000D03*
D11*
G04 #@! TO.N,Net-(JP2-Pad1)*
X79756000Y-55880000D03*
D10*
G04 #@! TO.N,Net-(JP5-Pad1)*
X119380000Y-99060000D03*
G04 #@! TO.N,Net-(JP5-Pad2)*
X116840000Y-99060000D03*
G04 #@! TO.N,Net-(JP5-Pad3)*
X114300000Y-99060000D03*
G04 #@! TO.N,Net-(JP5-Pad6)*
X106680000Y-99060000D03*
G04 #@! TO.N,Net-(JP5-Pad5)*
X109220000Y-99060000D03*
G04 #@! TO.N,Net-(JP5-Pad4)*
X111760000Y-99060000D03*
G04 #@! TO.N,Net-(JP6-Pad1)*
X101600000Y-99060000D03*
G04 #@! TO.N,Net-(JP6-Pad2)*
X99060000Y-99060000D03*
G04 #@! TO.N,Net-(JP6-Pad3)*
X96520000Y-99060000D03*
G04 #@! TO.N,Net-(JP6-Pad4)*
X93980000Y-99060000D03*
G04 #@! TD*
G04 #@! TO.N,/PB10_IMU_RST*
G04 #@! TO.C,U3*
X136652000Y-69850000D03*
G04 #@! TO.N,/PB12_IMU_SCL*
X139192000Y-69850000D03*
G04 #@! TO.N,/PB11_IMU_SDA*
X141732000Y-69850000D03*
G04 #@! TO.N,GND*
X144272000Y-69850000D03*
G04 #@! TO.N,Net-(U3-Pad5)*
X146812000Y-69850000D03*
G04 #@! TO.N,+3V3*
X149352000Y-69850000D03*
G04 #@! TO.N,Net-(U3-Pad7)*
X146812000Y-87630000D03*
G04 #@! TO.N,Net-(U3-Pad8)*
X144272000Y-87630000D03*
G04 #@! TO.N,/PA9_IMU_INT*
X141732000Y-87630000D03*
G04 #@! TO.N,Net-(U3-Pad10)*
X139192000Y-87630000D03*
G04 #@! TD*
D12*
G04 #@! TO.N,Net-(JP9-Pad2)*
G04 #@! TO.C,U4*
X74676000Y-86628000D03*
G04 #@! TO.N,/LIDAR/MOTO_CTRL*
X74676000Y-84128000D03*
G04 #@! TO.N,GND*
X74676000Y-81628000D03*
G04 #@! TO.N,Net-(C11-Pad1)*
X74676000Y-79128000D03*
G04 #@! TO.N,/LIDAR/RX*
X74676000Y-76628000D03*
G04 #@! TO.N,/LIDAR/TX*
X74676000Y-74128000D03*
D13*
G04 #@! TO.N,GND*
X74676000Y-71628000D03*
G04 #@! TD*
D14*
G04 #@! TO.N,/SPI/MISO*
G04 #@! TO.C,J2*
X119380000Y-76200000D03*
G04 #@! TO.N,Net-(J2-Pad5)*
X121920000Y-76200000D03*
G04 #@! TO.N,/SPI/SCLK*
X119380000Y-78740000D03*
G04 #@! TO.N,/SPI/MOSI*
X121920000Y-78740000D03*
G04 #@! TO.N,/SPI/SS*
X119380000Y-81280000D03*
D15*
G04 #@! TO.N,Net-(J2-Pad1)*
X121920000Y-81280000D03*
G04 #@! TD*
D16*
G04 #@! TO.N,GND*
G04 #@! TO.C,J1*
X83820000Y-68580000D03*
G04 #@! TO.N,Net-(J1-Pad19)*
X86360000Y-68580000D03*
G04 #@! TO.N,GND*
X83820000Y-71120000D03*
G04 #@! TO.N,Net-(J1-Pad17)*
X86360000Y-71120000D03*
G04 #@! TO.N,GND*
X83820000Y-73660000D03*
G04 #@! TO.N,/MCU_RST*
X86360000Y-73660000D03*
G04 #@! TO.N,GND*
X83820000Y-76200000D03*
G04 #@! TO.N,/JTAG/SWO*
X86360000Y-76200000D03*
G04 #@! TO.N,GND*
X83820000Y-78740000D03*
G04 #@! TO.N,Net-(J1-Pad11)*
X86360000Y-78740000D03*
G04 #@! TO.N,GND*
X83820000Y-81280000D03*
G04 #@! TO.N,/JTAG/SWCLK*
X86360000Y-81280000D03*
G04 #@! TO.N,GND*
X83820000Y-83820000D03*
G04 #@! TO.N,/JTAG/SWDIO*
X86360000Y-83820000D03*
G04 #@! TO.N,GND*
X83820000Y-86360000D03*
G04 #@! TO.N,Net-(J1-Pad5)*
X86360000Y-86360000D03*
G04 #@! TO.N,GND*
X83820000Y-88900000D03*
G04 #@! TO.N,Net-(J1-Pad3)*
X86360000Y-88900000D03*
G04 #@! TO.N,Net-(J1-Pad2)*
X83820000Y-91440000D03*
D15*
G04 #@! TO.N,+3V3*
X86360000Y-91440000D03*
G04 #@! TD*
D14*
G04 #@! TO.N,Net-(JP2-Pad8)*
G04 #@! TO.C,JP2*
X97536000Y-59182000D03*
G04 #@! TO.N,Net-(JP2-Pad7)*
X94996000Y-59182000D03*
G04 #@! TO.N,Net-(JP2-Pad6)*
X92456000Y-59182000D03*
G04 #@! TO.N,Net-(JP2-Pad5)*
X89916000Y-59182000D03*
G04 #@! TO.N,Net-(JP2-Pad4)*
X87376000Y-59182000D03*
G04 #@! TO.N,Net-(JP2-Pad3)*
X84836000Y-59182000D03*
G04 #@! TO.N,Net-(JP2-Pad2)*
X82296000Y-59182000D03*
D15*
G04 #@! TO.N,Net-(JP2-Pad1)*
X79756000Y-59182000D03*
G04 #@! TD*
D14*
G04 #@! TO.N,/PYNQ_RX*
G04 #@! TO.C,JP3*
X119380000Y-50038000D03*
G04 #@! TO.N,/PYNQ_TX*
X116840000Y-50038000D03*
G04 #@! TO.N,/PYNQ-DEBUG/SW_1*
X114300000Y-50038000D03*
G04 #@! TO.N,/PYNQ-DEBUG/SW_2*
X111760000Y-50038000D03*
G04 #@! TO.N,/PYNQ-DEBUG/LED_1*
X109220000Y-50038000D03*
G04 #@! TO.N,/PYNQ-DEBUG/LED_2*
X106680000Y-50038000D03*
G04 #@! TO.N,Net-(JP3-Pad2)*
X104140000Y-50038000D03*
D15*
G04 #@! TO.N,Net-(JP3-Pad1)*
X101600000Y-50038000D03*
G04 #@! TD*
D14*
G04 #@! TO.N,GND*
G04 #@! TO.C,BT1*
X71120000Y-96012000D03*
D15*
G04 #@! TO.N,Net-(BT1-Pad1)*
X71120000Y-93472000D03*
G04 #@! TD*
D14*
G04 #@! TO.N,Net-(SW6-Pad5)*
G04 #@! TO.C,U5*
X151130000Y-46228000D03*
G04 #@! TO.N,GND*
X153670000Y-46228000D03*
G04 #@! TO.N,Net-(SW6-Pad2)*
X156210000Y-46228000D03*
G04 #@! TO.N,Net-(SW4-Pad5)*
X158750000Y-46228000D03*
G04 #@! TO.N,GND*
X161290000Y-46228000D03*
G04 #@! TO.N,Net-(SW4-Pad2)*
X163830000Y-46228000D03*
G04 #@! TO.N,Net-(SW3-Pad5)*
X166370000Y-46228000D03*
D15*
G04 #@! TO.N,Net-(SW3-Pad2)*
X168910000Y-46228000D03*
G04 #@! TD*
D14*
G04 #@! TO.N,Net-(SW8-Pad5)*
G04 #@! TO.C,U6*
X175260000Y-69850000D03*
G04 #@! TO.N,GND*
X175260000Y-72390000D03*
G04 #@! TO.N,Net-(SW8-Pad2)*
X175260000Y-74930000D03*
G04 #@! TO.N,Net-(SW7-Pad5)*
X175260000Y-77470000D03*
G04 #@! TO.N,GND*
X175260000Y-80010000D03*
G04 #@! TO.N,Net-(SW7-Pad2)*
X175260000Y-82550000D03*
G04 #@! TO.N,Net-(SW5-Pad5)*
X175260000Y-85090000D03*
D15*
G04 #@! TO.N,Net-(SW5-Pad2)*
X175260000Y-87630000D03*
G04 #@! TD*
D14*
G04 #@! TO.N,Net-(SW11-Pad5)*
G04 #@! TO.C,U7*
X170942000Y-109474000D03*
G04 #@! TO.N,GND*
X168402000Y-109474000D03*
G04 #@! TO.N,Net-(SW11-Pad2)*
X165862000Y-109474000D03*
G04 #@! TO.N,Net-(SW10-Pad5)*
X163322000Y-109474000D03*
G04 #@! TO.N,GND*
X160782000Y-109474000D03*
G04 #@! TO.N,Net-(SW10-Pad2)*
X158242000Y-109474000D03*
G04 #@! TO.N,Net-(SW9-Pad5)*
X155702000Y-109474000D03*
D15*
G04 #@! TO.N,Net-(SW9-Pad2)*
X153162000Y-109474000D03*
G04 #@! TD*
D14*
G04 #@! TO.N,Net-(JP1-Pad8)*
G04 #@! TO.C,JP1*
X119380000Y-59182000D03*
G04 #@! TO.N,Net-(JP1-Pad7)*
X116840000Y-59182000D03*
G04 #@! TO.N,Net-(JP1-Pad6)*
X114300000Y-59182000D03*
G04 #@! TO.N,Net-(JP1-Pad5)*
X111760000Y-59182000D03*
G04 #@! TO.N,Net-(JP1-Pad4)*
X109220000Y-59182000D03*
G04 #@! TO.N,Net-(JP1-Pad3)*
X106680000Y-59182000D03*
G04 #@! TO.N,Net-(JP1-Pad2)*
X104140000Y-59182000D03*
D15*
G04 #@! TO.N,Net-(JP1-Pad1)*
X101600000Y-59182000D03*
G04 #@! TD*
D14*
G04 #@! TO.N,Net-(JP4-Pad10)*
G04 #@! TO.C,JP4*
X97536000Y-50038000D03*
G04 #@! TO.N,Net-(JP4-Pad9)*
X94996000Y-50038000D03*
G04 #@! TO.N,Net-(JP4-Pad8)*
X92456000Y-50038000D03*
G04 #@! TO.N,Net-(JP4-Pad7)*
X89916000Y-50038000D03*
G04 #@! TO.N,Net-(JP4-Pad6)*
X87376000Y-50038000D03*
G04 #@! TO.N,Net-(JP4-Pad5)*
X84836000Y-50038000D03*
G04 #@! TO.N,Net-(JP4-Pad4)*
X82296000Y-50038000D03*
G04 #@! TO.N,Net-(JP4-Pad3)*
X79756000Y-50038000D03*
G04 #@! TO.N,/PYNQ_SDA*
X77216000Y-50038000D03*
D15*
G04 #@! TO.N,/PYNQ_SCL*
X74676000Y-50038000D03*
G04 #@! TD*
D14*
G04 #@! TO.N,Net-(JP5-Pad6)*
G04 #@! TO.C,JP5*
X106680000Y-95758000D03*
G04 #@! TO.N,Net-(JP5-Pad5)*
X109220000Y-95758000D03*
G04 #@! TO.N,Net-(JP5-Pad4)*
X111760000Y-95758000D03*
G04 #@! TO.N,Net-(JP5-Pad3)*
X114300000Y-95758000D03*
G04 #@! TO.N,Net-(JP5-Pad2)*
X116840000Y-95758000D03*
D15*
G04 #@! TO.N,Net-(JP5-Pad1)*
X119380000Y-95758000D03*
G04 #@! TD*
D14*
G04 #@! TO.N,Net-(JP6-Pad4)*
G04 #@! TO.C,JP6*
X93980000Y-95758000D03*
G04 #@! TO.N,Net-(JP6-Pad3)*
X96520000Y-95758000D03*
G04 #@! TO.N,Net-(JP6-Pad2)*
X99060000Y-95758000D03*
D15*
G04 #@! TO.N,Net-(JP6-Pad1)*
X101600000Y-95758000D03*
G04 #@! TD*
D14*
G04 #@! TO.N,Net-(JP7-Pad6)*
G04 #@! TO.C,JP7*
X106680000Y-104902000D03*
G04 #@! TO.N,Net-(JP7-Pad5)*
X109220000Y-104902000D03*
G04 #@! TO.N,Net-(JP7-Pad4)*
X111760000Y-104902000D03*
G04 #@! TO.N,Net-(JP7-Pad3)*
X114300000Y-104902000D03*
G04 #@! TO.N,Net-(JP7-Pad2)*
X116840000Y-104902000D03*
D15*
G04 #@! TO.N,Net-(JP7-Pad1)*
X119380000Y-104902000D03*
G04 #@! TD*
D14*
G04 #@! TO.N,Net-(JP8-Pad8)*
G04 #@! TO.C,JP8*
X83820000Y-104902000D03*
G04 #@! TO.N,Net-(JP8-Pad7)*
X86360000Y-104902000D03*
G04 #@! TO.N,Net-(JP8-Pad6)*
X88900000Y-104902000D03*
G04 #@! TO.N,+3V3*
X91440000Y-104902000D03*
G04 #@! TO.N,VCC*
X93980000Y-104902000D03*
G04 #@! TO.N,GND*
X96520000Y-104902000D03*
X99060000Y-104902000D03*
D15*
G04 #@! TO.N,Net-(JP8-Pad1)*
X101600000Y-104902000D03*
G04 #@! TD*
D14*
G04 #@! TO.N,VCC*
G04 #@! TO.C,JP9*
X65532000Y-98552000D03*
G04 #@! TO.N,Net-(JP9-Pad2)*
X65532000Y-96012000D03*
D15*
G04 #@! TO.N,Net-(BT1-Pad1)*
X65532000Y-93472000D03*
G04 #@! TD*
G04 #@! TO.N,Net-(BT1-Pad1)*
G04 #@! TO.C,JP10*
X59436000Y-93472000D03*
D14*
G04 #@! TO.N,Net-(C11-Pad1)*
X59436000Y-96012000D03*
G04 #@! TO.N,VCC*
X59436000Y-98552000D03*
G04 #@! TD*
D17*
G04 #@! TO.N,GND*
X92964000Y-70358000D03*
X132080000Y-46101000D03*
X140589000Y-46228000D03*
X58420000Y-48387000D03*
X67691000Y-81407000D03*
X95758000Y-76200000D03*
X101727000Y-74930000D03*
X111379000Y-82550000D03*
X111379000Y-82550000D03*
X111379000Y-82550000D03*
G04 #@! TO.N,+3V3*
X172974000Y-56896000D03*
X152908000Y-56388000D03*
X163322000Y-91948000D03*
X164338000Y-72390000D03*
X125476000Y-62103000D03*
X147447000Y-96012000D03*
X166370000Y-98425000D03*
X75819000Y-63246000D03*
X99568000Y-77216000D03*
X105791000Y-81026000D03*
X104902000Y-71882000D03*
X110998000Y-75387200D03*
G04 #@! TO.N,/AVDD_DEC*
X107696000Y-74676000D03*
G04 #@! TO.N,/DEC*
X99314000Y-74549000D03*
G04 #@! TO.N,/JTAG/SWO*
X89916000Y-73406000D03*
G04 #@! TO.N,/MCU_RST*
X111506000Y-81026000D03*
G04 #@! TO.N,/PYNQ_TX*
X101727000Y-67818000D03*
G04 #@! TO.N,/PYNQ_RX*
X103632000Y-67564000D03*
G04 #@! TO.N,/PYNQ_SCL*
X100711000Y-66421000D03*
G04 #@! TO.N,/PYNQ_SDA*
X101727000Y-65151000D03*
G04 #@! TO.N,VCC*
X170688000Y-49911000D03*
X154178000Y-49911000D03*
X170688000Y-90043000D03*
X170815000Y-73787000D03*
X149098000Y-105664000D03*
X166878000Y-105791000D03*
G04 #@! TO.N,/CLOCK/HFXTAL_N*
X107696000Y-75946000D03*
G04 #@! TO.N,/LIDAR/RX*
X90518999Y-77375001D03*
G04 #@! TO.N,/LIDAR/TX*
X90518999Y-75024999D03*
G04 #@! TO.N,Net-(Q1-Pad3)*
X167386000Y-50546000D03*
G04 #@! TO.N,Net-(Q2-Pad3)*
X169291000Y-87249000D03*
G04 #@! TO.N,Net-(Q3-Pad3)*
X163830000Y-50546000D03*
G04 #@! TO.N,Net-(Q4-Pad3)*
X170561000Y-81788000D03*
G04 #@! TO.N,Net-(Q5-Pad3)*
X157226000Y-50038000D03*
G04 #@! TO.N,Net-(Q6-Pad3)*
X170434000Y-76454000D03*
G04 #@! TO.N,Net-(Q7-Pad3)*
X147574000Y-50038000D03*
G04 #@! TO.N,Net-(Q8-Pad3)*
X170307000Y-67310000D03*
G04 #@! TO.N,Net-(Q9-Pad3)*
X152196800Y-102997000D03*
G04 #@! TO.N,Net-(Q10-Pad3)*
X157226000Y-104394000D03*
G04 #@! TO.N,Net-(Q11-Pad3)*
X163322000Y-104521000D03*
G04 #@! TO.N,Net-(Q12-Pad3)*
X170561000Y-103759000D03*
G04 #@! TO.N,/PF11_ARX*
X156210000Y-56388000D03*
X95250000Y-68072000D03*
G04 #@! TO.N,/PB8_CRX*
X164338000Y-75692000D03*
G04 #@! TO.N,/PF10_ATX*
X149606000Y-56388000D03*
X96393000Y-66294000D03*
G04 #@! TO.N,/PB7_CTX*
X164338000Y-69088000D03*
G04 #@! TO.N,/PC3_BRX*
X162941000Y-98425000D03*
G04 #@! TO.N,/PC2_BTX*
X169672000Y-98425000D03*
X157226000Y-93980000D03*
G04 #@! TO.N,/PB11_IMU_SDA*
X115951000Y-77470000D03*
G04 #@! TO.N,/PB12_IMU_SCL*
X112928400Y-76631800D03*
G04 #@! TO.N,/PB10_IMU_RST*
X111887000Y-78359000D03*
G04 #@! TO.N,/PD6_A1*
X169418000Y-56388000D03*
G04 #@! TO.N,/PD7_A2*
X162814000Y-56388000D03*
G04 #@! TO.N,/PA7_C1*
X115443000Y-85344000D03*
X164338000Y-88900000D03*
G04 #@! TO.N,/PA8_C2*
X112649000Y-84328000D03*
X164338000Y-82296000D03*
G04 #@! TO.N,/PC0_B1*
X149479000Y-98425000D03*
G04 #@! TO.N,/PC1_B2*
X156210000Y-98425000D03*
G04 #@! TD*
D18*
G04 #@! TO.N,/MCU_RST*
X111506000Y-80318894D02*
X110943106Y-79756000D01*
X111506000Y-81026000D02*
X111506000Y-80318894D01*
X87439001Y-72580999D02*
X87209999Y-72810001D01*
X90312001Y-72580999D02*
X87439001Y-72580999D01*
X87209999Y-72810001D02*
X86360000Y-73660000D01*
X97487002Y-79756000D02*
X90312001Y-72580999D01*
X110943106Y-79756000D02*
X97487002Y-79756000D01*
G04 #@! TO.N,/LIDAR/RX*
X76598001Y-77375001D02*
X90518999Y-77375001D01*
X74676000Y-76628000D02*
X75851000Y-76628000D01*
X75851000Y-76628000D02*
X76598001Y-77375001D01*
X90137999Y-77375001D02*
X90391999Y-77375001D01*
X90391999Y-77375001D02*
X90518999Y-77375001D01*
X90518999Y-77375001D02*
X90137999Y-77375001D01*
G04 #@! TO.N,/LIDAR/TX*
X76747999Y-75024999D02*
X90518999Y-75024999D01*
X74676000Y-74128000D02*
X75851000Y-74128000D01*
X75851000Y-74128000D02*
X76747999Y-75024999D01*
X90518999Y-75024999D02*
X90518999Y-75024999D01*
G04 #@! TO.N,/PF11_ARX*
X95749999Y-67572001D02*
X96384999Y-67572001D01*
X95250000Y-68072000D02*
X95749999Y-67572001D01*
X99631001Y-64325999D02*
X137858001Y-64325999D01*
X96384999Y-67572001D02*
X99631001Y-64325999D01*
X137858001Y-64325999D02*
X143764000Y-58420000D01*
X154178000Y-58420000D02*
X156210000Y-56388000D01*
X143764000Y-58420000D02*
X154178000Y-58420000D01*
G04 #@! TO.N,/PF10_ATX*
X137160000Y-63500000D02*
X144272000Y-56388000D01*
X144272000Y-56388000D02*
X149606000Y-56388000D01*
X96393000Y-66294000D02*
X99187000Y-63500000D01*
X99187000Y-63500000D02*
X137160000Y-63500000D01*
G04 #@! TO.N,/PC2_BTX*
X157933106Y-93980000D02*
X159076106Y-95123000D01*
X157226000Y-93980000D02*
X157933106Y-93980000D01*
X166370000Y-95123000D02*
X169672000Y-98425000D01*
X159076106Y-95123000D02*
X166370000Y-95123000D01*
G04 #@! TO.N,/PB11_IMU_SDA*
X118745000Y-72009000D02*
X115951000Y-74803000D01*
X141732000Y-69850000D02*
X139573000Y-72009000D01*
X115951000Y-74803000D02*
X115951000Y-77470000D01*
X139573000Y-72009000D02*
X118745000Y-72009000D01*
G04 #@! TO.N,/PB12_IMU_SCL*
X138430001Y-70611999D02*
X139192000Y-69850000D01*
X138104999Y-70937001D02*
X138430001Y-70611999D01*
X117911999Y-70937001D02*
X138104999Y-70937001D01*
X112928400Y-76631800D02*
X112928400Y-75920600D01*
X112928400Y-75920600D02*
X117911999Y-70937001D01*
G04 #@! TO.N,/PB10_IMU_RST*
X135574370Y-69850000D02*
X136652000Y-69850000D01*
X117904998Y-69850000D02*
X135574370Y-69850000D01*
X111823999Y-75930999D02*
X117904998Y-69850000D01*
X111823999Y-78295999D02*
X111823999Y-75930999D01*
X111887000Y-78359000D02*
X111823999Y-78295999D01*
G04 #@! TO.N,/PA7_C1*
X160782000Y-85344000D02*
X164338000Y-88900000D01*
X115443000Y-85344000D02*
X160782000Y-85344000D01*
G04 #@! TO.N,/PA8_C2*
X162306000Y-84328000D02*
X164338000Y-82296000D01*
X112649000Y-84328000D02*
X162306000Y-84328000D01*
G04 #@! TD*
M02*
