M48
;DRILL file {KiCad 5.0.0-fee4fd1~66~ubuntu18.04.1} date Wed Oct  3 14:59:30 2018
;FORMAT={3:3/ absolute / metric / suppress leading zeros}
FMAT,2
METRIC,TZ
T1C0.500
T2C0.850
T3C1.000
T4C1.016
%
G90
G05
M71
T1
X58420Y-48387
X67691Y-81407
X75819Y-63246
X89916Y-73406
X90519Y-75025
X90519Y-77375
X92964Y-70358
X95250Y-68072
X95758Y-76200
X96393Y-66294
X99314Y-74549
X99568Y-77216
X100711Y-66421
X101727Y-65151
X101727Y-67818
X101727Y-74930
X103632Y-67564
X104902Y-71882
X105791Y-81026
X107696Y-74676
X107696Y-75946
X110998Y-75387
X111379Y-82550
X111379Y-82550
X111379Y-82550
X111506Y-81026
X111887Y-78359
X112649Y-84328
X112928Y-76632
X115443Y-85344
X115951Y-77470
X125476Y-62103
X132080Y-46101
X140589Y-46228
X147447Y-96012
X147574Y-50038
X149098Y-105664
X149479Y-98425
X149606Y-56388
X152197Y-102997
X152908Y-56388
X154178Y-49911
X156210Y-56388
X156210Y-98425
X157226Y-50038
X157226Y-93980
X157226Y-104394
X162814Y-56388
X162941Y-98425
X163322Y-91948
X163322Y-104521
X163830Y-50546
X164338Y-69088
X164338Y-72390
X164338Y-75692
X164338Y-82296
X164338Y-88900
X166370Y-98425
X166878Y-105791
X167386Y-50546
X169291Y-87249
X169418Y-56388
X169672Y-98425
X170307Y-67310
X170434Y-76454
X170561Y-81788
X170561Y-103759
X170688Y-49911
X170688Y-90043
X170815Y-73787
X172974Y-56896
T2
X74676Y-71628
X74676Y-74128
X74676Y-76628
X74676Y-79128
X74676Y-81628
X74676Y-84128
X74676Y-86628
T3
X119380Y-76200
X119380Y-78740
X119380Y-81280
X121920Y-76200
X121920Y-78740
X121920Y-81280
X106680Y-95758
X109220Y-95758
X111760Y-95758
X114300Y-95758
X116840Y-95758
X119380Y-95758
X83820Y-104902
X86360Y-104902
X88900Y-104902
X91440Y-104902
X93980Y-104902
X96520Y-104902
X99060Y-104902
X101600Y-104902
X175260Y-69850
X175260Y-72390
X175260Y-74930
X175260Y-77470
X175260Y-80010
X175260Y-82550
X175260Y-85090
X175260Y-87630
X74676Y-50038
X77216Y-50038
X79756Y-50038
X82296Y-50038
X84836Y-50038
X87376Y-50038
X89916Y-50038
X92456Y-50038
X94996Y-50038
X97536Y-50038
X106680Y-104902
X109220Y-104902
X111760Y-104902
X114300Y-104902
X116840Y-104902
X119380Y-104902
X101600Y-59182
X104140Y-59182
X106680Y-59182
X109220Y-59182
X111760Y-59182
X114300Y-59182
X116840Y-59182
X119380Y-59182
X79756Y-59182
X82296Y-59182
X84836Y-59182
X87376Y-59182
X89916Y-59182
X92456Y-59182
X94996Y-59182
X97536Y-59182
X136652Y-69850
X139192Y-69850
X139192Y-87630
X141732Y-69850
X141732Y-87630
X144272Y-69850
X144272Y-87630
X146812Y-69850
X146812Y-87630
X149352Y-69850
X83820Y-68580
X83820Y-71120
X83820Y-73660
X83820Y-76200
X83820Y-78740
X83820Y-81280
X83820Y-83820
X83820Y-86360
X83820Y-88900
X83820Y-91440
X86360Y-68580
X86360Y-71120
X86360Y-73660
X86360Y-76200
X86360Y-78740
X86360Y-81280
X86360Y-83820
X86360Y-86360
X86360Y-88900
X86360Y-91440
X59436Y-93472
X59436Y-96012
X59436Y-98552
X65532Y-93472
X65532Y-96012
X65532Y-98552
X101600Y-50038
X104140Y-50038
X106680Y-50038
X109220Y-50038
X111760Y-50038
X114300Y-50038
X116840Y-50038
X119380Y-50038
X71120Y-93472
X71120Y-96012
X151130Y-46228
X153670Y-46228
X156210Y-46228
X158750Y-46228
X161290Y-46228
X163830Y-46228
X166370Y-46228
X168910Y-46228
X153162Y-109474
X155702Y-109474
X158242Y-109474
X160782Y-109474
X163322Y-109474
X165862Y-109474
X168402Y-109474
X170942Y-109474
X93980Y-95758
X96520Y-95758
X99060Y-95758
X101600Y-95758
T4
X74676Y-53340
X77216Y-53340
X79756Y-53340
X79756Y-55880
X82296Y-53340
X82296Y-55880
X83820Y-101600
X84836Y-53340
X84836Y-55880
X86360Y-101600
X87376Y-53340
X87376Y-55880
X88900Y-101600
X89916Y-53340
X89916Y-55880
X91440Y-101600
X92456Y-53340
X92456Y-55880
X93980Y-99060
X93980Y-101600
X94996Y-53340
X94996Y-55880
X96520Y-99060
X96520Y-101600
X97536Y-53340
X97536Y-55880
X99060Y-99060
X99060Y-101600
X101600Y-53340
X101600Y-55880
X101600Y-99060
X101600Y-101600
X104140Y-53340
X104140Y-55880
X106680Y-53340
X106680Y-55880
X106680Y-99060
X106680Y-101600
X109220Y-53340
X109220Y-55880
X109220Y-99060
X109220Y-101600
X111760Y-53340
X111760Y-55880
X111760Y-99060
X111760Y-101600
X114300Y-53340
X114300Y-55880
X114300Y-99060
X114300Y-101600
X116840Y-53340
X116840Y-55880
X116840Y-99060
X116840Y-101600
X119380Y-53340
X119380Y-55880
X119380Y-99060
X119380Y-101600
T0
M30
