G04 #@! TF.GenerationSoftware,KiCad,Pcbnew,5.0.0-fee4fd1~66~ubuntu18.04.1*
G04 #@! TF.CreationDate,2018-10-03T14:59:09+02:00*
G04 #@! TF.ProjectId,pcb,7063622E6B696361645F706362000000,rev?*
G04 #@! TF.SameCoordinates,Original*
G04 #@! TF.FileFunction,Soldermask,Bot*
G04 #@! TF.FilePolarity,Negative*
%FSLAX46Y46*%
G04 Gerber Fmt 4.6, Leading zero omitted, Abs format (unit mm)*
G04 Created by KiCad (PCBNEW 5.0.0-fee4fd1~66~ubuntu18.04.1) date Wed Oct  3 14:59:09 2018*
%MOMM*%
%LPD*%
G01*
G04 APERTURE LIST*
%ADD10C,1.924000*%
%ADD11C,1.923000*%
%ADD12C,0.100000*%
%ADD13C,1.825000*%
%ADD14O,2.250000X2.100000*%
%ADD15R,2.250000X2.100000*%
%ADD16O,2.100000X2.100000*%
%ADD17R,2.100000X2.100000*%
%ADD18C,2.100000*%
%ADD19R,0.740000X1.440000*%
%ADD20R,1.440000X0.740000*%
%ADD21R,2.200000X2.500000*%
G04 APERTURE END LIST*
D10*
G04 #@! TO.C,U2*
X83820000Y-101600000D03*
X86360000Y-101600000D03*
X74676000Y-53340000D03*
X77216000Y-53340000D03*
X93980000Y-101600000D03*
D11*
X79756000Y-53340000D03*
D10*
X82296000Y-53340000D03*
X84836000Y-53340000D03*
X87376000Y-53340000D03*
X89916000Y-53340000D03*
X92456000Y-53340000D03*
X94996000Y-53340000D03*
X97536000Y-53340000D03*
X101600000Y-53340000D03*
X104140000Y-53340000D03*
X106680000Y-53340000D03*
X109220000Y-53340000D03*
X111760000Y-53340000D03*
X114300000Y-53340000D03*
X116840000Y-53340000D03*
X119380000Y-53340000D03*
X88900000Y-101600000D03*
X91440000Y-101600000D03*
X96520000Y-101600000D03*
X99060000Y-101600000D03*
X101600000Y-101600000D03*
X111760000Y-101600000D03*
X109220000Y-101600000D03*
X106680000Y-101600000D03*
X114300000Y-101600000D03*
X116840000Y-101600000D03*
X119380000Y-101600000D03*
X119380000Y-55880000D03*
X116840000Y-55880000D03*
X114300000Y-55880000D03*
X111760000Y-55880000D03*
X109220000Y-55880000D03*
X106680000Y-55880000D03*
X104140000Y-55880000D03*
X101600000Y-55880000D03*
X97536000Y-55880000D03*
X94996000Y-55880000D03*
X92456000Y-55880000D03*
X89916000Y-55880000D03*
X87376000Y-55880000D03*
X84836000Y-55880000D03*
X82296000Y-55880000D03*
D11*
X79756000Y-55880000D03*
D10*
X119380000Y-99060000D03*
X116840000Y-99060000D03*
X114300000Y-99060000D03*
X106680000Y-99060000D03*
X109220000Y-99060000D03*
X111760000Y-99060000D03*
X101600000Y-99060000D03*
X99060000Y-99060000D03*
X96520000Y-99060000D03*
X93980000Y-99060000D03*
G04 #@! TD*
G04 #@! TO.C,U3*
X136652000Y-69850000D03*
X139192000Y-69850000D03*
X141732000Y-69850000D03*
X144272000Y-69850000D03*
X146812000Y-69850000D03*
X149352000Y-69850000D03*
X146812000Y-87630000D03*
X144272000Y-87630000D03*
X141732000Y-87630000D03*
X139192000Y-87630000D03*
G04 #@! TD*
D12*
G04 #@! TO.C,R6*
G36*
X147000707Y-62934542D02*
X147031787Y-62939152D01*
X147062266Y-62946787D01*
X147091850Y-62957372D01*
X147120254Y-62970806D01*
X147147204Y-62986959D01*
X147172442Y-63005677D01*
X147195723Y-63026777D01*
X147216823Y-63050058D01*
X147235541Y-63075296D01*
X147251694Y-63102246D01*
X147265128Y-63130650D01*
X147275713Y-63160234D01*
X147283348Y-63190713D01*
X147287958Y-63221793D01*
X147289500Y-63253176D01*
X147289500Y-64762824D01*
X147287958Y-64794207D01*
X147283348Y-64825287D01*
X147275713Y-64855766D01*
X147265128Y-64885350D01*
X147251694Y-64913754D01*
X147235541Y-64940704D01*
X147216823Y-64965942D01*
X147195723Y-64989223D01*
X147172442Y-65010323D01*
X147147204Y-65029041D01*
X147120254Y-65045194D01*
X147091850Y-65058628D01*
X147062266Y-65069213D01*
X147031787Y-65076848D01*
X147000707Y-65081458D01*
X146969324Y-65083000D01*
X145784676Y-65083000D01*
X145753293Y-65081458D01*
X145722213Y-65076848D01*
X145691734Y-65069213D01*
X145662150Y-65058628D01*
X145633746Y-65045194D01*
X145606796Y-65029041D01*
X145581558Y-65010323D01*
X145558277Y-64989223D01*
X145537177Y-64965942D01*
X145518459Y-64940704D01*
X145502306Y-64913754D01*
X145488872Y-64885350D01*
X145478287Y-64855766D01*
X145470652Y-64825287D01*
X145466042Y-64794207D01*
X145464500Y-64762824D01*
X145464500Y-63253176D01*
X145466042Y-63221793D01*
X145470652Y-63190713D01*
X145478287Y-63160234D01*
X145488872Y-63130650D01*
X145502306Y-63102246D01*
X145518459Y-63075296D01*
X145537177Y-63050058D01*
X145558277Y-63026777D01*
X145581558Y-63005677D01*
X145606796Y-62986959D01*
X145633746Y-62970806D01*
X145662150Y-62957372D01*
X145691734Y-62946787D01*
X145722213Y-62939152D01*
X145753293Y-62934542D01*
X145784676Y-62933000D01*
X146969324Y-62933000D01*
X147000707Y-62934542D01*
X147000707Y-62934542D01*
G37*
D13*
X146377000Y-64008000D03*
D12*
G36*
X149975707Y-62934542D02*
X150006787Y-62939152D01*
X150037266Y-62946787D01*
X150066850Y-62957372D01*
X150095254Y-62970806D01*
X150122204Y-62986959D01*
X150147442Y-63005677D01*
X150170723Y-63026777D01*
X150191823Y-63050058D01*
X150210541Y-63075296D01*
X150226694Y-63102246D01*
X150240128Y-63130650D01*
X150250713Y-63160234D01*
X150258348Y-63190713D01*
X150262958Y-63221793D01*
X150264500Y-63253176D01*
X150264500Y-64762824D01*
X150262958Y-64794207D01*
X150258348Y-64825287D01*
X150250713Y-64855766D01*
X150240128Y-64885350D01*
X150226694Y-64913754D01*
X150210541Y-64940704D01*
X150191823Y-64965942D01*
X150170723Y-64989223D01*
X150147442Y-65010323D01*
X150122204Y-65029041D01*
X150095254Y-65045194D01*
X150066850Y-65058628D01*
X150037266Y-65069213D01*
X150006787Y-65076848D01*
X149975707Y-65081458D01*
X149944324Y-65083000D01*
X148759676Y-65083000D01*
X148728293Y-65081458D01*
X148697213Y-65076848D01*
X148666734Y-65069213D01*
X148637150Y-65058628D01*
X148608746Y-65045194D01*
X148581796Y-65029041D01*
X148556558Y-65010323D01*
X148533277Y-64989223D01*
X148512177Y-64965942D01*
X148493459Y-64940704D01*
X148477306Y-64913754D01*
X148463872Y-64885350D01*
X148453287Y-64855766D01*
X148445652Y-64825287D01*
X148441042Y-64794207D01*
X148439500Y-64762824D01*
X148439500Y-63253176D01*
X148441042Y-63221793D01*
X148445652Y-63190713D01*
X148453287Y-63160234D01*
X148463872Y-63130650D01*
X148477306Y-63102246D01*
X148493459Y-63075296D01*
X148512177Y-63050058D01*
X148533277Y-63026777D01*
X148556558Y-63005677D01*
X148581796Y-62986959D01*
X148608746Y-62970806D01*
X148637150Y-62957372D01*
X148666734Y-62946787D01*
X148697213Y-62939152D01*
X148728293Y-62934542D01*
X148759676Y-62933000D01*
X149944324Y-62933000D01*
X149975707Y-62934542D01*
X149975707Y-62934542D01*
G37*
D13*
X149352000Y-64008000D03*
G04 #@! TD*
D12*
G04 #@! TO.C,R7*
G36*
X145403707Y-60394542D02*
X145434787Y-60399152D01*
X145465266Y-60406787D01*
X145494850Y-60417372D01*
X145523254Y-60430806D01*
X145550204Y-60446959D01*
X145575442Y-60465677D01*
X145598723Y-60486777D01*
X145619823Y-60510058D01*
X145638541Y-60535296D01*
X145654694Y-60562246D01*
X145668128Y-60590650D01*
X145678713Y-60620234D01*
X145686348Y-60650713D01*
X145690958Y-60681793D01*
X145692500Y-60713176D01*
X145692500Y-62222824D01*
X145690958Y-62254207D01*
X145686348Y-62285287D01*
X145678713Y-62315766D01*
X145668128Y-62345350D01*
X145654694Y-62373754D01*
X145638541Y-62400704D01*
X145619823Y-62425942D01*
X145598723Y-62449223D01*
X145575442Y-62470323D01*
X145550204Y-62489041D01*
X145523254Y-62505194D01*
X145494850Y-62518628D01*
X145465266Y-62529213D01*
X145434787Y-62536848D01*
X145403707Y-62541458D01*
X145372324Y-62543000D01*
X144187676Y-62543000D01*
X144156293Y-62541458D01*
X144125213Y-62536848D01*
X144094734Y-62529213D01*
X144065150Y-62518628D01*
X144036746Y-62505194D01*
X144009796Y-62489041D01*
X143984558Y-62470323D01*
X143961277Y-62449223D01*
X143940177Y-62425942D01*
X143921459Y-62400704D01*
X143905306Y-62373754D01*
X143891872Y-62345350D01*
X143881287Y-62315766D01*
X143873652Y-62285287D01*
X143869042Y-62254207D01*
X143867500Y-62222824D01*
X143867500Y-60713176D01*
X143869042Y-60681793D01*
X143873652Y-60650713D01*
X143881287Y-60620234D01*
X143891872Y-60590650D01*
X143905306Y-60562246D01*
X143921459Y-60535296D01*
X143940177Y-60510058D01*
X143961277Y-60486777D01*
X143984558Y-60465677D01*
X144009796Y-60446959D01*
X144036746Y-60430806D01*
X144065150Y-60417372D01*
X144094734Y-60406787D01*
X144125213Y-60399152D01*
X144156293Y-60394542D01*
X144187676Y-60393000D01*
X145372324Y-60393000D01*
X145403707Y-60394542D01*
X145403707Y-60394542D01*
G37*
D13*
X144780000Y-61468000D03*
D12*
G36*
X148378707Y-60394542D02*
X148409787Y-60399152D01*
X148440266Y-60406787D01*
X148469850Y-60417372D01*
X148498254Y-60430806D01*
X148525204Y-60446959D01*
X148550442Y-60465677D01*
X148573723Y-60486777D01*
X148594823Y-60510058D01*
X148613541Y-60535296D01*
X148629694Y-60562246D01*
X148643128Y-60590650D01*
X148653713Y-60620234D01*
X148661348Y-60650713D01*
X148665958Y-60681793D01*
X148667500Y-60713176D01*
X148667500Y-62222824D01*
X148665958Y-62254207D01*
X148661348Y-62285287D01*
X148653713Y-62315766D01*
X148643128Y-62345350D01*
X148629694Y-62373754D01*
X148613541Y-62400704D01*
X148594823Y-62425942D01*
X148573723Y-62449223D01*
X148550442Y-62470323D01*
X148525204Y-62489041D01*
X148498254Y-62505194D01*
X148469850Y-62518628D01*
X148440266Y-62529213D01*
X148409787Y-62536848D01*
X148378707Y-62541458D01*
X148347324Y-62543000D01*
X147162676Y-62543000D01*
X147131293Y-62541458D01*
X147100213Y-62536848D01*
X147069734Y-62529213D01*
X147040150Y-62518628D01*
X147011746Y-62505194D01*
X146984796Y-62489041D01*
X146959558Y-62470323D01*
X146936277Y-62449223D01*
X146915177Y-62425942D01*
X146896459Y-62400704D01*
X146880306Y-62373754D01*
X146866872Y-62345350D01*
X146856287Y-62315766D01*
X146848652Y-62285287D01*
X146844042Y-62254207D01*
X146842500Y-62222824D01*
X146842500Y-60713176D01*
X146844042Y-60681793D01*
X146848652Y-60650713D01*
X146856287Y-60620234D01*
X146866872Y-60590650D01*
X146880306Y-60562246D01*
X146896459Y-60535296D01*
X146915177Y-60510058D01*
X146936277Y-60486777D01*
X146959558Y-60465677D01*
X146984796Y-60446959D01*
X147011746Y-60430806D01*
X147040150Y-60417372D01*
X147069734Y-60406787D01*
X147100213Y-60399152D01*
X147131293Y-60394542D01*
X147162676Y-60393000D01*
X148347324Y-60393000D01*
X148378707Y-60394542D01*
X148378707Y-60394542D01*
G37*
D13*
X147755000Y-61468000D03*
G04 #@! TD*
D14*
G04 #@! TO.C,U4*
X74676000Y-86628000D03*
X74676000Y-84128000D03*
X74676000Y-81628000D03*
X74676000Y-79128000D03*
X74676000Y-76628000D03*
X74676000Y-74128000D03*
D15*
X74676000Y-71628000D03*
G04 #@! TD*
D16*
G04 #@! TO.C,J2*
X119380000Y-76200000D03*
X121920000Y-76200000D03*
X119380000Y-78740000D03*
X121920000Y-78740000D03*
X119380000Y-81280000D03*
D17*
X121920000Y-81280000D03*
G04 #@! TD*
D18*
G04 #@! TO.C,J1*
X83820000Y-68580000D03*
X86360000Y-68580000D03*
X83820000Y-71120000D03*
X86360000Y-71120000D03*
X83820000Y-73660000D03*
X86360000Y-73660000D03*
X83820000Y-76200000D03*
X86360000Y-76200000D03*
X83820000Y-78740000D03*
X86360000Y-78740000D03*
X83820000Y-81280000D03*
X86360000Y-81280000D03*
X83820000Y-83820000D03*
X86360000Y-83820000D03*
X83820000Y-86360000D03*
X86360000Y-86360000D03*
X83820000Y-88900000D03*
X86360000Y-88900000D03*
X83820000Y-91440000D03*
D17*
X86360000Y-91440000D03*
G04 #@! TD*
D16*
G04 #@! TO.C,JP2*
X97536000Y-59182000D03*
X94996000Y-59182000D03*
X92456000Y-59182000D03*
X89916000Y-59182000D03*
X87376000Y-59182000D03*
X84836000Y-59182000D03*
X82296000Y-59182000D03*
D17*
X79756000Y-59182000D03*
G04 #@! TD*
D16*
G04 #@! TO.C,JP3*
X119380000Y-50038000D03*
X116840000Y-50038000D03*
X114300000Y-50038000D03*
X111760000Y-50038000D03*
X109220000Y-50038000D03*
X106680000Y-50038000D03*
X104140000Y-50038000D03*
D17*
X101600000Y-50038000D03*
G04 #@! TD*
D19*
G04 #@! TO.C,Q1*
X169918903Y-53996300D03*
X168018903Y-53996300D03*
X168968903Y-51896300D03*
G04 #@! TD*
D20*
G04 #@! TO.C,Q2*
X166844000Y-89342000D03*
X166844000Y-87442000D03*
X168944000Y-88392000D03*
G04 #@! TD*
D19*
G04 #@! TO.C,Q3*
X163256000Y-53996300D03*
X161356000Y-53996300D03*
X162306000Y-51896300D03*
G04 #@! TD*
D20*
G04 #@! TO.C,Q4*
X166844000Y-82738000D03*
X166844000Y-80838000D03*
X168944000Y-81788000D03*
G04 #@! TD*
D21*
G04 #@! TO.C,Y1*
X105918000Y-78846000D03*
X105918000Y-75946000D03*
X103618000Y-75946000D03*
X103618000Y-78846000D03*
G04 #@! TD*
D16*
G04 #@! TO.C,BT1*
X71120000Y-96012000D03*
D17*
X71120000Y-93472000D03*
G04 #@! TD*
D12*
G04 #@! TO.C,R5*
G36*
X107053563Y-72287979D02*
X107084643Y-72292589D01*
X107115122Y-72300224D01*
X107144706Y-72310809D01*
X107173110Y-72324243D01*
X107200060Y-72340396D01*
X107225298Y-72359114D01*
X107248579Y-72380214D01*
X107269679Y-72403495D01*
X107288397Y-72428733D01*
X107304550Y-72455683D01*
X107317984Y-72484087D01*
X107328569Y-72513671D01*
X107336204Y-72544150D01*
X107340814Y-72575230D01*
X107342356Y-72606613D01*
X107342356Y-73791261D01*
X107340814Y-73822644D01*
X107336204Y-73853724D01*
X107328569Y-73884203D01*
X107317984Y-73913787D01*
X107304550Y-73942191D01*
X107288397Y-73969141D01*
X107269679Y-73994379D01*
X107248579Y-74017660D01*
X107225298Y-74038760D01*
X107200060Y-74057478D01*
X107173110Y-74073631D01*
X107144706Y-74087065D01*
X107115122Y-74097650D01*
X107084643Y-74105285D01*
X107053563Y-74109895D01*
X107022180Y-74111437D01*
X105512532Y-74111437D01*
X105481149Y-74109895D01*
X105450069Y-74105285D01*
X105419590Y-74097650D01*
X105390006Y-74087065D01*
X105361602Y-74073631D01*
X105334652Y-74057478D01*
X105309414Y-74038760D01*
X105286133Y-74017660D01*
X105265033Y-73994379D01*
X105246315Y-73969141D01*
X105230162Y-73942191D01*
X105216728Y-73913787D01*
X105206143Y-73884203D01*
X105198508Y-73853724D01*
X105193898Y-73822644D01*
X105192356Y-73791261D01*
X105192356Y-72606613D01*
X105193898Y-72575230D01*
X105198508Y-72544150D01*
X105206143Y-72513671D01*
X105216728Y-72484087D01*
X105230162Y-72455683D01*
X105246315Y-72428733D01*
X105265033Y-72403495D01*
X105286133Y-72380214D01*
X105309414Y-72359114D01*
X105334652Y-72340396D01*
X105361602Y-72324243D01*
X105390006Y-72310809D01*
X105419590Y-72300224D01*
X105450069Y-72292589D01*
X105481149Y-72287979D01*
X105512532Y-72286437D01*
X107022180Y-72286437D01*
X107053563Y-72287979D01*
X107053563Y-72287979D01*
G37*
D13*
X106267356Y-73198937D03*
D12*
G36*
X107053563Y-69312979D02*
X107084643Y-69317589D01*
X107115122Y-69325224D01*
X107144706Y-69335809D01*
X107173110Y-69349243D01*
X107200060Y-69365396D01*
X107225298Y-69384114D01*
X107248579Y-69405214D01*
X107269679Y-69428495D01*
X107288397Y-69453733D01*
X107304550Y-69480683D01*
X107317984Y-69509087D01*
X107328569Y-69538671D01*
X107336204Y-69569150D01*
X107340814Y-69600230D01*
X107342356Y-69631613D01*
X107342356Y-70816261D01*
X107340814Y-70847644D01*
X107336204Y-70878724D01*
X107328569Y-70909203D01*
X107317984Y-70938787D01*
X107304550Y-70967191D01*
X107288397Y-70994141D01*
X107269679Y-71019379D01*
X107248579Y-71042660D01*
X107225298Y-71063760D01*
X107200060Y-71082478D01*
X107173110Y-71098631D01*
X107144706Y-71112065D01*
X107115122Y-71122650D01*
X107084643Y-71130285D01*
X107053563Y-71134895D01*
X107022180Y-71136437D01*
X105512532Y-71136437D01*
X105481149Y-71134895D01*
X105450069Y-71130285D01*
X105419590Y-71122650D01*
X105390006Y-71112065D01*
X105361602Y-71098631D01*
X105334652Y-71082478D01*
X105309414Y-71063760D01*
X105286133Y-71042660D01*
X105265033Y-71019379D01*
X105246315Y-70994141D01*
X105230162Y-70967191D01*
X105216728Y-70938787D01*
X105206143Y-70909203D01*
X105198508Y-70878724D01*
X105193898Y-70847644D01*
X105192356Y-70816261D01*
X105192356Y-69631613D01*
X105193898Y-69600230D01*
X105198508Y-69569150D01*
X105206143Y-69538671D01*
X105216728Y-69509087D01*
X105230162Y-69480683D01*
X105246315Y-69453733D01*
X105265033Y-69428495D01*
X105286133Y-69405214D01*
X105309414Y-69384114D01*
X105334652Y-69365396D01*
X105361602Y-69349243D01*
X105390006Y-69335809D01*
X105419590Y-69325224D01*
X105450069Y-69317589D01*
X105481149Y-69312979D01*
X105512532Y-69311437D01*
X107022180Y-69311437D01*
X107053563Y-69312979D01*
X107053563Y-69312979D01*
G37*
D13*
X106267356Y-70223937D03*
G04 #@! TD*
D12*
G04 #@! TO.C,R8*
G36*
X168554207Y-55314542D02*
X168585287Y-55319152D01*
X168615766Y-55326787D01*
X168645350Y-55337372D01*
X168673754Y-55350806D01*
X168700704Y-55366959D01*
X168725942Y-55385677D01*
X168749223Y-55406777D01*
X168770323Y-55430058D01*
X168789041Y-55455296D01*
X168805194Y-55482246D01*
X168818628Y-55510650D01*
X168829213Y-55540234D01*
X168836848Y-55570713D01*
X168841458Y-55601793D01*
X168843000Y-55633176D01*
X168843000Y-57142824D01*
X168841458Y-57174207D01*
X168836848Y-57205287D01*
X168829213Y-57235766D01*
X168818628Y-57265350D01*
X168805194Y-57293754D01*
X168789041Y-57320704D01*
X168770323Y-57345942D01*
X168749223Y-57369223D01*
X168725942Y-57390323D01*
X168700704Y-57409041D01*
X168673754Y-57425194D01*
X168645350Y-57438628D01*
X168615766Y-57449213D01*
X168585287Y-57456848D01*
X168554207Y-57461458D01*
X168522824Y-57463000D01*
X167338176Y-57463000D01*
X167306793Y-57461458D01*
X167275713Y-57456848D01*
X167245234Y-57449213D01*
X167215650Y-57438628D01*
X167187246Y-57425194D01*
X167160296Y-57409041D01*
X167135058Y-57390323D01*
X167111777Y-57369223D01*
X167090677Y-57345942D01*
X167071959Y-57320704D01*
X167055806Y-57293754D01*
X167042372Y-57265350D01*
X167031787Y-57235766D01*
X167024152Y-57205287D01*
X167019542Y-57174207D01*
X167018000Y-57142824D01*
X167018000Y-55633176D01*
X167019542Y-55601793D01*
X167024152Y-55570713D01*
X167031787Y-55540234D01*
X167042372Y-55510650D01*
X167055806Y-55482246D01*
X167071959Y-55455296D01*
X167090677Y-55430058D01*
X167111777Y-55406777D01*
X167135058Y-55385677D01*
X167160296Y-55366959D01*
X167187246Y-55350806D01*
X167215650Y-55337372D01*
X167245234Y-55326787D01*
X167275713Y-55319152D01*
X167306793Y-55314542D01*
X167338176Y-55313000D01*
X168522824Y-55313000D01*
X168554207Y-55314542D01*
X168554207Y-55314542D01*
G37*
D13*
X167930500Y-56388000D03*
D12*
G36*
X171529207Y-55314542D02*
X171560287Y-55319152D01*
X171590766Y-55326787D01*
X171620350Y-55337372D01*
X171648754Y-55350806D01*
X171675704Y-55366959D01*
X171700942Y-55385677D01*
X171724223Y-55406777D01*
X171745323Y-55430058D01*
X171764041Y-55455296D01*
X171780194Y-55482246D01*
X171793628Y-55510650D01*
X171804213Y-55540234D01*
X171811848Y-55570713D01*
X171816458Y-55601793D01*
X171818000Y-55633176D01*
X171818000Y-57142824D01*
X171816458Y-57174207D01*
X171811848Y-57205287D01*
X171804213Y-57235766D01*
X171793628Y-57265350D01*
X171780194Y-57293754D01*
X171764041Y-57320704D01*
X171745323Y-57345942D01*
X171724223Y-57369223D01*
X171700942Y-57390323D01*
X171675704Y-57409041D01*
X171648754Y-57425194D01*
X171620350Y-57438628D01*
X171590766Y-57449213D01*
X171560287Y-57456848D01*
X171529207Y-57461458D01*
X171497824Y-57463000D01*
X170313176Y-57463000D01*
X170281793Y-57461458D01*
X170250713Y-57456848D01*
X170220234Y-57449213D01*
X170190650Y-57438628D01*
X170162246Y-57425194D01*
X170135296Y-57409041D01*
X170110058Y-57390323D01*
X170086777Y-57369223D01*
X170065677Y-57345942D01*
X170046959Y-57320704D01*
X170030806Y-57293754D01*
X170017372Y-57265350D01*
X170006787Y-57235766D01*
X169999152Y-57205287D01*
X169994542Y-57174207D01*
X169993000Y-57142824D01*
X169993000Y-55633176D01*
X169994542Y-55601793D01*
X169999152Y-55570713D01*
X170006787Y-55540234D01*
X170017372Y-55510650D01*
X170030806Y-55482246D01*
X170046959Y-55455296D01*
X170065677Y-55430058D01*
X170086777Y-55406777D01*
X170110058Y-55385677D01*
X170135296Y-55366959D01*
X170162246Y-55350806D01*
X170190650Y-55337372D01*
X170220234Y-55326787D01*
X170250713Y-55319152D01*
X170281793Y-55314542D01*
X170313176Y-55313000D01*
X171497824Y-55313000D01*
X171529207Y-55314542D01*
X171529207Y-55314542D01*
G37*
D13*
X170905500Y-56388000D03*
G04 #@! TD*
D12*
G04 #@! TO.C,R9*
G36*
X173252207Y-52392542D02*
X173283287Y-52397152D01*
X173313766Y-52404787D01*
X173343350Y-52415372D01*
X173371754Y-52428806D01*
X173398704Y-52444959D01*
X173423942Y-52463677D01*
X173447223Y-52484777D01*
X173468323Y-52508058D01*
X173487041Y-52533296D01*
X173503194Y-52560246D01*
X173516628Y-52588650D01*
X173527213Y-52618234D01*
X173534848Y-52648713D01*
X173539458Y-52679793D01*
X173541000Y-52711176D01*
X173541000Y-53895824D01*
X173539458Y-53927207D01*
X173534848Y-53958287D01*
X173527213Y-53988766D01*
X173516628Y-54018350D01*
X173503194Y-54046754D01*
X173487041Y-54073704D01*
X173468323Y-54098942D01*
X173447223Y-54122223D01*
X173423942Y-54143323D01*
X173398704Y-54162041D01*
X173371754Y-54178194D01*
X173343350Y-54191628D01*
X173313766Y-54202213D01*
X173283287Y-54209848D01*
X173252207Y-54214458D01*
X173220824Y-54216000D01*
X171711176Y-54216000D01*
X171679793Y-54214458D01*
X171648713Y-54209848D01*
X171618234Y-54202213D01*
X171588650Y-54191628D01*
X171560246Y-54178194D01*
X171533296Y-54162041D01*
X171508058Y-54143323D01*
X171484777Y-54122223D01*
X171463677Y-54098942D01*
X171444959Y-54073704D01*
X171428806Y-54046754D01*
X171415372Y-54018350D01*
X171404787Y-53988766D01*
X171397152Y-53958287D01*
X171392542Y-53927207D01*
X171391000Y-53895824D01*
X171391000Y-52711176D01*
X171392542Y-52679793D01*
X171397152Y-52648713D01*
X171404787Y-52618234D01*
X171415372Y-52588650D01*
X171428806Y-52560246D01*
X171444959Y-52533296D01*
X171463677Y-52508058D01*
X171484777Y-52484777D01*
X171508058Y-52463677D01*
X171533296Y-52444959D01*
X171560246Y-52428806D01*
X171588650Y-52415372D01*
X171618234Y-52404787D01*
X171648713Y-52397152D01*
X171679793Y-52392542D01*
X171711176Y-52391000D01*
X173220824Y-52391000D01*
X173252207Y-52392542D01*
X173252207Y-52392542D01*
G37*
D13*
X172466000Y-53303500D03*
D12*
G36*
X173252207Y-49417542D02*
X173283287Y-49422152D01*
X173313766Y-49429787D01*
X173343350Y-49440372D01*
X173371754Y-49453806D01*
X173398704Y-49469959D01*
X173423942Y-49488677D01*
X173447223Y-49509777D01*
X173468323Y-49533058D01*
X173487041Y-49558296D01*
X173503194Y-49585246D01*
X173516628Y-49613650D01*
X173527213Y-49643234D01*
X173534848Y-49673713D01*
X173539458Y-49704793D01*
X173541000Y-49736176D01*
X173541000Y-50920824D01*
X173539458Y-50952207D01*
X173534848Y-50983287D01*
X173527213Y-51013766D01*
X173516628Y-51043350D01*
X173503194Y-51071754D01*
X173487041Y-51098704D01*
X173468323Y-51123942D01*
X173447223Y-51147223D01*
X173423942Y-51168323D01*
X173398704Y-51187041D01*
X173371754Y-51203194D01*
X173343350Y-51216628D01*
X173313766Y-51227213D01*
X173283287Y-51234848D01*
X173252207Y-51239458D01*
X173220824Y-51241000D01*
X171711176Y-51241000D01*
X171679793Y-51239458D01*
X171648713Y-51234848D01*
X171618234Y-51227213D01*
X171588650Y-51216628D01*
X171560246Y-51203194D01*
X171533296Y-51187041D01*
X171508058Y-51168323D01*
X171484777Y-51147223D01*
X171463677Y-51123942D01*
X171444959Y-51098704D01*
X171428806Y-51071754D01*
X171415372Y-51043350D01*
X171404787Y-51013766D01*
X171397152Y-50983287D01*
X171392542Y-50952207D01*
X171391000Y-50920824D01*
X171391000Y-49736176D01*
X171392542Y-49704793D01*
X171397152Y-49673713D01*
X171404787Y-49643234D01*
X171415372Y-49613650D01*
X171428806Y-49585246D01*
X171444959Y-49558296D01*
X171463677Y-49533058D01*
X171484777Y-49509777D01*
X171508058Y-49488677D01*
X171533296Y-49469959D01*
X171560246Y-49453806D01*
X171588650Y-49440372D01*
X171618234Y-49429787D01*
X171648713Y-49422152D01*
X171679793Y-49417542D01*
X171711176Y-49416000D01*
X173220824Y-49416000D01*
X173252207Y-49417542D01*
X173252207Y-49417542D01*
G37*
D13*
X172466000Y-50328500D03*
G04 #@! TD*
D12*
G04 #@! TO.C,R10*
G36*
X165124207Y-86501542D02*
X165155287Y-86506152D01*
X165185766Y-86513787D01*
X165215350Y-86524372D01*
X165243754Y-86537806D01*
X165270704Y-86553959D01*
X165295942Y-86572677D01*
X165319223Y-86593777D01*
X165340323Y-86617058D01*
X165359041Y-86642296D01*
X165375194Y-86669246D01*
X165388628Y-86697650D01*
X165399213Y-86727234D01*
X165406848Y-86757713D01*
X165411458Y-86788793D01*
X165413000Y-86820176D01*
X165413000Y-88004824D01*
X165411458Y-88036207D01*
X165406848Y-88067287D01*
X165399213Y-88097766D01*
X165388628Y-88127350D01*
X165375194Y-88155754D01*
X165359041Y-88182704D01*
X165340323Y-88207942D01*
X165319223Y-88231223D01*
X165295942Y-88252323D01*
X165270704Y-88271041D01*
X165243754Y-88287194D01*
X165215350Y-88300628D01*
X165185766Y-88311213D01*
X165155287Y-88318848D01*
X165124207Y-88323458D01*
X165092824Y-88325000D01*
X163583176Y-88325000D01*
X163551793Y-88323458D01*
X163520713Y-88318848D01*
X163490234Y-88311213D01*
X163460650Y-88300628D01*
X163432246Y-88287194D01*
X163405296Y-88271041D01*
X163380058Y-88252323D01*
X163356777Y-88231223D01*
X163335677Y-88207942D01*
X163316959Y-88182704D01*
X163300806Y-88155754D01*
X163287372Y-88127350D01*
X163276787Y-88097766D01*
X163269152Y-88067287D01*
X163264542Y-88036207D01*
X163263000Y-88004824D01*
X163263000Y-86820176D01*
X163264542Y-86788793D01*
X163269152Y-86757713D01*
X163276787Y-86727234D01*
X163287372Y-86697650D01*
X163300806Y-86669246D01*
X163316959Y-86642296D01*
X163335677Y-86617058D01*
X163356777Y-86593777D01*
X163380058Y-86572677D01*
X163405296Y-86553959D01*
X163432246Y-86537806D01*
X163460650Y-86524372D01*
X163490234Y-86513787D01*
X163520713Y-86506152D01*
X163551793Y-86501542D01*
X163583176Y-86500000D01*
X165092824Y-86500000D01*
X165124207Y-86501542D01*
X165124207Y-86501542D01*
G37*
D13*
X164338000Y-87412500D03*
D12*
G36*
X165124207Y-89476542D02*
X165155287Y-89481152D01*
X165185766Y-89488787D01*
X165215350Y-89499372D01*
X165243754Y-89512806D01*
X165270704Y-89528959D01*
X165295942Y-89547677D01*
X165319223Y-89568777D01*
X165340323Y-89592058D01*
X165359041Y-89617296D01*
X165375194Y-89644246D01*
X165388628Y-89672650D01*
X165399213Y-89702234D01*
X165406848Y-89732713D01*
X165411458Y-89763793D01*
X165413000Y-89795176D01*
X165413000Y-90979824D01*
X165411458Y-91011207D01*
X165406848Y-91042287D01*
X165399213Y-91072766D01*
X165388628Y-91102350D01*
X165375194Y-91130754D01*
X165359041Y-91157704D01*
X165340323Y-91182942D01*
X165319223Y-91206223D01*
X165295942Y-91227323D01*
X165270704Y-91246041D01*
X165243754Y-91262194D01*
X165215350Y-91275628D01*
X165185766Y-91286213D01*
X165155287Y-91293848D01*
X165124207Y-91298458D01*
X165092824Y-91300000D01*
X163583176Y-91300000D01*
X163551793Y-91298458D01*
X163520713Y-91293848D01*
X163490234Y-91286213D01*
X163460650Y-91275628D01*
X163432246Y-91262194D01*
X163405296Y-91246041D01*
X163380058Y-91227323D01*
X163356777Y-91206223D01*
X163335677Y-91182942D01*
X163316959Y-91157704D01*
X163300806Y-91130754D01*
X163287372Y-91102350D01*
X163276787Y-91072766D01*
X163269152Y-91042287D01*
X163264542Y-91011207D01*
X163263000Y-90979824D01*
X163263000Y-89795176D01*
X163264542Y-89763793D01*
X163269152Y-89732713D01*
X163276787Y-89702234D01*
X163287372Y-89672650D01*
X163300806Y-89644246D01*
X163316959Y-89617296D01*
X163335677Y-89592058D01*
X163356777Y-89568777D01*
X163380058Y-89547677D01*
X163405296Y-89528959D01*
X163432246Y-89512806D01*
X163460650Y-89499372D01*
X163490234Y-89488787D01*
X163520713Y-89481152D01*
X163551793Y-89476542D01*
X163583176Y-89475000D01*
X165092824Y-89475000D01*
X165124207Y-89476542D01*
X165124207Y-89476542D01*
G37*
D13*
X164338000Y-90387500D03*
G04 #@! TD*
D12*
G04 #@! TO.C,R11*
G36*
X168046207Y-90620542D02*
X168077287Y-90625152D01*
X168107766Y-90632787D01*
X168137350Y-90643372D01*
X168165754Y-90656806D01*
X168192704Y-90672959D01*
X168217942Y-90691677D01*
X168241223Y-90712777D01*
X168262323Y-90736058D01*
X168281041Y-90761296D01*
X168297194Y-90788246D01*
X168310628Y-90816650D01*
X168321213Y-90846234D01*
X168328848Y-90876713D01*
X168333458Y-90907793D01*
X168335000Y-90939176D01*
X168335000Y-92448824D01*
X168333458Y-92480207D01*
X168328848Y-92511287D01*
X168321213Y-92541766D01*
X168310628Y-92571350D01*
X168297194Y-92599754D01*
X168281041Y-92626704D01*
X168262323Y-92651942D01*
X168241223Y-92675223D01*
X168217942Y-92696323D01*
X168192704Y-92715041D01*
X168165754Y-92731194D01*
X168137350Y-92744628D01*
X168107766Y-92755213D01*
X168077287Y-92762848D01*
X168046207Y-92767458D01*
X168014824Y-92769000D01*
X166830176Y-92769000D01*
X166798793Y-92767458D01*
X166767713Y-92762848D01*
X166737234Y-92755213D01*
X166707650Y-92744628D01*
X166679246Y-92731194D01*
X166652296Y-92715041D01*
X166627058Y-92696323D01*
X166603777Y-92675223D01*
X166582677Y-92651942D01*
X166563959Y-92626704D01*
X166547806Y-92599754D01*
X166534372Y-92571350D01*
X166523787Y-92541766D01*
X166516152Y-92511287D01*
X166511542Y-92480207D01*
X166510000Y-92448824D01*
X166510000Y-90939176D01*
X166511542Y-90907793D01*
X166516152Y-90876713D01*
X166523787Y-90846234D01*
X166534372Y-90816650D01*
X166547806Y-90788246D01*
X166563959Y-90761296D01*
X166582677Y-90736058D01*
X166603777Y-90712777D01*
X166627058Y-90691677D01*
X166652296Y-90672959D01*
X166679246Y-90656806D01*
X166707650Y-90643372D01*
X166737234Y-90632787D01*
X166767713Y-90625152D01*
X166798793Y-90620542D01*
X166830176Y-90619000D01*
X168014824Y-90619000D01*
X168046207Y-90620542D01*
X168046207Y-90620542D01*
G37*
D13*
X167422500Y-91694000D03*
D12*
G36*
X171021207Y-90620542D02*
X171052287Y-90625152D01*
X171082766Y-90632787D01*
X171112350Y-90643372D01*
X171140754Y-90656806D01*
X171167704Y-90672959D01*
X171192942Y-90691677D01*
X171216223Y-90712777D01*
X171237323Y-90736058D01*
X171256041Y-90761296D01*
X171272194Y-90788246D01*
X171285628Y-90816650D01*
X171296213Y-90846234D01*
X171303848Y-90876713D01*
X171308458Y-90907793D01*
X171310000Y-90939176D01*
X171310000Y-92448824D01*
X171308458Y-92480207D01*
X171303848Y-92511287D01*
X171296213Y-92541766D01*
X171285628Y-92571350D01*
X171272194Y-92599754D01*
X171256041Y-92626704D01*
X171237323Y-92651942D01*
X171216223Y-92675223D01*
X171192942Y-92696323D01*
X171167704Y-92715041D01*
X171140754Y-92731194D01*
X171112350Y-92744628D01*
X171082766Y-92755213D01*
X171052287Y-92762848D01*
X171021207Y-92767458D01*
X170989824Y-92769000D01*
X169805176Y-92769000D01*
X169773793Y-92767458D01*
X169742713Y-92762848D01*
X169712234Y-92755213D01*
X169682650Y-92744628D01*
X169654246Y-92731194D01*
X169627296Y-92715041D01*
X169602058Y-92696323D01*
X169578777Y-92675223D01*
X169557677Y-92651942D01*
X169538959Y-92626704D01*
X169522806Y-92599754D01*
X169509372Y-92571350D01*
X169498787Y-92541766D01*
X169491152Y-92511287D01*
X169486542Y-92480207D01*
X169485000Y-92448824D01*
X169485000Y-90939176D01*
X169486542Y-90907793D01*
X169491152Y-90876713D01*
X169498787Y-90846234D01*
X169509372Y-90816650D01*
X169522806Y-90788246D01*
X169538959Y-90761296D01*
X169557677Y-90736058D01*
X169578777Y-90712777D01*
X169602058Y-90691677D01*
X169627296Y-90672959D01*
X169654246Y-90656806D01*
X169682650Y-90643372D01*
X169712234Y-90632787D01*
X169742713Y-90625152D01*
X169773793Y-90620542D01*
X169805176Y-90619000D01*
X170989824Y-90619000D01*
X171021207Y-90620542D01*
X171021207Y-90620542D01*
G37*
D13*
X170397500Y-91694000D03*
G04 #@! TD*
D12*
G04 #@! TO.C,R12*
G36*
X161942647Y-55314542D02*
X161973727Y-55319152D01*
X162004206Y-55326787D01*
X162033790Y-55337372D01*
X162062194Y-55350806D01*
X162089144Y-55366959D01*
X162114382Y-55385677D01*
X162137663Y-55406777D01*
X162158763Y-55430058D01*
X162177481Y-55455296D01*
X162193634Y-55482246D01*
X162207068Y-55510650D01*
X162217653Y-55540234D01*
X162225288Y-55570713D01*
X162229898Y-55601793D01*
X162231440Y-55633176D01*
X162231440Y-57142824D01*
X162229898Y-57174207D01*
X162225288Y-57205287D01*
X162217653Y-57235766D01*
X162207068Y-57265350D01*
X162193634Y-57293754D01*
X162177481Y-57320704D01*
X162158763Y-57345942D01*
X162137663Y-57369223D01*
X162114382Y-57390323D01*
X162089144Y-57409041D01*
X162062194Y-57425194D01*
X162033790Y-57438628D01*
X162004206Y-57449213D01*
X161973727Y-57456848D01*
X161942647Y-57461458D01*
X161911264Y-57463000D01*
X160726616Y-57463000D01*
X160695233Y-57461458D01*
X160664153Y-57456848D01*
X160633674Y-57449213D01*
X160604090Y-57438628D01*
X160575686Y-57425194D01*
X160548736Y-57409041D01*
X160523498Y-57390323D01*
X160500217Y-57369223D01*
X160479117Y-57345942D01*
X160460399Y-57320704D01*
X160444246Y-57293754D01*
X160430812Y-57265350D01*
X160420227Y-57235766D01*
X160412592Y-57205287D01*
X160407982Y-57174207D01*
X160406440Y-57142824D01*
X160406440Y-55633176D01*
X160407982Y-55601793D01*
X160412592Y-55570713D01*
X160420227Y-55540234D01*
X160430812Y-55510650D01*
X160444246Y-55482246D01*
X160460399Y-55455296D01*
X160479117Y-55430058D01*
X160500217Y-55406777D01*
X160523498Y-55385677D01*
X160548736Y-55366959D01*
X160575686Y-55350806D01*
X160604090Y-55337372D01*
X160633674Y-55326787D01*
X160664153Y-55319152D01*
X160695233Y-55314542D01*
X160726616Y-55313000D01*
X161911264Y-55313000D01*
X161942647Y-55314542D01*
X161942647Y-55314542D01*
G37*
D13*
X161318940Y-56388000D03*
D12*
G36*
X164917647Y-55314542D02*
X164948727Y-55319152D01*
X164979206Y-55326787D01*
X165008790Y-55337372D01*
X165037194Y-55350806D01*
X165064144Y-55366959D01*
X165089382Y-55385677D01*
X165112663Y-55406777D01*
X165133763Y-55430058D01*
X165152481Y-55455296D01*
X165168634Y-55482246D01*
X165182068Y-55510650D01*
X165192653Y-55540234D01*
X165200288Y-55570713D01*
X165204898Y-55601793D01*
X165206440Y-55633176D01*
X165206440Y-57142824D01*
X165204898Y-57174207D01*
X165200288Y-57205287D01*
X165192653Y-57235766D01*
X165182068Y-57265350D01*
X165168634Y-57293754D01*
X165152481Y-57320704D01*
X165133763Y-57345942D01*
X165112663Y-57369223D01*
X165089382Y-57390323D01*
X165064144Y-57409041D01*
X165037194Y-57425194D01*
X165008790Y-57438628D01*
X164979206Y-57449213D01*
X164948727Y-57456848D01*
X164917647Y-57461458D01*
X164886264Y-57463000D01*
X163701616Y-57463000D01*
X163670233Y-57461458D01*
X163639153Y-57456848D01*
X163608674Y-57449213D01*
X163579090Y-57438628D01*
X163550686Y-57425194D01*
X163523736Y-57409041D01*
X163498498Y-57390323D01*
X163475217Y-57369223D01*
X163454117Y-57345942D01*
X163435399Y-57320704D01*
X163419246Y-57293754D01*
X163405812Y-57265350D01*
X163395227Y-57235766D01*
X163387592Y-57205287D01*
X163382982Y-57174207D01*
X163381440Y-57142824D01*
X163381440Y-55633176D01*
X163382982Y-55601793D01*
X163387592Y-55570713D01*
X163395227Y-55540234D01*
X163405812Y-55510650D01*
X163419246Y-55482246D01*
X163435399Y-55455296D01*
X163454117Y-55430058D01*
X163475217Y-55406777D01*
X163498498Y-55385677D01*
X163523736Y-55366959D01*
X163550686Y-55350806D01*
X163579090Y-55337372D01*
X163608674Y-55326787D01*
X163639153Y-55319152D01*
X163670233Y-55314542D01*
X163701616Y-55313000D01*
X164886264Y-55313000D01*
X164917647Y-55314542D01*
X164917647Y-55314542D01*
G37*
D13*
X164293940Y-56388000D03*
G04 #@! TD*
D12*
G04 #@! TO.C,R13*
G36*
X166394207Y-52392542D02*
X166425287Y-52397152D01*
X166455766Y-52404787D01*
X166485350Y-52415372D01*
X166513754Y-52428806D01*
X166540704Y-52444959D01*
X166565942Y-52463677D01*
X166589223Y-52484777D01*
X166610323Y-52508058D01*
X166629041Y-52533296D01*
X166645194Y-52560246D01*
X166658628Y-52588650D01*
X166669213Y-52618234D01*
X166676848Y-52648713D01*
X166681458Y-52679793D01*
X166683000Y-52711176D01*
X166683000Y-53895824D01*
X166681458Y-53927207D01*
X166676848Y-53958287D01*
X166669213Y-53988766D01*
X166658628Y-54018350D01*
X166645194Y-54046754D01*
X166629041Y-54073704D01*
X166610323Y-54098942D01*
X166589223Y-54122223D01*
X166565942Y-54143323D01*
X166540704Y-54162041D01*
X166513754Y-54178194D01*
X166485350Y-54191628D01*
X166455766Y-54202213D01*
X166425287Y-54209848D01*
X166394207Y-54214458D01*
X166362824Y-54216000D01*
X164853176Y-54216000D01*
X164821793Y-54214458D01*
X164790713Y-54209848D01*
X164760234Y-54202213D01*
X164730650Y-54191628D01*
X164702246Y-54178194D01*
X164675296Y-54162041D01*
X164650058Y-54143323D01*
X164626777Y-54122223D01*
X164605677Y-54098942D01*
X164586959Y-54073704D01*
X164570806Y-54046754D01*
X164557372Y-54018350D01*
X164546787Y-53988766D01*
X164539152Y-53958287D01*
X164534542Y-53927207D01*
X164533000Y-53895824D01*
X164533000Y-52711176D01*
X164534542Y-52679793D01*
X164539152Y-52648713D01*
X164546787Y-52618234D01*
X164557372Y-52588650D01*
X164570806Y-52560246D01*
X164586959Y-52533296D01*
X164605677Y-52508058D01*
X164626777Y-52484777D01*
X164650058Y-52463677D01*
X164675296Y-52444959D01*
X164702246Y-52428806D01*
X164730650Y-52415372D01*
X164760234Y-52404787D01*
X164790713Y-52397152D01*
X164821793Y-52392542D01*
X164853176Y-52391000D01*
X166362824Y-52391000D01*
X166394207Y-52392542D01*
X166394207Y-52392542D01*
G37*
D13*
X165608000Y-53303500D03*
D12*
G36*
X166394207Y-49417542D02*
X166425287Y-49422152D01*
X166455766Y-49429787D01*
X166485350Y-49440372D01*
X166513754Y-49453806D01*
X166540704Y-49469959D01*
X166565942Y-49488677D01*
X166589223Y-49509777D01*
X166610323Y-49533058D01*
X166629041Y-49558296D01*
X166645194Y-49585246D01*
X166658628Y-49613650D01*
X166669213Y-49643234D01*
X166676848Y-49673713D01*
X166681458Y-49704793D01*
X166683000Y-49736176D01*
X166683000Y-50920824D01*
X166681458Y-50952207D01*
X166676848Y-50983287D01*
X166669213Y-51013766D01*
X166658628Y-51043350D01*
X166645194Y-51071754D01*
X166629041Y-51098704D01*
X166610323Y-51123942D01*
X166589223Y-51147223D01*
X166565942Y-51168323D01*
X166540704Y-51187041D01*
X166513754Y-51203194D01*
X166485350Y-51216628D01*
X166455766Y-51227213D01*
X166425287Y-51234848D01*
X166394207Y-51239458D01*
X166362824Y-51241000D01*
X164853176Y-51241000D01*
X164821793Y-51239458D01*
X164790713Y-51234848D01*
X164760234Y-51227213D01*
X164730650Y-51216628D01*
X164702246Y-51203194D01*
X164675296Y-51187041D01*
X164650058Y-51168323D01*
X164626777Y-51147223D01*
X164605677Y-51123942D01*
X164586959Y-51098704D01*
X164570806Y-51071754D01*
X164557372Y-51043350D01*
X164546787Y-51013766D01*
X164539152Y-50983287D01*
X164534542Y-50952207D01*
X164533000Y-50920824D01*
X164533000Y-49736176D01*
X164534542Y-49704793D01*
X164539152Y-49673713D01*
X164546787Y-49643234D01*
X164557372Y-49613650D01*
X164570806Y-49585246D01*
X164586959Y-49558296D01*
X164605677Y-49533058D01*
X164626777Y-49509777D01*
X164650058Y-49488677D01*
X164675296Y-49469959D01*
X164702246Y-49453806D01*
X164730650Y-49440372D01*
X164760234Y-49429787D01*
X164790713Y-49422152D01*
X164821793Y-49417542D01*
X164853176Y-49416000D01*
X166362824Y-49416000D01*
X166394207Y-49417542D01*
X166394207Y-49417542D01*
G37*
D13*
X165608000Y-50328500D03*
G04 #@! TD*
D12*
G04 #@! TO.C,R14*
G36*
X165124207Y-79861042D02*
X165155287Y-79865652D01*
X165185766Y-79873287D01*
X165215350Y-79883872D01*
X165243754Y-79897306D01*
X165270704Y-79913459D01*
X165295942Y-79932177D01*
X165319223Y-79953277D01*
X165340323Y-79976558D01*
X165359041Y-80001796D01*
X165375194Y-80028746D01*
X165388628Y-80057150D01*
X165399213Y-80086734D01*
X165406848Y-80117213D01*
X165411458Y-80148293D01*
X165413000Y-80179676D01*
X165413000Y-81364324D01*
X165411458Y-81395707D01*
X165406848Y-81426787D01*
X165399213Y-81457266D01*
X165388628Y-81486850D01*
X165375194Y-81515254D01*
X165359041Y-81542204D01*
X165340323Y-81567442D01*
X165319223Y-81590723D01*
X165295942Y-81611823D01*
X165270704Y-81630541D01*
X165243754Y-81646694D01*
X165215350Y-81660128D01*
X165185766Y-81670713D01*
X165155287Y-81678348D01*
X165124207Y-81682958D01*
X165092824Y-81684500D01*
X163583176Y-81684500D01*
X163551793Y-81682958D01*
X163520713Y-81678348D01*
X163490234Y-81670713D01*
X163460650Y-81660128D01*
X163432246Y-81646694D01*
X163405296Y-81630541D01*
X163380058Y-81611823D01*
X163356777Y-81590723D01*
X163335677Y-81567442D01*
X163316959Y-81542204D01*
X163300806Y-81515254D01*
X163287372Y-81486850D01*
X163276787Y-81457266D01*
X163269152Y-81426787D01*
X163264542Y-81395707D01*
X163263000Y-81364324D01*
X163263000Y-80179676D01*
X163264542Y-80148293D01*
X163269152Y-80117213D01*
X163276787Y-80086734D01*
X163287372Y-80057150D01*
X163300806Y-80028746D01*
X163316959Y-80001796D01*
X163335677Y-79976558D01*
X163356777Y-79953277D01*
X163380058Y-79932177D01*
X163405296Y-79913459D01*
X163432246Y-79897306D01*
X163460650Y-79883872D01*
X163490234Y-79873287D01*
X163520713Y-79865652D01*
X163551793Y-79861042D01*
X163583176Y-79859500D01*
X165092824Y-79859500D01*
X165124207Y-79861042D01*
X165124207Y-79861042D01*
G37*
D13*
X164338000Y-80772000D03*
D12*
G36*
X165124207Y-82836042D02*
X165155287Y-82840652D01*
X165185766Y-82848287D01*
X165215350Y-82858872D01*
X165243754Y-82872306D01*
X165270704Y-82888459D01*
X165295942Y-82907177D01*
X165319223Y-82928277D01*
X165340323Y-82951558D01*
X165359041Y-82976796D01*
X165375194Y-83003746D01*
X165388628Y-83032150D01*
X165399213Y-83061734D01*
X165406848Y-83092213D01*
X165411458Y-83123293D01*
X165413000Y-83154676D01*
X165413000Y-84339324D01*
X165411458Y-84370707D01*
X165406848Y-84401787D01*
X165399213Y-84432266D01*
X165388628Y-84461850D01*
X165375194Y-84490254D01*
X165359041Y-84517204D01*
X165340323Y-84542442D01*
X165319223Y-84565723D01*
X165295942Y-84586823D01*
X165270704Y-84605541D01*
X165243754Y-84621694D01*
X165215350Y-84635128D01*
X165185766Y-84645713D01*
X165155287Y-84653348D01*
X165124207Y-84657958D01*
X165092824Y-84659500D01*
X163583176Y-84659500D01*
X163551793Y-84657958D01*
X163520713Y-84653348D01*
X163490234Y-84645713D01*
X163460650Y-84635128D01*
X163432246Y-84621694D01*
X163405296Y-84605541D01*
X163380058Y-84586823D01*
X163356777Y-84565723D01*
X163335677Y-84542442D01*
X163316959Y-84517204D01*
X163300806Y-84490254D01*
X163287372Y-84461850D01*
X163276787Y-84432266D01*
X163269152Y-84401787D01*
X163264542Y-84370707D01*
X163263000Y-84339324D01*
X163263000Y-83154676D01*
X163264542Y-83123293D01*
X163269152Y-83092213D01*
X163276787Y-83061734D01*
X163287372Y-83032150D01*
X163300806Y-83003746D01*
X163316959Y-82976796D01*
X163335677Y-82951558D01*
X163356777Y-82928277D01*
X163380058Y-82907177D01*
X163405296Y-82888459D01*
X163432246Y-82872306D01*
X163460650Y-82858872D01*
X163490234Y-82848287D01*
X163520713Y-82840652D01*
X163551793Y-82836042D01*
X163583176Y-82834500D01*
X165092824Y-82834500D01*
X165124207Y-82836042D01*
X165124207Y-82836042D01*
G37*
D13*
X164338000Y-83747000D03*
G04 #@! TD*
D12*
G04 #@! TO.C,R15*
G36*
X168046207Y-84016542D02*
X168077287Y-84021152D01*
X168107766Y-84028787D01*
X168137350Y-84039372D01*
X168165754Y-84052806D01*
X168192704Y-84068959D01*
X168217942Y-84087677D01*
X168241223Y-84108777D01*
X168262323Y-84132058D01*
X168281041Y-84157296D01*
X168297194Y-84184246D01*
X168310628Y-84212650D01*
X168321213Y-84242234D01*
X168328848Y-84272713D01*
X168333458Y-84303793D01*
X168335000Y-84335176D01*
X168335000Y-85844824D01*
X168333458Y-85876207D01*
X168328848Y-85907287D01*
X168321213Y-85937766D01*
X168310628Y-85967350D01*
X168297194Y-85995754D01*
X168281041Y-86022704D01*
X168262323Y-86047942D01*
X168241223Y-86071223D01*
X168217942Y-86092323D01*
X168192704Y-86111041D01*
X168165754Y-86127194D01*
X168137350Y-86140628D01*
X168107766Y-86151213D01*
X168077287Y-86158848D01*
X168046207Y-86163458D01*
X168014824Y-86165000D01*
X166830176Y-86165000D01*
X166798793Y-86163458D01*
X166767713Y-86158848D01*
X166737234Y-86151213D01*
X166707650Y-86140628D01*
X166679246Y-86127194D01*
X166652296Y-86111041D01*
X166627058Y-86092323D01*
X166603777Y-86071223D01*
X166582677Y-86047942D01*
X166563959Y-86022704D01*
X166547806Y-85995754D01*
X166534372Y-85967350D01*
X166523787Y-85937766D01*
X166516152Y-85907287D01*
X166511542Y-85876207D01*
X166510000Y-85844824D01*
X166510000Y-84335176D01*
X166511542Y-84303793D01*
X166516152Y-84272713D01*
X166523787Y-84242234D01*
X166534372Y-84212650D01*
X166547806Y-84184246D01*
X166563959Y-84157296D01*
X166582677Y-84132058D01*
X166603777Y-84108777D01*
X166627058Y-84087677D01*
X166652296Y-84068959D01*
X166679246Y-84052806D01*
X166707650Y-84039372D01*
X166737234Y-84028787D01*
X166767713Y-84021152D01*
X166798793Y-84016542D01*
X166830176Y-84015000D01*
X168014824Y-84015000D01*
X168046207Y-84016542D01*
X168046207Y-84016542D01*
G37*
D13*
X167422500Y-85090000D03*
D12*
G36*
X171021207Y-84016542D02*
X171052287Y-84021152D01*
X171082766Y-84028787D01*
X171112350Y-84039372D01*
X171140754Y-84052806D01*
X171167704Y-84068959D01*
X171192942Y-84087677D01*
X171216223Y-84108777D01*
X171237323Y-84132058D01*
X171256041Y-84157296D01*
X171272194Y-84184246D01*
X171285628Y-84212650D01*
X171296213Y-84242234D01*
X171303848Y-84272713D01*
X171308458Y-84303793D01*
X171310000Y-84335176D01*
X171310000Y-85844824D01*
X171308458Y-85876207D01*
X171303848Y-85907287D01*
X171296213Y-85937766D01*
X171285628Y-85967350D01*
X171272194Y-85995754D01*
X171256041Y-86022704D01*
X171237323Y-86047942D01*
X171216223Y-86071223D01*
X171192942Y-86092323D01*
X171167704Y-86111041D01*
X171140754Y-86127194D01*
X171112350Y-86140628D01*
X171082766Y-86151213D01*
X171052287Y-86158848D01*
X171021207Y-86163458D01*
X170989824Y-86165000D01*
X169805176Y-86165000D01*
X169773793Y-86163458D01*
X169742713Y-86158848D01*
X169712234Y-86151213D01*
X169682650Y-86140628D01*
X169654246Y-86127194D01*
X169627296Y-86111041D01*
X169602058Y-86092323D01*
X169578777Y-86071223D01*
X169557677Y-86047942D01*
X169538959Y-86022704D01*
X169522806Y-85995754D01*
X169509372Y-85967350D01*
X169498787Y-85937766D01*
X169491152Y-85907287D01*
X169486542Y-85876207D01*
X169485000Y-85844824D01*
X169485000Y-84335176D01*
X169486542Y-84303793D01*
X169491152Y-84272713D01*
X169498787Y-84242234D01*
X169509372Y-84212650D01*
X169522806Y-84184246D01*
X169538959Y-84157296D01*
X169557677Y-84132058D01*
X169578777Y-84108777D01*
X169602058Y-84087677D01*
X169627296Y-84068959D01*
X169654246Y-84052806D01*
X169682650Y-84039372D01*
X169712234Y-84028787D01*
X169742713Y-84021152D01*
X169773793Y-84016542D01*
X169805176Y-84015000D01*
X170989824Y-84015000D01*
X171021207Y-84016542D01*
X171021207Y-84016542D01*
G37*
D13*
X170397500Y-85090000D03*
G04 #@! TD*
D12*
G04 #@! TO.C,R16*
G36*
X155346207Y-55314542D02*
X155377287Y-55319152D01*
X155407766Y-55326787D01*
X155437350Y-55337372D01*
X155465754Y-55350806D01*
X155492704Y-55366959D01*
X155517942Y-55385677D01*
X155541223Y-55406777D01*
X155562323Y-55430058D01*
X155581041Y-55455296D01*
X155597194Y-55482246D01*
X155610628Y-55510650D01*
X155621213Y-55540234D01*
X155628848Y-55570713D01*
X155633458Y-55601793D01*
X155635000Y-55633176D01*
X155635000Y-57142824D01*
X155633458Y-57174207D01*
X155628848Y-57205287D01*
X155621213Y-57235766D01*
X155610628Y-57265350D01*
X155597194Y-57293754D01*
X155581041Y-57320704D01*
X155562323Y-57345942D01*
X155541223Y-57369223D01*
X155517942Y-57390323D01*
X155492704Y-57409041D01*
X155465754Y-57425194D01*
X155437350Y-57438628D01*
X155407766Y-57449213D01*
X155377287Y-57456848D01*
X155346207Y-57461458D01*
X155314824Y-57463000D01*
X154130176Y-57463000D01*
X154098793Y-57461458D01*
X154067713Y-57456848D01*
X154037234Y-57449213D01*
X154007650Y-57438628D01*
X153979246Y-57425194D01*
X153952296Y-57409041D01*
X153927058Y-57390323D01*
X153903777Y-57369223D01*
X153882677Y-57345942D01*
X153863959Y-57320704D01*
X153847806Y-57293754D01*
X153834372Y-57265350D01*
X153823787Y-57235766D01*
X153816152Y-57205287D01*
X153811542Y-57174207D01*
X153810000Y-57142824D01*
X153810000Y-55633176D01*
X153811542Y-55601793D01*
X153816152Y-55570713D01*
X153823787Y-55540234D01*
X153834372Y-55510650D01*
X153847806Y-55482246D01*
X153863959Y-55455296D01*
X153882677Y-55430058D01*
X153903777Y-55406777D01*
X153927058Y-55385677D01*
X153952296Y-55366959D01*
X153979246Y-55350806D01*
X154007650Y-55337372D01*
X154037234Y-55326787D01*
X154067713Y-55319152D01*
X154098793Y-55314542D01*
X154130176Y-55313000D01*
X155314824Y-55313000D01*
X155346207Y-55314542D01*
X155346207Y-55314542D01*
G37*
D13*
X154722500Y-56388000D03*
D12*
G36*
X158321207Y-55314542D02*
X158352287Y-55319152D01*
X158382766Y-55326787D01*
X158412350Y-55337372D01*
X158440754Y-55350806D01*
X158467704Y-55366959D01*
X158492942Y-55385677D01*
X158516223Y-55406777D01*
X158537323Y-55430058D01*
X158556041Y-55455296D01*
X158572194Y-55482246D01*
X158585628Y-55510650D01*
X158596213Y-55540234D01*
X158603848Y-55570713D01*
X158608458Y-55601793D01*
X158610000Y-55633176D01*
X158610000Y-57142824D01*
X158608458Y-57174207D01*
X158603848Y-57205287D01*
X158596213Y-57235766D01*
X158585628Y-57265350D01*
X158572194Y-57293754D01*
X158556041Y-57320704D01*
X158537323Y-57345942D01*
X158516223Y-57369223D01*
X158492942Y-57390323D01*
X158467704Y-57409041D01*
X158440754Y-57425194D01*
X158412350Y-57438628D01*
X158382766Y-57449213D01*
X158352287Y-57456848D01*
X158321207Y-57461458D01*
X158289824Y-57463000D01*
X157105176Y-57463000D01*
X157073793Y-57461458D01*
X157042713Y-57456848D01*
X157012234Y-57449213D01*
X156982650Y-57438628D01*
X156954246Y-57425194D01*
X156927296Y-57409041D01*
X156902058Y-57390323D01*
X156878777Y-57369223D01*
X156857677Y-57345942D01*
X156838959Y-57320704D01*
X156822806Y-57293754D01*
X156809372Y-57265350D01*
X156798787Y-57235766D01*
X156791152Y-57205287D01*
X156786542Y-57174207D01*
X156785000Y-57142824D01*
X156785000Y-55633176D01*
X156786542Y-55601793D01*
X156791152Y-55570713D01*
X156798787Y-55540234D01*
X156809372Y-55510650D01*
X156822806Y-55482246D01*
X156838959Y-55455296D01*
X156857677Y-55430058D01*
X156878777Y-55406777D01*
X156902058Y-55385677D01*
X156927296Y-55366959D01*
X156954246Y-55350806D01*
X156982650Y-55337372D01*
X157012234Y-55326787D01*
X157042713Y-55319152D01*
X157073793Y-55314542D01*
X157105176Y-55313000D01*
X158289824Y-55313000D01*
X158321207Y-55314542D01*
X158321207Y-55314542D01*
G37*
D13*
X157697500Y-56388000D03*
G04 #@! TD*
D12*
G04 #@! TO.C,R17*
G36*
X159790207Y-52392542D02*
X159821287Y-52397152D01*
X159851766Y-52404787D01*
X159881350Y-52415372D01*
X159909754Y-52428806D01*
X159936704Y-52444959D01*
X159961942Y-52463677D01*
X159985223Y-52484777D01*
X160006323Y-52508058D01*
X160025041Y-52533296D01*
X160041194Y-52560246D01*
X160054628Y-52588650D01*
X160065213Y-52618234D01*
X160072848Y-52648713D01*
X160077458Y-52679793D01*
X160079000Y-52711176D01*
X160079000Y-53895824D01*
X160077458Y-53927207D01*
X160072848Y-53958287D01*
X160065213Y-53988766D01*
X160054628Y-54018350D01*
X160041194Y-54046754D01*
X160025041Y-54073704D01*
X160006323Y-54098942D01*
X159985223Y-54122223D01*
X159961942Y-54143323D01*
X159936704Y-54162041D01*
X159909754Y-54178194D01*
X159881350Y-54191628D01*
X159851766Y-54202213D01*
X159821287Y-54209848D01*
X159790207Y-54214458D01*
X159758824Y-54216000D01*
X158249176Y-54216000D01*
X158217793Y-54214458D01*
X158186713Y-54209848D01*
X158156234Y-54202213D01*
X158126650Y-54191628D01*
X158098246Y-54178194D01*
X158071296Y-54162041D01*
X158046058Y-54143323D01*
X158022777Y-54122223D01*
X158001677Y-54098942D01*
X157982959Y-54073704D01*
X157966806Y-54046754D01*
X157953372Y-54018350D01*
X157942787Y-53988766D01*
X157935152Y-53958287D01*
X157930542Y-53927207D01*
X157929000Y-53895824D01*
X157929000Y-52711176D01*
X157930542Y-52679793D01*
X157935152Y-52648713D01*
X157942787Y-52618234D01*
X157953372Y-52588650D01*
X157966806Y-52560246D01*
X157982959Y-52533296D01*
X158001677Y-52508058D01*
X158022777Y-52484777D01*
X158046058Y-52463677D01*
X158071296Y-52444959D01*
X158098246Y-52428806D01*
X158126650Y-52415372D01*
X158156234Y-52404787D01*
X158186713Y-52397152D01*
X158217793Y-52392542D01*
X158249176Y-52391000D01*
X159758824Y-52391000D01*
X159790207Y-52392542D01*
X159790207Y-52392542D01*
G37*
D13*
X159004000Y-53303500D03*
D12*
G36*
X159790207Y-49417542D02*
X159821287Y-49422152D01*
X159851766Y-49429787D01*
X159881350Y-49440372D01*
X159909754Y-49453806D01*
X159936704Y-49469959D01*
X159961942Y-49488677D01*
X159985223Y-49509777D01*
X160006323Y-49533058D01*
X160025041Y-49558296D01*
X160041194Y-49585246D01*
X160054628Y-49613650D01*
X160065213Y-49643234D01*
X160072848Y-49673713D01*
X160077458Y-49704793D01*
X160079000Y-49736176D01*
X160079000Y-50920824D01*
X160077458Y-50952207D01*
X160072848Y-50983287D01*
X160065213Y-51013766D01*
X160054628Y-51043350D01*
X160041194Y-51071754D01*
X160025041Y-51098704D01*
X160006323Y-51123942D01*
X159985223Y-51147223D01*
X159961942Y-51168323D01*
X159936704Y-51187041D01*
X159909754Y-51203194D01*
X159881350Y-51216628D01*
X159851766Y-51227213D01*
X159821287Y-51234848D01*
X159790207Y-51239458D01*
X159758824Y-51241000D01*
X158249176Y-51241000D01*
X158217793Y-51239458D01*
X158186713Y-51234848D01*
X158156234Y-51227213D01*
X158126650Y-51216628D01*
X158098246Y-51203194D01*
X158071296Y-51187041D01*
X158046058Y-51168323D01*
X158022777Y-51147223D01*
X158001677Y-51123942D01*
X157982959Y-51098704D01*
X157966806Y-51071754D01*
X157953372Y-51043350D01*
X157942787Y-51013766D01*
X157935152Y-50983287D01*
X157930542Y-50952207D01*
X157929000Y-50920824D01*
X157929000Y-49736176D01*
X157930542Y-49704793D01*
X157935152Y-49673713D01*
X157942787Y-49643234D01*
X157953372Y-49613650D01*
X157966806Y-49585246D01*
X157982959Y-49558296D01*
X158001677Y-49533058D01*
X158022777Y-49509777D01*
X158046058Y-49488677D01*
X158071296Y-49469959D01*
X158098246Y-49453806D01*
X158126650Y-49440372D01*
X158156234Y-49429787D01*
X158186713Y-49422152D01*
X158217793Y-49417542D01*
X158249176Y-49416000D01*
X159758824Y-49416000D01*
X159790207Y-49417542D01*
X159790207Y-49417542D01*
G37*
D13*
X159004000Y-50328500D03*
G04 #@! TD*
D12*
G04 #@! TO.C,C1*
G36*
X95926822Y-81814113D02*
X95957902Y-81818723D01*
X95988381Y-81826358D01*
X96017965Y-81836943D01*
X96046369Y-81850377D01*
X96073319Y-81866530D01*
X96098557Y-81885248D01*
X96121838Y-81906348D01*
X96142938Y-81929629D01*
X96161656Y-81954867D01*
X96177809Y-81981817D01*
X96191243Y-82010221D01*
X96201828Y-82039805D01*
X96209463Y-82070284D01*
X96214073Y-82101364D01*
X96215615Y-82132747D01*
X96215615Y-83317395D01*
X96214073Y-83348778D01*
X96209463Y-83379858D01*
X96201828Y-83410337D01*
X96191243Y-83439921D01*
X96177809Y-83468325D01*
X96161656Y-83495275D01*
X96142938Y-83520513D01*
X96121838Y-83543794D01*
X96098557Y-83564894D01*
X96073319Y-83583612D01*
X96046369Y-83599765D01*
X96017965Y-83613199D01*
X95988381Y-83623784D01*
X95957902Y-83631419D01*
X95926822Y-83636029D01*
X95895439Y-83637571D01*
X94385791Y-83637571D01*
X94354408Y-83636029D01*
X94323328Y-83631419D01*
X94292849Y-83623784D01*
X94263265Y-83613199D01*
X94234861Y-83599765D01*
X94207911Y-83583612D01*
X94182673Y-83564894D01*
X94159392Y-83543794D01*
X94138292Y-83520513D01*
X94119574Y-83495275D01*
X94103421Y-83468325D01*
X94089987Y-83439921D01*
X94079402Y-83410337D01*
X94071767Y-83379858D01*
X94067157Y-83348778D01*
X94065615Y-83317395D01*
X94065615Y-82132747D01*
X94067157Y-82101364D01*
X94071767Y-82070284D01*
X94079402Y-82039805D01*
X94089987Y-82010221D01*
X94103421Y-81981817D01*
X94119574Y-81954867D01*
X94138292Y-81929629D01*
X94159392Y-81906348D01*
X94182673Y-81885248D01*
X94207911Y-81866530D01*
X94234861Y-81850377D01*
X94263265Y-81836943D01*
X94292849Y-81826358D01*
X94323328Y-81818723D01*
X94354408Y-81814113D01*
X94385791Y-81812571D01*
X95895439Y-81812571D01*
X95926822Y-81814113D01*
X95926822Y-81814113D01*
G37*
D13*
X95140615Y-82725071D03*
D12*
G36*
X95926822Y-84789113D02*
X95957902Y-84793723D01*
X95988381Y-84801358D01*
X96017965Y-84811943D01*
X96046369Y-84825377D01*
X96073319Y-84841530D01*
X96098557Y-84860248D01*
X96121838Y-84881348D01*
X96142938Y-84904629D01*
X96161656Y-84929867D01*
X96177809Y-84956817D01*
X96191243Y-84985221D01*
X96201828Y-85014805D01*
X96209463Y-85045284D01*
X96214073Y-85076364D01*
X96215615Y-85107747D01*
X96215615Y-86292395D01*
X96214073Y-86323778D01*
X96209463Y-86354858D01*
X96201828Y-86385337D01*
X96191243Y-86414921D01*
X96177809Y-86443325D01*
X96161656Y-86470275D01*
X96142938Y-86495513D01*
X96121838Y-86518794D01*
X96098557Y-86539894D01*
X96073319Y-86558612D01*
X96046369Y-86574765D01*
X96017965Y-86588199D01*
X95988381Y-86598784D01*
X95957902Y-86606419D01*
X95926822Y-86611029D01*
X95895439Y-86612571D01*
X94385791Y-86612571D01*
X94354408Y-86611029D01*
X94323328Y-86606419D01*
X94292849Y-86598784D01*
X94263265Y-86588199D01*
X94234861Y-86574765D01*
X94207911Y-86558612D01*
X94182673Y-86539894D01*
X94159392Y-86518794D01*
X94138292Y-86495513D01*
X94119574Y-86470275D01*
X94103421Y-86443325D01*
X94089987Y-86414921D01*
X94079402Y-86385337D01*
X94071767Y-86354858D01*
X94067157Y-86323778D01*
X94065615Y-86292395D01*
X94065615Y-85107747D01*
X94067157Y-85076364D01*
X94071767Y-85045284D01*
X94079402Y-85014805D01*
X94089987Y-84985221D01*
X94103421Y-84956817D01*
X94119574Y-84929867D01*
X94138292Y-84904629D01*
X94159392Y-84881348D01*
X94182673Y-84860248D01*
X94207911Y-84841530D01*
X94234861Y-84825377D01*
X94263265Y-84811943D01*
X94292849Y-84801358D01*
X94323328Y-84793723D01*
X94354408Y-84789113D01*
X94385791Y-84787571D01*
X95895439Y-84787571D01*
X95926822Y-84789113D01*
X95926822Y-84789113D01*
G37*
D13*
X95140615Y-85700071D03*
G04 #@! TD*
D12*
G04 #@! TO.C,C2*
G36*
X98671563Y-69312979D02*
X98702643Y-69317589D01*
X98733122Y-69325224D01*
X98762706Y-69335809D01*
X98791110Y-69349243D01*
X98818060Y-69365396D01*
X98843298Y-69384114D01*
X98866579Y-69405214D01*
X98887679Y-69428495D01*
X98906397Y-69453733D01*
X98922550Y-69480683D01*
X98935984Y-69509087D01*
X98946569Y-69538671D01*
X98954204Y-69569150D01*
X98958814Y-69600230D01*
X98960356Y-69631613D01*
X98960356Y-70816261D01*
X98958814Y-70847644D01*
X98954204Y-70878724D01*
X98946569Y-70909203D01*
X98935984Y-70938787D01*
X98922550Y-70967191D01*
X98906397Y-70994141D01*
X98887679Y-71019379D01*
X98866579Y-71042660D01*
X98843298Y-71063760D01*
X98818060Y-71082478D01*
X98791110Y-71098631D01*
X98762706Y-71112065D01*
X98733122Y-71122650D01*
X98702643Y-71130285D01*
X98671563Y-71134895D01*
X98640180Y-71136437D01*
X97130532Y-71136437D01*
X97099149Y-71134895D01*
X97068069Y-71130285D01*
X97037590Y-71122650D01*
X97008006Y-71112065D01*
X96979602Y-71098631D01*
X96952652Y-71082478D01*
X96927414Y-71063760D01*
X96904133Y-71042660D01*
X96883033Y-71019379D01*
X96864315Y-70994141D01*
X96848162Y-70967191D01*
X96834728Y-70938787D01*
X96824143Y-70909203D01*
X96816508Y-70878724D01*
X96811898Y-70847644D01*
X96810356Y-70816261D01*
X96810356Y-69631613D01*
X96811898Y-69600230D01*
X96816508Y-69569150D01*
X96824143Y-69538671D01*
X96834728Y-69509087D01*
X96848162Y-69480683D01*
X96864315Y-69453733D01*
X96883033Y-69428495D01*
X96904133Y-69405214D01*
X96927414Y-69384114D01*
X96952652Y-69365396D01*
X96979602Y-69349243D01*
X97008006Y-69335809D01*
X97037590Y-69325224D01*
X97068069Y-69317589D01*
X97099149Y-69312979D01*
X97130532Y-69311437D01*
X98640180Y-69311437D01*
X98671563Y-69312979D01*
X98671563Y-69312979D01*
G37*
D13*
X97885356Y-70223937D03*
D12*
G36*
X98671563Y-72287979D02*
X98702643Y-72292589D01*
X98733122Y-72300224D01*
X98762706Y-72310809D01*
X98791110Y-72324243D01*
X98818060Y-72340396D01*
X98843298Y-72359114D01*
X98866579Y-72380214D01*
X98887679Y-72403495D01*
X98906397Y-72428733D01*
X98922550Y-72455683D01*
X98935984Y-72484087D01*
X98946569Y-72513671D01*
X98954204Y-72544150D01*
X98958814Y-72575230D01*
X98960356Y-72606613D01*
X98960356Y-73791261D01*
X98958814Y-73822644D01*
X98954204Y-73853724D01*
X98946569Y-73884203D01*
X98935984Y-73913787D01*
X98922550Y-73942191D01*
X98906397Y-73969141D01*
X98887679Y-73994379D01*
X98866579Y-74017660D01*
X98843298Y-74038760D01*
X98818060Y-74057478D01*
X98791110Y-74073631D01*
X98762706Y-74087065D01*
X98733122Y-74097650D01*
X98702643Y-74105285D01*
X98671563Y-74109895D01*
X98640180Y-74111437D01*
X97130532Y-74111437D01*
X97099149Y-74109895D01*
X97068069Y-74105285D01*
X97037590Y-74097650D01*
X97008006Y-74087065D01*
X96979602Y-74073631D01*
X96952652Y-74057478D01*
X96927414Y-74038760D01*
X96904133Y-74017660D01*
X96883033Y-73994379D01*
X96864315Y-73969141D01*
X96848162Y-73942191D01*
X96834728Y-73913787D01*
X96824143Y-73884203D01*
X96816508Y-73853724D01*
X96811898Y-73822644D01*
X96810356Y-73791261D01*
X96810356Y-72606613D01*
X96811898Y-72575230D01*
X96816508Y-72544150D01*
X96824143Y-72513671D01*
X96834728Y-72484087D01*
X96848162Y-72455683D01*
X96864315Y-72428733D01*
X96883033Y-72403495D01*
X96904133Y-72380214D01*
X96927414Y-72359114D01*
X96952652Y-72340396D01*
X96979602Y-72324243D01*
X97008006Y-72310809D01*
X97037590Y-72300224D01*
X97068069Y-72292589D01*
X97099149Y-72287979D01*
X97130532Y-72286437D01*
X98640180Y-72286437D01*
X98671563Y-72287979D01*
X98671563Y-72287979D01*
G37*
D13*
X97885356Y-73198937D03*
G04 #@! TD*
D12*
G04 #@! TO.C,C3*
G36*
X98720822Y-81814113D02*
X98751902Y-81818723D01*
X98782381Y-81826358D01*
X98811965Y-81836943D01*
X98840369Y-81850377D01*
X98867319Y-81866530D01*
X98892557Y-81885248D01*
X98915838Y-81906348D01*
X98936938Y-81929629D01*
X98955656Y-81954867D01*
X98971809Y-81981817D01*
X98985243Y-82010221D01*
X98995828Y-82039805D01*
X99003463Y-82070284D01*
X99008073Y-82101364D01*
X99009615Y-82132747D01*
X99009615Y-83317395D01*
X99008073Y-83348778D01*
X99003463Y-83379858D01*
X98995828Y-83410337D01*
X98985243Y-83439921D01*
X98971809Y-83468325D01*
X98955656Y-83495275D01*
X98936938Y-83520513D01*
X98915838Y-83543794D01*
X98892557Y-83564894D01*
X98867319Y-83583612D01*
X98840369Y-83599765D01*
X98811965Y-83613199D01*
X98782381Y-83623784D01*
X98751902Y-83631419D01*
X98720822Y-83636029D01*
X98689439Y-83637571D01*
X97179791Y-83637571D01*
X97148408Y-83636029D01*
X97117328Y-83631419D01*
X97086849Y-83623784D01*
X97057265Y-83613199D01*
X97028861Y-83599765D01*
X97001911Y-83583612D01*
X96976673Y-83564894D01*
X96953392Y-83543794D01*
X96932292Y-83520513D01*
X96913574Y-83495275D01*
X96897421Y-83468325D01*
X96883987Y-83439921D01*
X96873402Y-83410337D01*
X96865767Y-83379858D01*
X96861157Y-83348778D01*
X96859615Y-83317395D01*
X96859615Y-82132747D01*
X96861157Y-82101364D01*
X96865767Y-82070284D01*
X96873402Y-82039805D01*
X96883987Y-82010221D01*
X96897421Y-81981817D01*
X96913574Y-81954867D01*
X96932292Y-81929629D01*
X96953392Y-81906348D01*
X96976673Y-81885248D01*
X97001911Y-81866530D01*
X97028861Y-81850377D01*
X97057265Y-81836943D01*
X97086849Y-81826358D01*
X97117328Y-81818723D01*
X97148408Y-81814113D01*
X97179791Y-81812571D01*
X98689439Y-81812571D01*
X98720822Y-81814113D01*
X98720822Y-81814113D01*
G37*
D13*
X97934615Y-82725071D03*
D12*
G36*
X98720822Y-84789113D02*
X98751902Y-84793723D01*
X98782381Y-84801358D01*
X98811965Y-84811943D01*
X98840369Y-84825377D01*
X98867319Y-84841530D01*
X98892557Y-84860248D01*
X98915838Y-84881348D01*
X98936938Y-84904629D01*
X98955656Y-84929867D01*
X98971809Y-84956817D01*
X98985243Y-84985221D01*
X98995828Y-85014805D01*
X99003463Y-85045284D01*
X99008073Y-85076364D01*
X99009615Y-85107747D01*
X99009615Y-86292395D01*
X99008073Y-86323778D01*
X99003463Y-86354858D01*
X98995828Y-86385337D01*
X98985243Y-86414921D01*
X98971809Y-86443325D01*
X98955656Y-86470275D01*
X98936938Y-86495513D01*
X98915838Y-86518794D01*
X98892557Y-86539894D01*
X98867319Y-86558612D01*
X98840369Y-86574765D01*
X98811965Y-86588199D01*
X98782381Y-86598784D01*
X98751902Y-86606419D01*
X98720822Y-86611029D01*
X98689439Y-86612571D01*
X97179791Y-86612571D01*
X97148408Y-86611029D01*
X97117328Y-86606419D01*
X97086849Y-86598784D01*
X97057265Y-86588199D01*
X97028861Y-86574765D01*
X97001911Y-86558612D01*
X96976673Y-86539894D01*
X96953392Y-86518794D01*
X96932292Y-86495513D01*
X96913574Y-86470275D01*
X96897421Y-86443325D01*
X96883987Y-86414921D01*
X96873402Y-86385337D01*
X96865767Y-86354858D01*
X96861157Y-86323778D01*
X96859615Y-86292395D01*
X96859615Y-85107747D01*
X96861157Y-85076364D01*
X96865767Y-85045284D01*
X96873402Y-85014805D01*
X96883987Y-84985221D01*
X96897421Y-84956817D01*
X96913574Y-84929867D01*
X96932292Y-84904629D01*
X96953392Y-84881348D01*
X96976673Y-84860248D01*
X97001911Y-84841530D01*
X97028861Y-84825377D01*
X97057265Y-84811943D01*
X97086849Y-84801358D01*
X97117328Y-84793723D01*
X97148408Y-84789113D01*
X97179791Y-84787571D01*
X98689439Y-84787571D01*
X98720822Y-84789113D01*
X98720822Y-84789113D01*
G37*
D13*
X97934615Y-85700071D03*
G04 #@! TD*
D12*
G04 #@! TO.C,C4*
G36*
X101514822Y-81814113D02*
X101545902Y-81818723D01*
X101576381Y-81826358D01*
X101605965Y-81836943D01*
X101634369Y-81850377D01*
X101661319Y-81866530D01*
X101686557Y-81885248D01*
X101709838Y-81906348D01*
X101730938Y-81929629D01*
X101749656Y-81954867D01*
X101765809Y-81981817D01*
X101779243Y-82010221D01*
X101789828Y-82039805D01*
X101797463Y-82070284D01*
X101802073Y-82101364D01*
X101803615Y-82132747D01*
X101803615Y-83317395D01*
X101802073Y-83348778D01*
X101797463Y-83379858D01*
X101789828Y-83410337D01*
X101779243Y-83439921D01*
X101765809Y-83468325D01*
X101749656Y-83495275D01*
X101730938Y-83520513D01*
X101709838Y-83543794D01*
X101686557Y-83564894D01*
X101661319Y-83583612D01*
X101634369Y-83599765D01*
X101605965Y-83613199D01*
X101576381Y-83623784D01*
X101545902Y-83631419D01*
X101514822Y-83636029D01*
X101483439Y-83637571D01*
X99973791Y-83637571D01*
X99942408Y-83636029D01*
X99911328Y-83631419D01*
X99880849Y-83623784D01*
X99851265Y-83613199D01*
X99822861Y-83599765D01*
X99795911Y-83583612D01*
X99770673Y-83564894D01*
X99747392Y-83543794D01*
X99726292Y-83520513D01*
X99707574Y-83495275D01*
X99691421Y-83468325D01*
X99677987Y-83439921D01*
X99667402Y-83410337D01*
X99659767Y-83379858D01*
X99655157Y-83348778D01*
X99653615Y-83317395D01*
X99653615Y-82132747D01*
X99655157Y-82101364D01*
X99659767Y-82070284D01*
X99667402Y-82039805D01*
X99677987Y-82010221D01*
X99691421Y-81981817D01*
X99707574Y-81954867D01*
X99726292Y-81929629D01*
X99747392Y-81906348D01*
X99770673Y-81885248D01*
X99795911Y-81866530D01*
X99822861Y-81850377D01*
X99851265Y-81836943D01*
X99880849Y-81826358D01*
X99911328Y-81818723D01*
X99942408Y-81814113D01*
X99973791Y-81812571D01*
X101483439Y-81812571D01*
X101514822Y-81814113D01*
X101514822Y-81814113D01*
G37*
D13*
X100728615Y-82725071D03*
D12*
G36*
X101514822Y-84789113D02*
X101545902Y-84793723D01*
X101576381Y-84801358D01*
X101605965Y-84811943D01*
X101634369Y-84825377D01*
X101661319Y-84841530D01*
X101686557Y-84860248D01*
X101709838Y-84881348D01*
X101730938Y-84904629D01*
X101749656Y-84929867D01*
X101765809Y-84956817D01*
X101779243Y-84985221D01*
X101789828Y-85014805D01*
X101797463Y-85045284D01*
X101802073Y-85076364D01*
X101803615Y-85107747D01*
X101803615Y-86292395D01*
X101802073Y-86323778D01*
X101797463Y-86354858D01*
X101789828Y-86385337D01*
X101779243Y-86414921D01*
X101765809Y-86443325D01*
X101749656Y-86470275D01*
X101730938Y-86495513D01*
X101709838Y-86518794D01*
X101686557Y-86539894D01*
X101661319Y-86558612D01*
X101634369Y-86574765D01*
X101605965Y-86588199D01*
X101576381Y-86598784D01*
X101545902Y-86606419D01*
X101514822Y-86611029D01*
X101483439Y-86612571D01*
X99973791Y-86612571D01*
X99942408Y-86611029D01*
X99911328Y-86606419D01*
X99880849Y-86598784D01*
X99851265Y-86588199D01*
X99822861Y-86574765D01*
X99795911Y-86558612D01*
X99770673Y-86539894D01*
X99747392Y-86518794D01*
X99726292Y-86495513D01*
X99707574Y-86470275D01*
X99691421Y-86443325D01*
X99677987Y-86414921D01*
X99667402Y-86385337D01*
X99659767Y-86354858D01*
X99655157Y-86323778D01*
X99653615Y-86292395D01*
X99653615Y-85107747D01*
X99655157Y-85076364D01*
X99659767Y-85045284D01*
X99667402Y-85014805D01*
X99677987Y-84985221D01*
X99691421Y-84956817D01*
X99707574Y-84929867D01*
X99726292Y-84904629D01*
X99747392Y-84881348D01*
X99770673Y-84860248D01*
X99795911Y-84841530D01*
X99822861Y-84825377D01*
X99851265Y-84811943D01*
X99880849Y-84801358D01*
X99911328Y-84793723D01*
X99942408Y-84789113D01*
X99973791Y-84787571D01*
X101483439Y-84787571D01*
X101514822Y-84789113D01*
X101514822Y-84789113D01*
G37*
D13*
X100728615Y-85700071D03*
G04 #@! TD*
D12*
G04 #@! TO.C,C5*
G36*
X101465563Y-69312979D02*
X101496643Y-69317589D01*
X101527122Y-69325224D01*
X101556706Y-69335809D01*
X101585110Y-69349243D01*
X101612060Y-69365396D01*
X101637298Y-69384114D01*
X101660579Y-69405214D01*
X101681679Y-69428495D01*
X101700397Y-69453733D01*
X101716550Y-69480683D01*
X101729984Y-69509087D01*
X101740569Y-69538671D01*
X101748204Y-69569150D01*
X101752814Y-69600230D01*
X101754356Y-69631613D01*
X101754356Y-70816261D01*
X101752814Y-70847644D01*
X101748204Y-70878724D01*
X101740569Y-70909203D01*
X101729984Y-70938787D01*
X101716550Y-70967191D01*
X101700397Y-70994141D01*
X101681679Y-71019379D01*
X101660579Y-71042660D01*
X101637298Y-71063760D01*
X101612060Y-71082478D01*
X101585110Y-71098631D01*
X101556706Y-71112065D01*
X101527122Y-71122650D01*
X101496643Y-71130285D01*
X101465563Y-71134895D01*
X101434180Y-71136437D01*
X99924532Y-71136437D01*
X99893149Y-71134895D01*
X99862069Y-71130285D01*
X99831590Y-71122650D01*
X99802006Y-71112065D01*
X99773602Y-71098631D01*
X99746652Y-71082478D01*
X99721414Y-71063760D01*
X99698133Y-71042660D01*
X99677033Y-71019379D01*
X99658315Y-70994141D01*
X99642162Y-70967191D01*
X99628728Y-70938787D01*
X99618143Y-70909203D01*
X99610508Y-70878724D01*
X99605898Y-70847644D01*
X99604356Y-70816261D01*
X99604356Y-69631613D01*
X99605898Y-69600230D01*
X99610508Y-69569150D01*
X99618143Y-69538671D01*
X99628728Y-69509087D01*
X99642162Y-69480683D01*
X99658315Y-69453733D01*
X99677033Y-69428495D01*
X99698133Y-69405214D01*
X99721414Y-69384114D01*
X99746652Y-69365396D01*
X99773602Y-69349243D01*
X99802006Y-69335809D01*
X99831590Y-69325224D01*
X99862069Y-69317589D01*
X99893149Y-69312979D01*
X99924532Y-69311437D01*
X101434180Y-69311437D01*
X101465563Y-69312979D01*
X101465563Y-69312979D01*
G37*
D13*
X100679356Y-70223937D03*
D12*
G36*
X101465563Y-72287979D02*
X101496643Y-72292589D01*
X101527122Y-72300224D01*
X101556706Y-72310809D01*
X101585110Y-72324243D01*
X101612060Y-72340396D01*
X101637298Y-72359114D01*
X101660579Y-72380214D01*
X101681679Y-72403495D01*
X101700397Y-72428733D01*
X101716550Y-72455683D01*
X101729984Y-72484087D01*
X101740569Y-72513671D01*
X101748204Y-72544150D01*
X101752814Y-72575230D01*
X101754356Y-72606613D01*
X101754356Y-73791261D01*
X101752814Y-73822644D01*
X101748204Y-73853724D01*
X101740569Y-73884203D01*
X101729984Y-73913787D01*
X101716550Y-73942191D01*
X101700397Y-73969141D01*
X101681679Y-73994379D01*
X101660579Y-74017660D01*
X101637298Y-74038760D01*
X101612060Y-74057478D01*
X101585110Y-74073631D01*
X101556706Y-74087065D01*
X101527122Y-74097650D01*
X101496643Y-74105285D01*
X101465563Y-74109895D01*
X101434180Y-74111437D01*
X99924532Y-74111437D01*
X99893149Y-74109895D01*
X99862069Y-74105285D01*
X99831590Y-74097650D01*
X99802006Y-74087065D01*
X99773602Y-74073631D01*
X99746652Y-74057478D01*
X99721414Y-74038760D01*
X99698133Y-74017660D01*
X99677033Y-73994379D01*
X99658315Y-73969141D01*
X99642162Y-73942191D01*
X99628728Y-73913787D01*
X99618143Y-73884203D01*
X99610508Y-73853724D01*
X99605898Y-73822644D01*
X99604356Y-73791261D01*
X99604356Y-72606613D01*
X99605898Y-72575230D01*
X99610508Y-72544150D01*
X99618143Y-72513671D01*
X99628728Y-72484087D01*
X99642162Y-72455683D01*
X99658315Y-72428733D01*
X99677033Y-72403495D01*
X99698133Y-72380214D01*
X99721414Y-72359114D01*
X99746652Y-72340396D01*
X99773602Y-72324243D01*
X99802006Y-72310809D01*
X99831590Y-72300224D01*
X99862069Y-72292589D01*
X99893149Y-72287979D01*
X99924532Y-72286437D01*
X101434180Y-72286437D01*
X101465563Y-72287979D01*
X101465563Y-72287979D01*
G37*
D13*
X100679356Y-73198937D03*
G04 #@! TD*
D12*
G04 #@! TO.C,C6*
G36*
X104308822Y-81723613D02*
X104339902Y-81728223D01*
X104370381Y-81735858D01*
X104399965Y-81746443D01*
X104428369Y-81759877D01*
X104455319Y-81776030D01*
X104480557Y-81794748D01*
X104503838Y-81815848D01*
X104524938Y-81839129D01*
X104543656Y-81864367D01*
X104559809Y-81891317D01*
X104573243Y-81919721D01*
X104583828Y-81949305D01*
X104591463Y-81979784D01*
X104596073Y-82010864D01*
X104597615Y-82042247D01*
X104597615Y-83226895D01*
X104596073Y-83258278D01*
X104591463Y-83289358D01*
X104583828Y-83319837D01*
X104573243Y-83349421D01*
X104559809Y-83377825D01*
X104543656Y-83404775D01*
X104524938Y-83430013D01*
X104503838Y-83453294D01*
X104480557Y-83474394D01*
X104455319Y-83493112D01*
X104428369Y-83509265D01*
X104399965Y-83522699D01*
X104370381Y-83533284D01*
X104339902Y-83540919D01*
X104308822Y-83545529D01*
X104277439Y-83547071D01*
X102767791Y-83547071D01*
X102736408Y-83545529D01*
X102705328Y-83540919D01*
X102674849Y-83533284D01*
X102645265Y-83522699D01*
X102616861Y-83509265D01*
X102589911Y-83493112D01*
X102564673Y-83474394D01*
X102541392Y-83453294D01*
X102520292Y-83430013D01*
X102501574Y-83404775D01*
X102485421Y-83377825D01*
X102471987Y-83349421D01*
X102461402Y-83319837D01*
X102453767Y-83289358D01*
X102449157Y-83258278D01*
X102447615Y-83226895D01*
X102447615Y-82042247D01*
X102449157Y-82010864D01*
X102453767Y-81979784D01*
X102461402Y-81949305D01*
X102471987Y-81919721D01*
X102485421Y-81891317D01*
X102501574Y-81864367D01*
X102520292Y-81839129D01*
X102541392Y-81815848D01*
X102564673Y-81794748D01*
X102589911Y-81776030D01*
X102616861Y-81759877D01*
X102645265Y-81746443D01*
X102674849Y-81735858D01*
X102705328Y-81728223D01*
X102736408Y-81723613D01*
X102767791Y-81722071D01*
X104277439Y-81722071D01*
X104308822Y-81723613D01*
X104308822Y-81723613D01*
G37*
D13*
X103522615Y-82634571D03*
D12*
G36*
X104308822Y-84698613D02*
X104339902Y-84703223D01*
X104370381Y-84710858D01*
X104399965Y-84721443D01*
X104428369Y-84734877D01*
X104455319Y-84751030D01*
X104480557Y-84769748D01*
X104503838Y-84790848D01*
X104524938Y-84814129D01*
X104543656Y-84839367D01*
X104559809Y-84866317D01*
X104573243Y-84894721D01*
X104583828Y-84924305D01*
X104591463Y-84954784D01*
X104596073Y-84985864D01*
X104597615Y-85017247D01*
X104597615Y-86201895D01*
X104596073Y-86233278D01*
X104591463Y-86264358D01*
X104583828Y-86294837D01*
X104573243Y-86324421D01*
X104559809Y-86352825D01*
X104543656Y-86379775D01*
X104524938Y-86405013D01*
X104503838Y-86428294D01*
X104480557Y-86449394D01*
X104455319Y-86468112D01*
X104428369Y-86484265D01*
X104399965Y-86497699D01*
X104370381Y-86508284D01*
X104339902Y-86515919D01*
X104308822Y-86520529D01*
X104277439Y-86522071D01*
X102767791Y-86522071D01*
X102736408Y-86520529D01*
X102705328Y-86515919D01*
X102674849Y-86508284D01*
X102645265Y-86497699D01*
X102616861Y-86484265D01*
X102589911Y-86468112D01*
X102564673Y-86449394D01*
X102541392Y-86428294D01*
X102520292Y-86405013D01*
X102501574Y-86379775D01*
X102485421Y-86352825D01*
X102471987Y-86324421D01*
X102461402Y-86294837D01*
X102453767Y-86264358D01*
X102449157Y-86233278D01*
X102447615Y-86201895D01*
X102447615Y-85017247D01*
X102449157Y-84985864D01*
X102453767Y-84954784D01*
X102461402Y-84924305D01*
X102471987Y-84894721D01*
X102485421Y-84866317D01*
X102501574Y-84839367D01*
X102520292Y-84814129D01*
X102541392Y-84790848D01*
X102564673Y-84769748D01*
X102589911Y-84751030D01*
X102616861Y-84734877D01*
X102645265Y-84721443D01*
X102674849Y-84710858D01*
X102705328Y-84703223D01*
X102736408Y-84698613D01*
X102767791Y-84697071D01*
X104277439Y-84697071D01*
X104308822Y-84698613D01*
X104308822Y-84698613D01*
G37*
D13*
X103522615Y-85609571D03*
G04 #@! TD*
D12*
G04 #@! TO.C,C7*
G36*
X104259563Y-69312979D02*
X104290643Y-69317589D01*
X104321122Y-69325224D01*
X104350706Y-69335809D01*
X104379110Y-69349243D01*
X104406060Y-69365396D01*
X104431298Y-69384114D01*
X104454579Y-69405214D01*
X104475679Y-69428495D01*
X104494397Y-69453733D01*
X104510550Y-69480683D01*
X104523984Y-69509087D01*
X104534569Y-69538671D01*
X104542204Y-69569150D01*
X104546814Y-69600230D01*
X104548356Y-69631613D01*
X104548356Y-70816261D01*
X104546814Y-70847644D01*
X104542204Y-70878724D01*
X104534569Y-70909203D01*
X104523984Y-70938787D01*
X104510550Y-70967191D01*
X104494397Y-70994141D01*
X104475679Y-71019379D01*
X104454579Y-71042660D01*
X104431298Y-71063760D01*
X104406060Y-71082478D01*
X104379110Y-71098631D01*
X104350706Y-71112065D01*
X104321122Y-71122650D01*
X104290643Y-71130285D01*
X104259563Y-71134895D01*
X104228180Y-71136437D01*
X102718532Y-71136437D01*
X102687149Y-71134895D01*
X102656069Y-71130285D01*
X102625590Y-71122650D01*
X102596006Y-71112065D01*
X102567602Y-71098631D01*
X102540652Y-71082478D01*
X102515414Y-71063760D01*
X102492133Y-71042660D01*
X102471033Y-71019379D01*
X102452315Y-70994141D01*
X102436162Y-70967191D01*
X102422728Y-70938787D01*
X102412143Y-70909203D01*
X102404508Y-70878724D01*
X102399898Y-70847644D01*
X102398356Y-70816261D01*
X102398356Y-69631613D01*
X102399898Y-69600230D01*
X102404508Y-69569150D01*
X102412143Y-69538671D01*
X102422728Y-69509087D01*
X102436162Y-69480683D01*
X102452315Y-69453733D01*
X102471033Y-69428495D01*
X102492133Y-69405214D01*
X102515414Y-69384114D01*
X102540652Y-69365396D01*
X102567602Y-69349243D01*
X102596006Y-69335809D01*
X102625590Y-69325224D01*
X102656069Y-69317589D01*
X102687149Y-69312979D01*
X102718532Y-69311437D01*
X104228180Y-69311437D01*
X104259563Y-69312979D01*
X104259563Y-69312979D01*
G37*
D13*
X103473356Y-70223937D03*
D12*
G36*
X104259563Y-72287979D02*
X104290643Y-72292589D01*
X104321122Y-72300224D01*
X104350706Y-72310809D01*
X104379110Y-72324243D01*
X104406060Y-72340396D01*
X104431298Y-72359114D01*
X104454579Y-72380214D01*
X104475679Y-72403495D01*
X104494397Y-72428733D01*
X104510550Y-72455683D01*
X104523984Y-72484087D01*
X104534569Y-72513671D01*
X104542204Y-72544150D01*
X104546814Y-72575230D01*
X104548356Y-72606613D01*
X104548356Y-73791261D01*
X104546814Y-73822644D01*
X104542204Y-73853724D01*
X104534569Y-73884203D01*
X104523984Y-73913787D01*
X104510550Y-73942191D01*
X104494397Y-73969141D01*
X104475679Y-73994379D01*
X104454579Y-74017660D01*
X104431298Y-74038760D01*
X104406060Y-74057478D01*
X104379110Y-74073631D01*
X104350706Y-74087065D01*
X104321122Y-74097650D01*
X104290643Y-74105285D01*
X104259563Y-74109895D01*
X104228180Y-74111437D01*
X102718532Y-74111437D01*
X102687149Y-74109895D01*
X102656069Y-74105285D01*
X102625590Y-74097650D01*
X102596006Y-74087065D01*
X102567602Y-74073631D01*
X102540652Y-74057478D01*
X102515414Y-74038760D01*
X102492133Y-74017660D01*
X102471033Y-73994379D01*
X102452315Y-73969141D01*
X102436162Y-73942191D01*
X102422728Y-73913787D01*
X102412143Y-73884203D01*
X102404508Y-73853724D01*
X102399898Y-73822644D01*
X102398356Y-73791261D01*
X102398356Y-72606613D01*
X102399898Y-72575230D01*
X102404508Y-72544150D01*
X102412143Y-72513671D01*
X102422728Y-72484087D01*
X102436162Y-72455683D01*
X102452315Y-72428733D01*
X102471033Y-72403495D01*
X102492133Y-72380214D01*
X102515414Y-72359114D01*
X102540652Y-72340396D01*
X102567602Y-72324243D01*
X102596006Y-72310809D01*
X102625590Y-72300224D01*
X102656069Y-72292589D01*
X102687149Y-72287979D01*
X102718532Y-72286437D01*
X104228180Y-72286437D01*
X104259563Y-72287979D01*
X104259563Y-72287979D01*
G37*
D13*
X103473356Y-73198937D03*
G04 #@! TD*
D12*
G04 #@! TO.C,C8*
G36*
X107102822Y-81723613D02*
X107133902Y-81728223D01*
X107164381Y-81735858D01*
X107193965Y-81746443D01*
X107222369Y-81759877D01*
X107249319Y-81776030D01*
X107274557Y-81794748D01*
X107297838Y-81815848D01*
X107318938Y-81839129D01*
X107337656Y-81864367D01*
X107353809Y-81891317D01*
X107367243Y-81919721D01*
X107377828Y-81949305D01*
X107385463Y-81979784D01*
X107390073Y-82010864D01*
X107391615Y-82042247D01*
X107391615Y-83226895D01*
X107390073Y-83258278D01*
X107385463Y-83289358D01*
X107377828Y-83319837D01*
X107367243Y-83349421D01*
X107353809Y-83377825D01*
X107337656Y-83404775D01*
X107318938Y-83430013D01*
X107297838Y-83453294D01*
X107274557Y-83474394D01*
X107249319Y-83493112D01*
X107222369Y-83509265D01*
X107193965Y-83522699D01*
X107164381Y-83533284D01*
X107133902Y-83540919D01*
X107102822Y-83545529D01*
X107071439Y-83547071D01*
X105561791Y-83547071D01*
X105530408Y-83545529D01*
X105499328Y-83540919D01*
X105468849Y-83533284D01*
X105439265Y-83522699D01*
X105410861Y-83509265D01*
X105383911Y-83493112D01*
X105358673Y-83474394D01*
X105335392Y-83453294D01*
X105314292Y-83430013D01*
X105295574Y-83404775D01*
X105279421Y-83377825D01*
X105265987Y-83349421D01*
X105255402Y-83319837D01*
X105247767Y-83289358D01*
X105243157Y-83258278D01*
X105241615Y-83226895D01*
X105241615Y-82042247D01*
X105243157Y-82010864D01*
X105247767Y-81979784D01*
X105255402Y-81949305D01*
X105265987Y-81919721D01*
X105279421Y-81891317D01*
X105295574Y-81864367D01*
X105314292Y-81839129D01*
X105335392Y-81815848D01*
X105358673Y-81794748D01*
X105383911Y-81776030D01*
X105410861Y-81759877D01*
X105439265Y-81746443D01*
X105468849Y-81735858D01*
X105499328Y-81728223D01*
X105530408Y-81723613D01*
X105561791Y-81722071D01*
X107071439Y-81722071D01*
X107102822Y-81723613D01*
X107102822Y-81723613D01*
G37*
D13*
X106316615Y-82634571D03*
D12*
G36*
X107102822Y-84698613D02*
X107133902Y-84703223D01*
X107164381Y-84710858D01*
X107193965Y-84721443D01*
X107222369Y-84734877D01*
X107249319Y-84751030D01*
X107274557Y-84769748D01*
X107297838Y-84790848D01*
X107318938Y-84814129D01*
X107337656Y-84839367D01*
X107353809Y-84866317D01*
X107367243Y-84894721D01*
X107377828Y-84924305D01*
X107385463Y-84954784D01*
X107390073Y-84985864D01*
X107391615Y-85017247D01*
X107391615Y-86201895D01*
X107390073Y-86233278D01*
X107385463Y-86264358D01*
X107377828Y-86294837D01*
X107367243Y-86324421D01*
X107353809Y-86352825D01*
X107337656Y-86379775D01*
X107318938Y-86405013D01*
X107297838Y-86428294D01*
X107274557Y-86449394D01*
X107249319Y-86468112D01*
X107222369Y-86484265D01*
X107193965Y-86497699D01*
X107164381Y-86508284D01*
X107133902Y-86515919D01*
X107102822Y-86520529D01*
X107071439Y-86522071D01*
X105561791Y-86522071D01*
X105530408Y-86520529D01*
X105499328Y-86515919D01*
X105468849Y-86508284D01*
X105439265Y-86497699D01*
X105410861Y-86484265D01*
X105383911Y-86468112D01*
X105358673Y-86449394D01*
X105335392Y-86428294D01*
X105314292Y-86405013D01*
X105295574Y-86379775D01*
X105279421Y-86352825D01*
X105265987Y-86324421D01*
X105255402Y-86294837D01*
X105247767Y-86264358D01*
X105243157Y-86233278D01*
X105241615Y-86201895D01*
X105241615Y-85017247D01*
X105243157Y-84985864D01*
X105247767Y-84954784D01*
X105255402Y-84924305D01*
X105265987Y-84894721D01*
X105279421Y-84866317D01*
X105295574Y-84839367D01*
X105314292Y-84814129D01*
X105335392Y-84790848D01*
X105358673Y-84769748D01*
X105383911Y-84751030D01*
X105410861Y-84734877D01*
X105439265Y-84721443D01*
X105468849Y-84710858D01*
X105499328Y-84703223D01*
X105530408Y-84698613D01*
X105561791Y-84697071D01*
X107071439Y-84697071D01*
X107102822Y-84698613D01*
X107102822Y-84698613D01*
G37*
D13*
X106316615Y-85609571D03*
G04 #@! TD*
D12*
G04 #@! TO.C,C9*
G36*
X109896822Y-81687113D02*
X109927902Y-81691723D01*
X109958381Y-81699358D01*
X109987965Y-81709943D01*
X110016369Y-81723377D01*
X110043319Y-81739530D01*
X110068557Y-81758248D01*
X110091838Y-81779348D01*
X110112938Y-81802629D01*
X110131656Y-81827867D01*
X110147809Y-81854817D01*
X110161243Y-81883221D01*
X110171828Y-81912805D01*
X110179463Y-81943284D01*
X110184073Y-81974364D01*
X110185615Y-82005747D01*
X110185615Y-83190395D01*
X110184073Y-83221778D01*
X110179463Y-83252858D01*
X110171828Y-83283337D01*
X110161243Y-83312921D01*
X110147809Y-83341325D01*
X110131656Y-83368275D01*
X110112938Y-83393513D01*
X110091838Y-83416794D01*
X110068557Y-83437894D01*
X110043319Y-83456612D01*
X110016369Y-83472765D01*
X109987965Y-83486199D01*
X109958381Y-83496784D01*
X109927902Y-83504419D01*
X109896822Y-83509029D01*
X109865439Y-83510571D01*
X108355791Y-83510571D01*
X108324408Y-83509029D01*
X108293328Y-83504419D01*
X108262849Y-83496784D01*
X108233265Y-83486199D01*
X108204861Y-83472765D01*
X108177911Y-83456612D01*
X108152673Y-83437894D01*
X108129392Y-83416794D01*
X108108292Y-83393513D01*
X108089574Y-83368275D01*
X108073421Y-83341325D01*
X108059987Y-83312921D01*
X108049402Y-83283337D01*
X108041767Y-83252858D01*
X108037157Y-83221778D01*
X108035615Y-83190395D01*
X108035615Y-82005747D01*
X108037157Y-81974364D01*
X108041767Y-81943284D01*
X108049402Y-81912805D01*
X108059987Y-81883221D01*
X108073421Y-81854817D01*
X108089574Y-81827867D01*
X108108292Y-81802629D01*
X108129392Y-81779348D01*
X108152673Y-81758248D01*
X108177911Y-81739530D01*
X108204861Y-81723377D01*
X108233265Y-81709943D01*
X108262849Y-81699358D01*
X108293328Y-81691723D01*
X108324408Y-81687113D01*
X108355791Y-81685571D01*
X109865439Y-81685571D01*
X109896822Y-81687113D01*
X109896822Y-81687113D01*
G37*
D13*
X109110615Y-82598071D03*
D12*
G36*
X109896822Y-84662113D02*
X109927902Y-84666723D01*
X109958381Y-84674358D01*
X109987965Y-84684943D01*
X110016369Y-84698377D01*
X110043319Y-84714530D01*
X110068557Y-84733248D01*
X110091838Y-84754348D01*
X110112938Y-84777629D01*
X110131656Y-84802867D01*
X110147809Y-84829817D01*
X110161243Y-84858221D01*
X110171828Y-84887805D01*
X110179463Y-84918284D01*
X110184073Y-84949364D01*
X110185615Y-84980747D01*
X110185615Y-86165395D01*
X110184073Y-86196778D01*
X110179463Y-86227858D01*
X110171828Y-86258337D01*
X110161243Y-86287921D01*
X110147809Y-86316325D01*
X110131656Y-86343275D01*
X110112938Y-86368513D01*
X110091838Y-86391794D01*
X110068557Y-86412894D01*
X110043319Y-86431612D01*
X110016369Y-86447765D01*
X109987965Y-86461199D01*
X109958381Y-86471784D01*
X109927902Y-86479419D01*
X109896822Y-86484029D01*
X109865439Y-86485571D01*
X108355791Y-86485571D01*
X108324408Y-86484029D01*
X108293328Y-86479419D01*
X108262849Y-86471784D01*
X108233265Y-86461199D01*
X108204861Y-86447765D01*
X108177911Y-86431612D01*
X108152673Y-86412894D01*
X108129392Y-86391794D01*
X108108292Y-86368513D01*
X108089574Y-86343275D01*
X108073421Y-86316325D01*
X108059987Y-86287921D01*
X108049402Y-86258337D01*
X108041767Y-86227858D01*
X108037157Y-86196778D01*
X108035615Y-86165395D01*
X108035615Y-84980747D01*
X108037157Y-84949364D01*
X108041767Y-84918284D01*
X108049402Y-84887805D01*
X108059987Y-84858221D01*
X108073421Y-84829817D01*
X108089574Y-84802867D01*
X108108292Y-84777629D01*
X108129392Y-84754348D01*
X108152673Y-84733248D01*
X108177911Y-84714530D01*
X108204861Y-84698377D01*
X108233265Y-84684943D01*
X108262849Y-84674358D01*
X108293328Y-84666723D01*
X108324408Y-84662113D01*
X108355791Y-84660571D01*
X109865439Y-84660571D01*
X109896822Y-84662113D01*
X109896822Y-84662113D01*
G37*
D13*
X109110615Y-85573071D03*
G04 #@! TD*
D12*
G04 #@! TO.C,C10*
G36*
X95877563Y-72324479D02*
X95908643Y-72329089D01*
X95939122Y-72336724D01*
X95968706Y-72347309D01*
X95997110Y-72360743D01*
X96024060Y-72376896D01*
X96049298Y-72395614D01*
X96072579Y-72416714D01*
X96093679Y-72439995D01*
X96112397Y-72465233D01*
X96128550Y-72492183D01*
X96141984Y-72520587D01*
X96152569Y-72550171D01*
X96160204Y-72580650D01*
X96164814Y-72611730D01*
X96166356Y-72643113D01*
X96166356Y-73827761D01*
X96164814Y-73859144D01*
X96160204Y-73890224D01*
X96152569Y-73920703D01*
X96141984Y-73950287D01*
X96128550Y-73978691D01*
X96112397Y-74005641D01*
X96093679Y-74030879D01*
X96072579Y-74054160D01*
X96049298Y-74075260D01*
X96024060Y-74093978D01*
X95997110Y-74110131D01*
X95968706Y-74123565D01*
X95939122Y-74134150D01*
X95908643Y-74141785D01*
X95877563Y-74146395D01*
X95846180Y-74147937D01*
X94336532Y-74147937D01*
X94305149Y-74146395D01*
X94274069Y-74141785D01*
X94243590Y-74134150D01*
X94214006Y-74123565D01*
X94185602Y-74110131D01*
X94158652Y-74093978D01*
X94133414Y-74075260D01*
X94110133Y-74054160D01*
X94089033Y-74030879D01*
X94070315Y-74005641D01*
X94054162Y-73978691D01*
X94040728Y-73950287D01*
X94030143Y-73920703D01*
X94022508Y-73890224D01*
X94017898Y-73859144D01*
X94016356Y-73827761D01*
X94016356Y-72643113D01*
X94017898Y-72611730D01*
X94022508Y-72580650D01*
X94030143Y-72550171D01*
X94040728Y-72520587D01*
X94054162Y-72492183D01*
X94070315Y-72465233D01*
X94089033Y-72439995D01*
X94110133Y-72416714D01*
X94133414Y-72395614D01*
X94158652Y-72376896D01*
X94185602Y-72360743D01*
X94214006Y-72347309D01*
X94243590Y-72336724D01*
X94274069Y-72329089D01*
X94305149Y-72324479D01*
X94336532Y-72322937D01*
X95846180Y-72322937D01*
X95877563Y-72324479D01*
X95877563Y-72324479D01*
G37*
D13*
X95091356Y-73235437D03*
D12*
G36*
X95877563Y-69349479D02*
X95908643Y-69354089D01*
X95939122Y-69361724D01*
X95968706Y-69372309D01*
X95997110Y-69385743D01*
X96024060Y-69401896D01*
X96049298Y-69420614D01*
X96072579Y-69441714D01*
X96093679Y-69464995D01*
X96112397Y-69490233D01*
X96128550Y-69517183D01*
X96141984Y-69545587D01*
X96152569Y-69575171D01*
X96160204Y-69605650D01*
X96164814Y-69636730D01*
X96166356Y-69668113D01*
X96166356Y-70852761D01*
X96164814Y-70884144D01*
X96160204Y-70915224D01*
X96152569Y-70945703D01*
X96141984Y-70975287D01*
X96128550Y-71003691D01*
X96112397Y-71030641D01*
X96093679Y-71055879D01*
X96072579Y-71079160D01*
X96049298Y-71100260D01*
X96024060Y-71118978D01*
X95997110Y-71135131D01*
X95968706Y-71148565D01*
X95939122Y-71159150D01*
X95908643Y-71166785D01*
X95877563Y-71171395D01*
X95846180Y-71172937D01*
X94336532Y-71172937D01*
X94305149Y-71171395D01*
X94274069Y-71166785D01*
X94243590Y-71159150D01*
X94214006Y-71148565D01*
X94185602Y-71135131D01*
X94158652Y-71118978D01*
X94133414Y-71100260D01*
X94110133Y-71079160D01*
X94089033Y-71055879D01*
X94070315Y-71030641D01*
X94054162Y-71003691D01*
X94040728Y-70975287D01*
X94030143Y-70945703D01*
X94022508Y-70915224D01*
X94017898Y-70884144D01*
X94016356Y-70852761D01*
X94016356Y-69668113D01*
X94017898Y-69636730D01*
X94022508Y-69605650D01*
X94030143Y-69575171D01*
X94040728Y-69545587D01*
X94054162Y-69517183D01*
X94070315Y-69490233D01*
X94089033Y-69464995D01*
X94110133Y-69441714D01*
X94133414Y-69420614D01*
X94158652Y-69401896D01*
X94185602Y-69385743D01*
X94214006Y-69372309D01*
X94243590Y-69361724D01*
X94274069Y-69354089D01*
X94305149Y-69349479D01*
X94336532Y-69347937D01*
X95846180Y-69347937D01*
X95877563Y-69349479D01*
X95877563Y-69349479D01*
G37*
D13*
X95091356Y-70260437D03*
G04 #@! TD*
D12*
G04 #@! TO.C,L1*
G36*
X109847563Y-69312979D02*
X109878643Y-69317589D01*
X109909122Y-69325224D01*
X109938706Y-69335809D01*
X109967110Y-69349243D01*
X109994060Y-69365396D01*
X110019298Y-69384114D01*
X110042579Y-69405214D01*
X110063679Y-69428495D01*
X110082397Y-69453733D01*
X110098550Y-69480683D01*
X110111984Y-69509087D01*
X110122569Y-69538671D01*
X110130204Y-69569150D01*
X110134814Y-69600230D01*
X110136356Y-69631613D01*
X110136356Y-70816261D01*
X110134814Y-70847644D01*
X110130204Y-70878724D01*
X110122569Y-70909203D01*
X110111984Y-70938787D01*
X110098550Y-70967191D01*
X110082397Y-70994141D01*
X110063679Y-71019379D01*
X110042579Y-71042660D01*
X110019298Y-71063760D01*
X109994060Y-71082478D01*
X109967110Y-71098631D01*
X109938706Y-71112065D01*
X109909122Y-71122650D01*
X109878643Y-71130285D01*
X109847563Y-71134895D01*
X109816180Y-71136437D01*
X108306532Y-71136437D01*
X108275149Y-71134895D01*
X108244069Y-71130285D01*
X108213590Y-71122650D01*
X108184006Y-71112065D01*
X108155602Y-71098631D01*
X108128652Y-71082478D01*
X108103414Y-71063760D01*
X108080133Y-71042660D01*
X108059033Y-71019379D01*
X108040315Y-70994141D01*
X108024162Y-70967191D01*
X108010728Y-70938787D01*
X108000143Y-70909203D01*
X107992508Y-70878724D01*
X107987898Y-70847644D01*
X107986356Y-70816261D01*
X107986356Y-69631613D01*
X107987898Y-69600230D01*
X107992508Y-69569150D01*
X108000143Y-69538671D01*
X108010728Y-69509087D01*
X108024162Y-69480683D01*
X108040315Y-69453733D01*
X108059033Y-69428495D01*
X108080133Y-69405214D01*
X108103414Y-69384114D01*
X108128652Y-69365396D01*
X108155602Y-69349243D01*
X108184006Y-69335809D01*
X108213590Y-69325224D01*
X108244069Y-69317589D01*
X108275149Y-69312979D01*
X108306532Y-69311437D01*
X109816180Y-69311437D01*
X109847563Y-69312979D01*
X109847563Y-69312979D01*
G37*
D13*
X109061356Y-70223937D03*
D12*
G36*
X109847563Y-72287979D02*
X109878643Y-72292589D01*
X109909122Y-72300224D01*
X109938706Y-72310809D01*
X109967110Y-72324243D01*
X109994060Y-72340396D01*
X110019298Y-72359114D01*
X110042579Y-72380214D01*
X110063679Y-72403495D01*
X110082397Y-72428733D01*
X110098550Y-72455683D01*
X110111984Y-72484087D01*
X110122569Y-72513671D01*
X110130204Y-72544150D01*
X110134814Y-72575230D01*
X110136356Y-72606613D01*
X110136356Y-73791261D01*
X110134814Y-73822644D01*
X110130204Y-73853724D01*
X110122569Y-73884203D01*
X110111984Y-73913787D01*
X110098550Y-73942191D01*
X110082397Y-73969141D01*
X110063679Y-73994379D01*
X110042579Y-74017660D01*
X110019298Y-74038760D01*
X109994060Y-74057478D01*
X109967110Y-74073631D01*
X109938706Y-74087065D01*
X109909122Y-74097650D01*
X109878643Y-74105285D01*
X109847563Y-74109895D01*
X109816180Y-74111437D01*
X108306532Y-74111437D01*
X108275149Y-74109895D01*
X108244069Y-74105285D01*
X108213590Y-74097650D01*
X108184006Y-74087065D01*
X108155602Y-74073631D01*
X108128652Y-74057478D01*
X108103414Y-74038760D01*
X108080133Y-74017660D01*
X108059033Y-73994379D01*
X108040315Y-73969141D01*
X108024162Y-73942191D01*
X108010728Y-73913787D01*
X108000143Y-73884203D01*
X107992508Y-73853724D01*
X107987898Y-73822644D01*
X107986356Y-73791261D01*
X107986356Y-72606613D01*
X107987898Y-72575230D01*
X107992508Y-72544150D01*
X108000143Y-72513671D01*
X108010728Y-72484087D01*
X108024162Y-72455683D01*
X108040315Y-72428733D01*
X108059033Y-72403495D01*
X108080133Y-72380214D01*
X108103414Y-72359114D01*
X108128652Y-72340396D01*
X108155602Y-72324243D01*
X108184006Y-72310809D01*
X108213590Y-72300224D01*
X108244069Y-72292589D01*
X108275149Y-72287979D01*
X108306532Y-72286437D01*
X109816180Y-72286437D01*
X109847563Y-72287979D01*
X109847563Y-72287979D01*
G37*
D13*
X109061356Y-73198937D03*
G04 #@! TD*
D19*
G04 #@! TO.C,Q5*
X156652000Y-53996300D03*
X154752000Y-53996300D03*
X155702000Y-51896300D03*
G04 #@! TD*
D20*
G04 #@! TO.C,Q6*
X166844000Y-76134000D03*
X166844000Y-74234000D03*
X168944000Y-75184000D03*
G04 #@! TD*
D19*
G04 #@! TO.C,Q7*
X150048000Y-53996300D03*
X148148000Y-53996300D03*
X149098000Y-51896300D03*
G04 #@! TD*
D20*
G04 #@! TO.C,Q8*
X166844000Y-69530000D03*
X166844000Y-67630000D03*
X168944000Y-68580000D03*
G04 #@! TD*
D19*
G04 #@! TO.C,Q9*
X148021000Y-100931000D03*
X149921000Y-100931000D03*
X148971000Y-103031000D03*
G04 #@! TD*
G04 #@! TO.C,Q10*
X154752000Y-100931000D03*
X156652000Y-100931000D03*
X155702000Y-103031000D03*
G04 #@! TD*
G04 #@! TO.C,Q11*
X161356000Y-100931000D03*
X163256000Y-100931000D03*
X162306000Y-103031000D03*
G04 #@! TD*
G04 #@! TO.C,Q12*
X168214000Y-100931000D03*
X170114000Y-100931000D03*
X169164000Y-103031000D03*
G04 #@! TD*
D12*
G04 #@! TO.C,R18*
G36*
X165124207Y-73257042D02*
X165155287Y-73261652D01*
X165185766Y-73269287D01*
X165215350Y-73279872D01*
X165243754Y-73293306D01*
X165270704Y-73309459D01*
X165295942Y-73328177D01*
X165319223Y-73349277D01*
X165340323Y-73372558D01*
X165359041Y-73397796D01*
X165375194Y-73424746D01*
X165388628Y-73453150D01*
X165399213Y-73482734D01*
X165406848Y-73513213D01*
X165411458Y-73544293D01*
X165413000Y-73575676D01*
X165413000Y-74760324D01*
X165411458Y-74791707D01*
X165406848Y-74822787D01*
X165399213Y-74853266D01*
X165388628Y-74882850D01*
X165375194Y-74911254D01*
X165359041Y-74938204D01*
X165340323Y-74963442D01*
X165319223Y-74986723D01*
X165295942Y-75007823D01*
X165270704Y-75026541D01*
X165243754Y-75042694D01*
X165215350Y-75056128D01*
X165185766Y-75066713D01*
X165155287Y-75074348D01*
X165124207Y-75078958D01*
X165092824Y-75080500D01*
X163583176Y-75080500D01*
X163551793Y-75078958D01*
X163520713Y-75074348D01*
X163490234Y-75066713D01*
X163460650Y-75056128D01*
X163432246Y-75042694D01*
X163405296Y-75026541D01*
X163380058Y-75007823D01*
X163356777Y-74986723D01*
X163335677Y-74963442D01*
X163316959Y-74938204D01*
X163300806Y-74911254D01*
X163287372Y-74882850D01*
X163276787Y-74853266D01*
X163269152Y-74822787D01*
X163264542Y-74791707D01*
X163263000Y-74760324D01*
X163263000Y-73575676D01*
X163264542Y-73544293D01*
X163269152Y-73513213D01*
X163276787Y-73482734D01*
X163287372Y-73453150D01*
X163300806Y-73424746D01*
X163316959Y-73397796D01*
X163335677Y-73372558D01*
X163356777Y-73349277D01*
X163380058Y-73328177D01*
X163405296Y-73309459D01*
X163432246Y-73293306D01*
X163460650Y-73279872D01*
X163490234Y-73269287D01*
X163520713Y-73261652D01*
X163551793Y-73257042D01*
X163583176Y-73255500D01*
X165092824Y-73255500D01*
X165124207Y-73257042D01*
X165124207Y-73257042D01*
G37*
D13*
X164338000Y-74168000D03*
D12*
G36*
X165124207Y-76232042D02*
X165155287Y-76236652D01*
X165185766Y-76244287D01*
X165215350Y-76254872D01*
X165243754Y-76268306D01*
X165270704Y-76284459D01*
X165295942Y-76303177D01*
X165319223Y-76324277D01*
X165340323Y-76347558D01*
X165359041Y-76372796D01*
X165375194Y-76399746D01*
X165388628Y-76428150D01*
X165399213Y-76457734D01*
X165406848Y-76488213D01*
X165411458Y-76519293D01*
X165413000Y-76550676D01*
X165413000Y-77735324D01*
X165411458Y-77766707D01*
X165406848Y-77797787D01*
X165399213Y-77828266D01*
X165388628Y-77857850D01*
X165375194Y-77886254D01*
X165359041Y-77913204D01*
X165340323Y-77938442D01*
X165319223Y-77961723D01*
X165295942Y-77982823D01*
X165270704Y-78001541D01*
X165243754Y-78017694D01*
X165215350Y-78031128D01*
X165185766Y-78041713D01*
X165155287Y-78049348D01*
X165124207Y-78053958D01*
X165092824Y-78055500D01*
X163583176Y-78055500D01*
X163551793Y-78053958D01*
X163520713Y-78049348D01*
X163490234Y-78041713D01*
X163460650Y-78031128D01*
X163432246Y-78017694D01*
X163405296Y-78001541D01*
X163380058Y-77982823D01*
X163356777Y-77961723D01*
X163335677Y-77938442D01*
X163316959Y-77913204D01*
X163300806Y-77886254D01*
X163287372Y-77857850D01*
X163276787Y-77828266D01*
X163269152Y-77797787D01*
X163264542Y-77766707D01*
X163263000Y-77735324D01*
X163263000Y-76550676D01*
X163264542Y-76519293D01*
X163269152Y-76488213D01*
X163276787Y-76457734D01*
X163287372Y-76428150D01*
X163300806Y-76399746D01*
X163316959Y-76372796D01*
X163335677Y-76347558D01*
X163356777Y-76324277D01*
X163380058Y-76303177D01*
X163405296Y-76284459D01*
X163432246Y-76268306D01*
X163460650Y-76254872D01*
X163490234Y-76244287D01*
X163520713Y-76236652D01*
X163551793Y-76232042D01*
X163583176Y-76230500D01*
X165092824Y-76230500D01*
X165124207Y-76232042D01*
X165124207Y-76232042D01*
G37*
D13*
X164338000Y-77143000D03*
G04 #@! TD*
D12*
G04 #@! TO.C,R19*
G36*
X168046207Y-77412542D02*
X168077287Y-77417152D01*
X168107766Y-77424787D01*
X168137350Y-77435372D01*
X168165754Y-77448806D01*
X168192704Y-77464959D01*
X168217942Y-77483677D01*
X168241223Y-77504777D01*
X168262323Y-77528058D01*
X168281041Y-77553296D01*
X168297194Y-77580246D01*
X168310628Y-77608650D01*
X168321213Y-77638234D01*
X168328848Y-77668713D01*
X168333458Y-77699793D01*
X168335000Y-77731176D01*
X168335000Y-79240824D01*
X168333458Y-79272207D01*
X168328848Y-79303287D01*
X168321213Y-79333766D01*
X168310628Y-79363350D01*
X168297194Y-79391754D01*
X168281041Y-79418704D01*
X168262323Y-79443942D01*
X168241223Y-79467223D01*
X168217942Y-79488323D01*
X168192704Y-79507041D01*
X168165754Y-79523194D01*
X168137350Y-79536628D01*
X168107766Y-79547213D01*
X168077287Y-79554848D01*
X168046207Y-79559458D01*
X168014824Y-79561000D01*
X166830176Y-79561000D01*
X166798793Y-79559458D01*
X166767713Y-79554848D01*
X166737234Y-79547213D01*
X166707650Y-79536628D01*
X166679246Y-79523194D01*
X166652296Y-79507041D01*
X166627058Y-79488323D01*
X166603777Y-79467223D01*
X166582677Y-79443942D01*
X166563959Y-79418704D01*
X166547806Y-79391754D01*
X166534372Y-79363350D01*
X166523787Y-79333766D01*
X166516152Y-79303287D01*
X166511542Y-79272207D01*
X166510000Y-79240824D01*
X166510000Y-77731176D01*
X166511542Y-77699793D01*
X166516152Y-77668713D01*
X166523787Y-77638234D01*
X166534372Y-77608650D01*
X166547806Y-77580246D01*
X166563959Y-77553296D01*
X166582677Y-77528058D01*
X166603777Y-77504777D01*
X166627058Y-77483677D01*
X166652296Y-77464959D01*
X166679246Y-77448806D01*
X166707650Y-77435372D01*
X166737234Y-77424787D01*
X166767713Y-77417152D01*
X166798793Y-77412542D01*
X166830176Y-77411000D01*
X168014824Y-77411000D01*
X168046207Y-77412542D01*
X168046207Y-77412542D01*
G37*
D13*
X167422500Y-78486000D03*
D12*
G36*
X171021207Y-77412542D02*
X171052287Y-77417152D01*
X171082766Y-77424787D01*
X171112350Y-77435372D01*
X171140754Y-77448806D01*
X171167704Y-77464959D01*
X171192942Y-77483677D01*
X171216223Y-77504777D01*
X171237323Y-77528058D01*
X171256041Y-77553296D01*
X171272194Y-77580246D01*
X171285628Y-77608650D01*
X171296213Y-77638234D01*
X171303848Y-77668713D01*
X171308458Y-77699793D01*
X171310000Y-77731176D01*
X171310000Y-79240824D01*
X171308458Y-79272207D01*
X171303848Y-79303287D01*
X171296213Y-79333766D01*
X171285628Y-79363350D01*
X171272194Y-79391754D01*
X171256041Y-79418704D01*
X171237323Y-79443942D01*
X171216223Y-79467223D01*
X171192942Y-79488323D01*
X171167704Y-79507041D01*
X171140754Y-79523194D01*
X171112350Y-79536628D01*
X171082766Y-79547213D01*
X171052287Y-79554848D01*
X171021207Y-79559458D01*
X170989824Y-79561000D01*
X169805176Y-79561000D01*
X169773793Y-79559458D01*
X169742713Y-79554848D01*
X169712234Y-79547213D01*
X169682650Y-79536628D01*
X169654246Y-79523194D01*
X169627296Y-79507041D01*
X169602058Y-79488323D01*
X169578777Y-79467223D01*
X169557677Y-79443942D01*
X169538959Y-79418704D01*
X169522806Y-79391754D01*
X169509372Y-79363350D01*
X169498787Y-79333766D01*
X169491152Y-79303287D01*
X169486542Y-79272207D01*
X169485000Y-79240824D01*
X169485000Y-77731176D01*
X169486542Y-77699793D01*
X169491152Y-77668713D01*
X169498787Y-77638234D01*
X169509372Y-77608650D01*
X169522806Y-77580246D01*
X169538959Y-77553296D01*
X169557677Y-77528058D01*
X169578777Y-77504777D01*
X169602058Y-77483677D01*
X169627296Y-77464959D01*
X169654246Y-77448806D01*
X169682650Y-77435372D01*
X169712234Y-77424787D01*
X169742713Y-77417152D01*
X169773793Y-77412542D01*
X169805176Y-77411000D01*
X170989824Y-77411000D01*
X171021207Y-77412542D01*
X171021207Y-77412542D01*
G37*
D13*
X170397500Y-78486000D03*
G04 #@! TD*
D12*
G04 #@! TO.C,R20*
G36*
X148742207Y-55314542D02*
X148773287Y-55319152D01*
X148803766Y-55326787D01*
X148833350Y-55337372D01*
X148861754Y-55350806D01*
X148888704Y-55366959D01*
X148913942Y-55385677D01*
X148937223Y-55406777D01*
X148958323Y-55430058D01*
X148977041Y-55455296D01*
X148993194Y-55482246D01*
X149006628Y-55510650D01*
X149017213Y-55540234D01*
X149024848Y-55570713D01*
X149029458Y-55601793D01*
X149031000Y-55633176D01*
X149031000Y-57142824D01*
X149029458Y-57174207D01*
X149024848Y-57205287D01*
X149017213Y-57235766D01*
X149006628Y-57265350D01*
X148993194Y-57293754D01*
X148977041Y-57320704D01*
X148958323Y-57345942D01*
X148937223Y-57369223D01*
X148913942Y-57390323D01*
X148888704Y-57409041D01*
X148861754Y-57425194D01*
X148833350Y-57438628D01*
X148803766Y-57449213D01*
X148773287Y-57456848D01*
X148742207Y-57461458D01*
X148710824Y-57463000D01*
X147526176Y-57463000D01*
X147494793Y-57461458D01*
X147463713Y-57456848D01*
X147433234Y-57449213D01*
X147403650Y-57438628D01*
X147375246Y-57425194D01*
X147348296Y-57409041D01*
X147323058Y-57390323D01*
X147299777Y-57369223D01*
X147278677Y-57345942D01*
X147259959Y-57320704D01*
X147243806Y-57293754D01*
X147230372Y-57265350D01*
X147219787Y-57235766D01*
X147212152Y-57205287D01*
X147207542Y-57174207D01*
X147206000Y-57142824D01*
X147206000Y-55633176D01*
X147207542Y-55601793D01*
X147212152Y-55570713D01*
X147219787Y-55540234D01*
X147230372Y-55510650D01*
X147243806Y-55482246D01*
X147259959Y-55455296D01*
X147278677Y-55430058D01*
X147299777Y-55406777D01*
X147323058Y-55385677D01*
X147348296Y-55366959D01*
X147375246Y-55350806D01*
X147403650Y-55337372D01*
X147433234Y-55326787D01*
X147463713Y-55319152D01*
X147494793Y-55314542D01*
X147526176Y-55313000D01*
X148710824Y-55313000D01*
X148742207Y-55314542D01*
X148742207Y-55314542D01*
G37*
D13*
X148118500Y-56388000D03*
D12*
G36*
X151717207Y-55314542D02*
X151748287Y-55319152D01*
X151778766Y-55326787D01*
X151808350Y-55337372D01*
X151836754Y-55350806D01*
X151863704Y-55366959D01*
X151888942Y-55385677D01*
X151912223Y-55406777D01*
X151933323Y-55430058D01*
X151952041Y-55455296D01*
X151968194Y-55482246D01*
X151981628Y-55510650D01*
X151992213Y-55540234D01*
X151999848Y-55570713D01*
X152004458Y-55601793D01*
X152006000Y-55633176D01*
X152006000Y-57142824D01*
X152004458Y-57174207D01*
X151999848Y-57205287D01*
X151992213Y-57235766D01*
X151981628Y-57265350D01*
X151968194Y-57293754D01*
X151952041Y-57320704D01*
X151933323Y-57345942D01*
X151912223Y-57369223D01*
X151888942Y-57390323D01*
X151863704Y-57409041D01*
X151836754Y-57425194D01*
X151808350Y-57438628D01*
X151778766Y-57449213D01*
X151748287Y-57456848D01*
X151717207Y-57461458D01*
X151685824Y-57463000D01*
X150501176Y-57463000D01*
X150469793Y-57461458D01*
X150438713Y-57456848D01*
X150408234Y-57449213D01*
X150378650Y-57438628D01*
X150350246Y-57425194D01*
X150323296Y-57409041D01*
X150298058Y-57390323D01*
X150274777Y-57369223D01*
X150253677Y-57345942D01*
X150234959Y-57320704D01*
X150218806Y-57293754D01*
X150205372Y-57265350D01*
X150194787Y-57235766D01*
X150187152Y-57205287D01*
X150182542Y-57174207D01*
X150181000Y-57142824D01*
X150181000Y-55633176D01*
X150182542Y-55601793D01*
X150187152Y-55570713D01*
X150194787Y-55540234D01*
X150205372Y-55510650D01*
X150218806Y-55482246D01*
X150234959Y-55455296D01*
X150253677Y-55430058D01*
X150274777Y-55406777D01*
X150298058Y-55385677D01*
X150323296Y-55366959D01*
X150350246Y-55350806D01*
X150378650Y-55337372D01*
X150408234Y-55326787D01*
X150438713Y-55319152D01*
X150469793Y-55314542D01*
X150501176Y-55313000D01*
X151685824Y-55313000D01*
X151717207Y-55314542D01*
X151717207Y-55314542D01*
G37*
D13*
X151093500Y-56388000D03*
G04 #@! TD*
D12*
G04 #@! TO.C,R21*
G36*
X153186207Y-52392542D02*
X153217287Y-52397152D01*
X153247766Y-52404787D01*
X153277350Y-52415372D01*
X153305754Y-52428806D01*
X153332704Y-52444959D01*
X153357942Y-52463677D01*
X153381223Y-52484777D01*
X153402323Y-52508058D01*
X153421041Y-52533296D01*
X153437194Y-52560246D01*
X153450628Y-52588650D01*
X153461213Y-52618234D01*
X153468848Y-52648713D01*
X153473458Y-52679793D01*
X153475000Y-52711176D01*
X153475000Y-53895824D01*
X153473458Y-53927207D01*
X153468848Y-53958287D01*
X153461213Y-53988766D01*
X153450628Y-54018350D01*
X153437194Y-54046754D01*
X153421041Y-54073704D01*
X153402323Y-54098942D01*
X153381223Y-54122223D01*
X153357942Y-54143323D01*
X153332704Y-54162041D01*
X153305754Y-54178194D01*
X153277350Y-54191628D01*
X153247766Y-54202213D01*
X153217287Y-54209848D01*
X153186207Y-54214458D01*
X153154824Y-54216000D01*
X151645176Y-54216000D01*
X151613793Y-54214458D01*
X151582713Y-54209848D01*
X151552234Y-54202213D01*
X151522650Y-54191628D01*
X151494246Y-54178194D01*
X151467296Y-54162041D01*
X151442058Y-54143323D01*
X151418777Y-54122223D01*
X151397677Y-54098942D01*
X151378959Y-54073704D01*
X151362806Y-54046754D01*
X151349372Y-54018350D01*
X151338787Y-53988766D01*
X151331152Y-53958287D01*
X151326542Y-53927207D01*
X151325000Y-53895824D01*
X151325000Y-52711176D01*
X151326542Y-52679793D01*
X151331152Y-52648713D01*
X151338787Y-52618234D01*
X151349372Y-52588650D01*
X151362806Y-52560246D01*
X151378959Y-52533296D01*
X151397677Y-52508058D01*
X151418777Y-52484777D01*
X151442058Y-52463677D01*
X151467296Y-52444959D01*
X151494246Y-52428806D01*
X151522650Y-52415372D01*
X151552234Y-52404787D01*
X151582713Y-52397152D01*
X151613793Y-52392542D01*
X151645176Y-52391000D01*
X153154824Y-52391000D01*
X153186207Y-52392542D01*
X153186207Y-52392542D01*
G37*
D13*
X152400000Y-53303500D03*
D12*
G36*
X153186207Y-49417542D02*
X153217287Y-49422152D01*
X153247766Y-49429787D01*
X153277350Y-49440372D01*
X153305754Y-49453806D01*
X153332704Y-49469959D01*
X153357942Y-49488677D01*
X153381223Y-49509777D01*
X153402323Y-49533058D01*
X153421041Y-49558296D01*
X153437194Y-49585246D01*
X153450628Y-49613650D01*
X153461213Y-49643234D01*
X153468848Y-49673713D01*
X153473458Y-49704793D01*
X153475000Y-49736176D01*
X153475000Y-50920824D01*
X153473458Y-50952207D01*
X153468848Y-50983287D01*
X153461213Y-51013766D01*
X153450628Y-51043350D01*
X153437194Y-51071754D01*
X153421041Y-51098704D01*
X153402323Y-51123942D01*
X153381223Y-51147223D01*
X153357942Y-51168323D01*
X153332704Y-51187041D01*
X153305754Y-51203194D01*
X153277350Y-51216628D01*
X153247766Y-51227213D01*
X153217287Y-51234848D01*
X153186207Y-51239458D01*
X153154824Y-51241000D01*
X151645176Y-51241000D01*
X151613793Y-51239458D01*
X151582713Y-51234848D01*
X151552234Y-51227213D01*
X151522650Y-51216628D01*
X151494246Y-51203194D01*
X151467296Y-51187041D01*
X151442058Y-51168323D01*
X151418777Y-51147223D01*
X151397677Y-51123942D01*
X151378959Y-51098704D01*
X151362806Y-51071754D01*
X151349372Y-51043350D01*
X151338787Y-51013766D01*
X151331152Y-50983287D01*
X151326542Y-50952207D01*
X151325000Y-50920824D01*
X151325000Y-49736176D01*
X151326542Y-49704793D01*
X151331152Y-49673713D01*
X151338787Y-49643234D01*
X151349372Y-49613650D01*
X151362806Y-49585246D01*
X151378959Y-49558296D01*
X151397677Y-49533058D01*
X151418777Y-49509777D01*
X151442058Y-49488677D01*
X151467296Y-49469959D01*
X151494246Y-49453806D01*
X151522650Y-49440372D01*
X151552234Y-49429787D01*
X151582713Y-49422152D01*
X151613793Y-49417542D01*
X151645176Y-49416000D01*
X153154824Y-49416000D01*
X153186207Y-49417542D01*
X153186207Y-49417542D01*
G37*
D13*
X152400000Y-50328500D03*
G04 #@! TD*
D12*
G04 #@! TO.C,R22*
G36*
X165124207Y-66653042D02*
X165155287Y-66657652D01*
X165185766Y-66665287D01*
X165215350Y-66675872D01*
X165243754Y-66689306D01*
X165270704Y-66705459D01*
X165295942Y-66724177D01*
X165319223Y-66745277D01*
X165340323Y-66768558D01*
X165359041Y-66793796D01*
X165375194Y-66820746D01*
X165388628Y-66849150D01*
X165399213Y-66878734D01*
X165406848Y-66909213D01*
X165411458Y-66940293D01*
X165413000Y-66971676D01*
X165413000Y-68156324D01*
X165411458Y-68187707D01*
X165406848Y-68218787D01*
X165399213Y-68249266D01*
X165388628Y-68278850D01*
X165375194Y-68307254D01*
X165359041Y-68334204D01*
X165340323Y-68359442D01*
X165319223Y-68382723D01*
X165295942Y-68403823D01*
X165270704Y-68422541D01*
X165243754Y-68438694D01*
X165215350Y-68452128D01*
X165185766Y-68462713D01*
X165155287Y-68470348D01*
X165124207Y-68474958D01*
X165092824Y-68476500D01*
X163583176Y-68476500D01*
X163551793Y-68474958D01*
X163520713Y-68470348D01*
X163490234Y-68462713D01*
X163460650Y-68452128D01*
X163432246Y-68438694D01*
X163405296Y-68422541D01*
X163380058Y-68403823D01*
X163356777Y-68382723D01*
X163335677Y-68359442D01*
X163316959Y-68334204D01*
X163300806Y-68307254D01*
X163287372Y-68278850D01*
X163276787Y-68249266D01*
X163269152Y-68218787D01*
X163264542Y-68187707D01*
X163263000Y-68156324D01*
X163263000Y-66971676D01*
X163264542Y-66940293D01*
X163269152Y-66909213D01*
X163276787Y-66878734D01*
X163287372Y-66849150D01*
X163300806Y-66820746D01*
X163316959Y-66793796D01*
X163335677Y-66768558D01*
X163356777Y-66745277D01*
X163380058Y-66724177D01*
X163405296Y-66705459D01*
X163432246Y-66689306D01*
X163460650Y-66675872D01*
X163490234Y-66665287D01*
X163520713Y-66657652D01*
X163551793Y-66653042D01*
X163583176Y-66651500D01*
X165092824Y-66651500D01*
X165124207Y-66653042D01*
X165124207Y-66653042D01*
G37*
D13*
X164338000Y-67564000D03*
D12*
G36*
X165124207Y-69628042D02*
X165155287Y-69632652D01*
X165185766Y-69640287D01*
X165215350Y-69650872D01*
X165243754Y-69664306D01*
X165270704Y-69680459D01*
X165295942Y-69699177D01*
X165319223Y-69720277D01*
X165340323Y-69743558D01*
X165359041Y-69768796D01*
X165375194Y-69795746D01*
X165388628Y-69824150D01*
X165399213Y-69853734D01*
X165406848Y-69884213D01*
X165411458Y-69915293D01*
X165413000Y-69946676D01*
X165413000Y-71131324D01*
X165411458Y-71162707D01*
X165406848Y-71193787D01*
X165399213Y-71224266D01*
X165388628Y-71253850D01*
X165375194Y-71282254D01*
X165359041Y-71309204D01*
X165340323Y-71334442D01*
X165319223Y-71357723D01*
X165295942Y-71378823D01*
X165270704Y-71397541D01*
X165243754Y-71413694D01*
X165215350Y-71427128D01*
X165185766Y-71437713D01*
X165155287Y-71445348D01*
X165124207Y-71449958D01*
X165092824Y-71451500D01*
X163583176Y-71451500D01*
X163551793Y-71449958D01*
X163520713Y-71445348D01*
X163490234Y-71437713D01*
X163460650Y-71427128D01*
X163432246Y-71413694D01*
X163405296Y-71397541D01*
X163380058Y-71378823D01*
X163356777Y-71357723D01*
X163335677Y-71334442D01*
X163316959Y-71309204D01*
X163300806Y-71282254D01*
X163287372Y-71253850D01*
X163276787Y-71224266D01*
X163269152Y-71193787D01*
X163264542Y-71162707D01*
X163263000Y-71131324D01*
X163263000Y-69946676D01*
X163264542Y-69915293D01*
X163269152Y-69884213D01*
X163276787Y-69853734D01*
X163287372Y-69824150D01*
X163300806Y-69795746D01*
X163316959Y-69768796D01*
X163335677Y-69743558D01*
X163356777Y-69720277D01*
X163380058Y-69699177D01*
X163405296Y-69680459D01*
X163432246Y-69664306D01*
X163460650Y-69650872D01*
X163490234Y-69640287D01*
X163520713Y-69632652D01*
X163551793Y-69628042D01*
X163583176Y-69626500D01*
X165092824Y-69626500D01*
X165124207Y-69628042D01*
X165124207Y-69628042D01*
G37*
D13*
X164338000Y-70539000D03*
G04 #@! TD*
D12*
G04 #@! TO.C,R23*
G36*
X168046207Y-70808542D02*
X168077287Y-70813152D01*
X168107766Y-70820787D01*
X168137350Y-70831372D01*
X168165754Y-70844806D01*
X168192704Y-70860959D01*
X168217942Y-70879677D01*
X168241223Y-70900777D01*
X168262323Y-70924058D01*
X168281041Y-70949296D01*
X168297194Y-70976246D01*
X168310628Y-71004650D01*
X168321213Y-71034234D01*
X168328848Y-71064713D01*
X168333458Y-71095793D01*
X168335000Y-71127176D01*
X168335000Y-72636824D01*
X168333458Y-72668207D01*
X168328848Y-72699287D01*
X168321213Y-72729766D01*
X168310628Y-72759350D01*
X168297194Y-72787754D01*
X168281041Y-72814704D01*
X168262323Y-72839942D01*
X168241223Y-72863223D01*
X168217942Y-72884323D01*
X168192704Y-72903041D01*
X168165754Y-72919194D01*
X168137350Y-72932628D01*
X168107766Y-72943213D01*
X168077287Y-72950848D01*
X168046207Y-72955458D01*
X168014824Y-72957000D01*
X166830176Y-72957000D01*
X166798793Y-72955458D01*
X166767713Y-72950848D01*
X166737234Y-72943213D01*
X166707650Y-72932628D01*
X166679246Y-72919194D01*
X166652296Y-72903041D01*
X166627058Y-72884323D01*
X166603777Y-72863223D01*
X166582677Y-72839942D01*
X166563959Y-72814704D01*
X166547806Y-72787754D01*
X166534372Y-72759350D01*
X166523787Y-72729766D01*
X166516152Y-72699287D01*
X166511542Y-72668207D01*
X166510000Y-72636824D01*
X166510000Y-71127176D01*
X166511542Y-71095793D01*
X166516152Y-71064713D01*
X166523787Y-71034234D01*
X166534372Y-71004650D01*
X166547806Y-70976246D01*
X166563959Y-70949296D01*
X166582677Y-70924058D01*
X166603777Y-70900777D01*
X166627058Y-70879677D01*
X166652296Y-70860959D01*
X166679246Y-70844806D01*
X166707650Y-70831372D01*
X166737234Y-70820787D01*
X166767713Y-70813152D01*
X166798793Y-70808542D01*
X166830176Y-70807000D01*
X168014824Y-70807000D01*
X168046207Y-70808542D01*
X168046207Y-70808542D01*
G37*
D13*
X167422500Y-71882000D03*
D12*
G36*
X171021207Y-70808542D02*
X171052287Y-70813152D01*
X171082766Y-70820787D01*
X171112350Y-70831372D01*
X171140754Y-70844806D01*
X171167704Y-70860959D01*
X171192942Y-70879677D01*
X171216223Y-70900777D01*
X171237323Y-70924058D01*
X171256041Y-70949296D01*
X171272194Y-70976246D01*
X171285628Y-71004650D01*
X171296213Y-71034234D01*
X171303848Y-71064713D01*
X171308458Y-71095793D01*
X171310000Y-71127176D01*
X171310000Y-72636824D01*
X171308458Y-72668207D01*
X171303848Y-72699287D01*
X171296213Y-72729766D01*
X171285628Y-72759350D01*
X171272194Y-72787754D01*
X171256041Y-72814704D01*
X171237323Y-72839942D01*
X171216223Y-72863223D01*
X171192942Y-72884323D01*
X171167704Y-72903041D01*
X171140754Y-72919194D01*
X171112350Y-72932628D01*
X171082766Y-72943213D01*
X171052287Y-72950848D01*
X171021207Y-72955458D01*
X170989824Y-72957000D01*
X169805176Y-72957000D01*
X169773793Y-72955458D01*
X169742713Y-72950848D01*
X169712234Y-72943213D01*
X169682650Y-72932628D01*
X169654246Y-72919194D01*
X169627296Y-72903041D01*
X169602058Y-72884323D01*
X169578777Y-72863223D01*
X169557677Y-72839942D01*
X169538959Y-72814704D01*
X169522806Y-72787754D01*
X169509372Y-72759350D01*
X169498787Y-72729766D01*
X169491152Y-72699287D01*
X169486542Y-72668207D01*
X169485000Y-72636824D01*
X169485000Y-71127176D01*
X169486542Y-71095793D01*
X169491152Y-71064713D01*
X169498787Y-71034234D01*
X169509372Y-71004650D01*
X169522806Y-70976246D01*
X169538959Y-70949296D01*
X169557677Y-70924058D01*
X169578777Y-70900777D01*
X169602058Y-70879677D01*
X169627296Y-70860959D01*
X169654246Y-70844806D01*
X169682650Y-70831372D01*
X169712234Y-70820787D01*
X169742713Y-70813152D01*
X169773793Y-70808542D01*
X169805176Y-70807000D01*
X170989824Y-70807000D01*
X171021207Y-70808542D01*
X171021207Y-70808542D01*
G37*
D13*
X170397500Y-71882000D03*
G04 #@! TD*
D12*
G04 #@! TO.C,R24*
G36*
X151590207Y-97351542D02*
X151621287Y-97356152D01*
X151651766Y-97363787D01*
X151681350Y-97374372D01*
X151709754Y-97387806D01*
X151736704Y-97403959D01*
X151761942Y-97422677D01*
X151785223Y-97443777D01*
X151806323Y-97467058D01*
X151825041Y-97492296D01*
X151841194Y-97519246D01*
X151854628Y-97547650D01*
X151865213Y-97577234D01*
X151872848Y-97607713D01*
X151877458Y-97638793D01*
X151879000Y-97670176D01*
X151879000Y-99179824D01*
X151877458Y-99211207D01*
X151872848Y-99242287D01*
X151865213Y-99272766D01*
X151854628Y-99302350D01*
X151841194Y-99330754D01*
X151825041Y-99357704D01*
X151806323Y-99382942D01*
X151785223Y-99406223D01*
X151761942Y-99427323D01*
X151736704Y-99446041D01*
X151709754Y-99462194D01*
X151681350Y-99475628D01*
X151651766Y-99486213D01*
X151621287Y-99493848D01*
X151590207Y-99498458D01*
X151558824Y-99500000D01*
X150374176Y-99500000D01*
X150342793Y-99498458D01*
X150311713Y-99493848D01*
X150281234Y-99486213D01*
X150251650Y-99475628D01*
X150223246Y-99462194D01*
X150196296Y-99446041D01*
X150171058Y-99427323D01*
X150147777Y-99406223D01*
X150126677Y-99382942D01*
X150107959Y-99357704D01*
X150091806Y-99330754D01*
X150078372Y-99302350D01*
X150067787Y-99272766D01*
X150060152Y-99242287D01*
X150055542Y-99211207D01*
X150054000Y-99179824D01*
X150054000Y-97670176D01*
X150055542Y-97638793D01*
X150060152Y-97607713D01*
X150067787Y-97577234D01*
X150078372Y-97547650D01*
X150091806Y-97519246D01*
X150107959Y-97492296D01*
X150126677Y-97467058D01*
X150147777Y-97443777D01*
X150171058Y-97422677D01*
X150196296Y-97403959D01*
X150223246Y-97387806D01*
X150251650Y-97374372D01*
X150281234Y-97363787D01*
X150311713Y-97356152D01*
X150342793Y-97351542D01*
X150374176Y-97350000D01*
X151558824Y-97350000D01*
X151590207Y-97351542D01*
X151590207Y-97351542D01*
G37*
D13*
X150966500Y-98425000D03*
D12*
G36*
X148615207Y-97351542D02*
X148646287Y-97356152D01*
X148676766Y-97363787D01*
X148706350Y-97374372D01*
X148734754Y-97387806D01*
X148761704Y-97403959D01*
X148786942Y-97422677D01*
X148810223Y-97443777D01*
X148831323Y-97467058D01*
X148850041Y-97492296D01*
X148866194Y-97519246D01*
X148879628Y-97547650D01*
X148890213Y-97577234D01*
X148897848Y-97607713D01*
X148902458Y-97638793D01*
X148904000Y-97670176D01*
X148904000Y-99179824D01*
X148902458Y-99211207D01*
X148897848Y-99242287D01*
X148890213Y-99272766D01*
X148879628Y-99302350D01*
X148866194Y-99330754D01*
X148850041Y-99357704D01*
X148831323Y-99382942D01*
X148810223Y-99406223D01*
X148786942Y-99427323D01*
X148761704Y-99446041D01*
X148734754Y-99462194D01*
X148706350Y-99475628D01*
X148676766Y-99486213D01*
X148646287Y-99493848D01*
X148615207Y-99498458D01*
X148583824Y-99500000D01*
X147399176Y-99500000D01*
X147367793Y-99498458D01*
X147336713Y-99493848D01*
X147306234Y-99486213D01*
X147276650Y-99475628D01*
X147248246Y-99462194D01*
X147221296Y-99446041D01*
X147196058Y-99427323D01*
X147172777Y-99406223D01*
X147151677Y-99382942D01*
X147132959Y-99357704D01*
X147116806Y-99330754D01*
X147103372Y-99302350D01*
X147092787Y-99272766D01*
X147085152Y-99242287D01*
X147080542Y-99211207D01*
X147079000Y-99179824D01*
X147079000Y-97670176D01*
X147080542Y-97638793D01*
X147085152Y-97607713D01*
X147092787Y-97577234D01*
X147103372Y-97547650D01*
X147116806Y-97519246D01*
X147132959Y-97492296D01*
X147151677Y-97467058D01*
X147172777Y-97443777D01*
X147196058Y-97422677D01*
X147221296Y-97403959D01*
X147248246Y-97387806D01*
X147276650Y-97374372D01*
X147306234Y-97363787D01*
X147336713Y-97356152D01*
X147367793Y-97351542D01*
X147399176Y-97350000D01*
X148583824Y-97350000D01*
X148615207Y-97351542D01*
X148615207Y-97351542D01*
G37*
D13*
X147991500Y-98425000D03*
G04 #@! TD*
D12*
G04 #@! TO.C,R25*
G36*
X153059207Y-100598542D02*
X153090287Y-100603152D01*
X153120766Y-100610787D01*
X153150350Y-100621372D01*
X153178754Y-100634806D01*
X153205704Y-100650959D01*
X153230942Y-100669677D01*
X153254223Y-100690777D01*
X153275323Y-100714058D01*
X153294041Y-100739296D01*
X153310194Y-100766246D01*
X153323628Y-100794650D01*
X153334213Y-100824234D01*
X153341848Y-100854713D01*
X153346458Y-100885793D01*
X153348000Y-100917176D01*
X153348000Y-102101824D01*
X153346458Y-102133207D01*
X153341848Y-102164287D01*
X153334213Y-102194766D01*
X153323628Y-102224350D01*
X153310194Y-102252754D01*
X153294041Y-102279704D01*
X153275323Y-102304942D01*
X153254223Y-102328223D01*
X153230942Y-102349323D01*
X153205704Y-102368041D01*
X153178754Y-102384194D01*
X153150350Y-102397628D01*
X153120766Y-102408213D01*
X153090287Y-102415848D01*
X153059207Y-102420458D01*
X153027824Y-102422000D01*
X151518176Y-102422000D01*
X151486793Y-102420458D01*
X151455713Y-102415848D01*
X151425234Y-102408213D01*
X151395650Y-102397628D01*
X151367246Y-102384194D01*
X151340296Y-102368041D01*
X151315058Y-102349323D01*
X151291777Y-102328223D01*
X151270677Y-102304942D01*
X151251959Y-102279704D01*
X151235806Y-102252754D01*
X151222372Y-102224350D01*
X151211787Y-102194766D01*
X151204152Y-102164287D01*
X151199542Y-102133207D01*
X151198000Y-102101824D01*
X151198000Y-100917176D01*
X151199542Y-100885793D01*
X151204152Y-100854713D01*
X151211787Y-100824234D01*
X151222372Y-100794650D01*
X151235806Y-100766246D01*
X151251959Y-100739296D01*
X151270677Y-100714058D01*
X151291777Y-100690777D01*
X151315058Y-100669677D01*
X151340296Y-100650959D01*
X151367246Y-100634806D01*
X151395650Y-100621372D01*
X151425234Y-100610787D01*
X151455713Y-100603152D01*
X151486793Y-100598542D01*
X151518176Y-100597000D01*
X153027824Y-100597000D01*
X153059207Y-100598542D01*
X153059207Y-100598542D01*
G37*
D13*
X152273000Y-101509500D03*
D12*
G36*
X153059207Y-103573542D02*
X153090287Y-103578152D01*
X153120766Y-103585787D01*
X153150350Y-103596372D01*
X153178754Y-103609806D01*
X153205704Y-103625959D01*
X153230942Y-103644677D01*
X153254223Y-103665777D01*
X153275323Y-103689058D01*
X153294041Y-103714296D01*
X153310194Y-103741246D01*
X153323628Y-103769650D01*
X153334213Y-103799234D01*
X153341848Y-103829713D01*
X153346458Y-103860793D01*
X153348000Y-103892176D01*
X153348000Y-105076824D01*
X153346458Y-105108207D01*
X153341848Y-105139287D01*
X153334213Y-105169766D01*
X153323628Y-105199350D01*
X153310194Y-105227754D01*
X153294041Y-105254704D01*
X153275323Y-105279942D01*
X153254223Y-105303223D01*
X153230942Y-105324323D01*
X153205704Y-105343041D01*
X153178754Y-105359194D01*
X153150350Y-105372628D01*
X153120766Y-105383213D01*
X153090287Y-105390848D01*
X153059207Y-105395458D01*
X153027824Y-105397000D01*
X151518176Y-105397000D01*
X151486793Y-105395458D01*
X151455713Y-105390848D01*
X151425234Y-105383213D01*
X151395650Y-105372628D01*
X151367246Y-105359194D01*
X151340296Y-105343041D01*
X151315058Y-105324323D01*
X151291777Y-105303223D01*
X151270677Y-105279942D01*
X151251959Y-105254704D01*
X151235806Y-105227754D01*
X151222372Y-105199350D01*
X151211787Y-105169766D01*
X151204152Y-105139287D01*
X151199542Y-105108207D01*
X151198000Y-105076824D01*
X151198000Y-103892176D01*
X151199542Y-103860793D01*
X151204152Y-103829713D01*
X151211787Y-103799234D01*
X151222372Y-103769650D01*
X151235806Y-103741246D01*
X151251959Y-103714296D01*
X151270677Y-103689058D01*
X151291777Y-103665777D01*
X151315058Y-103644677D01*
X151340296Y-103625959D01*
X151367246Y-103609806D01*
X151395650Y-103596372D01*
X151425234Y-103585787D01*
X151455713Y-103578152D01*
X151486793Y-103573542D01*
X151518176Y-103572000D01*
X153027824Y-103572000D01*
X153059207Y-103573542D01*
X153059207Y-103573542D01*
G37*
D13*
X152273000Y-104484500D03*
G04 #@! TD*
D12*
G04 #@! TO.C,R26*
G36*
X158284707Y-97351542D02*
X158315787Y-97356152D01*
X158346266Y-97363787D01*
X158375850Y-97374372D01*
X158404254Y-97387806D01*
X158431204Y-97403959D01*
X158456442Y-97422677D01*
X158479723Y-97443777D01*
X158500823Y-97467058D01*
X158519541Y-97492296D01*
X158535694Y-97519246D01*
X158549128Y-97547650D01*
X158559713Y-97577234D01*
X158567348Y-97607713D01*
X158571958Y-97638793D01*
X158573500Y-97670176D01*
X158573500Y-99179824D01*
X158571958Y-99211207D01*
X158567348Y-99242287D01*
X158559713Y-99272766D01*
X158549128Y-99302350D01*
X158535694Y-99330754D01*
X158519541Y-99357704D01*
X158500823Y-99382942D01*
X158479723Y-99406223D01*
X158456442Y-99427323D01*
X158431204Y-99446041D01*
X158404254Y-99462194D01*
X158375850Y-99475628D01*
X158346266Y-99486213D01*
X158315787Y-99493848D01*
X158284707Y-99498458D01*
X158253324Y-99500000D01*
X157068676Y-99500000D01*
X157037293Y-99498458D01*
X157006213Y-99493848D01*
X156975734Y-99486213D01*
X156946150Y-99475628D01*
X156917746Y-99462194D01*
X156890796Y-99446041D01*
X156865558Y-99427323D01*
X156842277Y-99406223D01*
X156821177Y-99382942D01*
X156802459Y-99357704D01*
X156786306Y-99330754D01*
X156772872Y-99302350D01*
X156762287Y-99272766D01*
X156754652Y-99242287D01*
X156750042Y-99211207D01*
X156748500Y-99179824D01*
X156748500Y-97670176D01*
X156750042Y-97638793D01*
X156754652Y-97607713D01*
X156762287Y-97577234D01*
X156772872Y-97547650D01*
X156786306Y-97519246D01*
X156802459Y-97492296D01*
X156821177Y-97467058D01*
X156842277Y-97443777D01*
X156865558Y-97422677D01*
X156890796Y-97403959D01*
X156917746Y-97387806D01*
X156946150Y-97374372D01*
X156975734Y-97363787D01*
X157006213Y-97356152D01*
X157037293Y-97351542D01*
X157068676Y-97350000D01*
X158253324Y-97350000D01*
X158284707Y-97351542D01*
X158284707Y-97351542D01*
G37*
D13*
X157661000Y-98425000D03*
D12*
G36*
X155309707Y-97351542D02*
X155340787Y-97356152D01*
X155371266Y-97363787D01*
X155400850Y-97374372D01*
X155429254Y-97387806D01*
X155456204Y-97403959D01*
X155481442Y-97422677D01*
X155504723Y-97443777D01*
X155525823Y-97467058D01*
X155544541Y-97492296D01*
X155560694Y-97519246D01*
X155574128Y-97547650D01*
X155584713Y-97577234D01*
X155592348Y-97607713D01*
X155596958Y-97638793D01*
X155598500Y-97670176D01*
X155598500Y-99179824D01*
X155596958Y-99211207D01*
X155592348Y-99242287D01*
X155584713Y-99272766D01*
X155574128Y-99302350D01*
X155560694Y-99330754D01*
X155544541Y-99357704D01*
X155525823Y-99382942D01*
X155504723Y-99406223D01*
X155481442Y-99427323D01*
X155456204Y-99446041D01*
X155429254Y-99462194D01*
X155400850Y-99475628D01*
X155371266Y-99486213D01*
X155340787Y-99493848D01*
X155309707Y-99498458D01*
X155278324Y-99500000D01*
X154093676Y-99500000D01*
X154062293Y-99498458D01*
X154031213Y-99493848D01*
X154000734Y-99486213D01*
X153971150Y-99475628D01*
X153942746Y-99462194D01*
X153915796Y-99446041D01*
X153890558Y-99427323D01*
X153867277Y-99406223D01*
X153846177Y-99382942D01*
X153827459Y-99357704D01*
X153811306Y-99330754D01*
X153797872Y-99302350D01*
X153787287Y-99272766D01*
X153779652Y-99242287D01*
X153775042Y-99211207D01*
X153773500Y-99179824D01*
X153773500Y-97670176D01*
X153775042Y-97638793D01*
X153779652Y-97607713D01*
X153787287Y-97577234D01*
X153797872Y-97547650D01*
X153811306Y-97519246D01*
X153827459Y-97492296D01*
X153846177Y-97467058D01*
X153867277Y-97443777D01*
X153890558Y-97422677D01*
X153915796Y-97403959D01*
X153942746Y-97387806D01*
X153971150Y-97374372D01*
X154000734Y-97363787D01*
X154031213Y-97356152D01*
X154062293Y-97351542D01*
X154093676Y-97350000D01*
X155278324Y-97350000D01*
X155309707Y-97351542D01*
X155309707Y-97351542D01*
G37*
D13*
X154686000Y-98425000D03*
G04 #@! TD*
D12*
G04 #@! TO.C,R27*
G36*
X159790207Y-100598542D02*
X159821287Y-100603152D01*
X159851766Y-100610787D01*
X159881350Y-100621372D01*
X159909754Y-100634806D01*
X159936704Y-100650959D01*
X159961942Y-100669677D01*
X159985223Y-100690777D01*
X160006323Y-100714058D01*
X160025041Y-100739296D01*
X160041194Y-100766246D01*
X160054628Y-100794650D01*
X160065213Y-100824234D01*
X160072848Y-100854713D01*
X160077458Y-100885793D01*
X160079000Y-100917176D01*
X160079000Y-102101824D01*
X160077458Y-102133207D01*
X160072848Y-102164287D01*
X160065213Y-102194766D01*
X160054628Y-102224350D01*
X160041194Y-102252754D01*
X160025041Y-102279704D01*
X160006323Y-102304942D01*
X159985223Y-102328223D01*
X159961942Y-102349323D01*
X159936704Y-102368041D01*
X159909754Y-102384194D01*
X159881350Y-102397628D01*
X159851766Y-102408213D01*
X159821287Y-102415848D01*
X159790207Y-102420458D01*
X159758824Y-102422000D01*
X158249176Y-102422000D01*
X158217793Y-102420458D01*
X158186713Y-102415848D01*
X158156234Y-102408213D01*
X158126650Y-102397628D01*
X158098246Y-102384194D01*
X158071296Y-102368041D01*
X158046058Y-102349323D01*
X158022777Y-102328223D01*
X158001677Y-102304942D01*
X157982959Y-102279704D01*
X157966806Y-102252754D01*
X157953372Y-102224350D01*
X157942787Y-102194766D01*
X157935152Y-102164287D01*
X157930542Y-102133207D01*
X157929000Y-102101824D01*
X157929000Y-100917176D01*
X157930542Y-100885793D01*
X157935152Y-100854713D01*
X157942787Y-100824234D01*
X157953372Y-100794650D01*
X157966806Y-100766246D01*
X157982959Y-100739296D01*
X158001677Y-100714058D01*
X158022777Y-100690777D01*
X158046058Y-100669677D01*
X158071296Y-100650959D01*
X158098246Y-100634806D01*
X158126650Y-100621372D01*
X158156234Y-100610787D01*
X158186713Y-100603152D01*
X158217793Y-100598542D01*
X158249176Y-100597000D01*
X159758824Y-100597000D01*
X159790207Y-100598542D01*
X159790207Y-100598542D01*
G37*
D13*
X159004000Y-101509500D03*
D12*
G36*
X159790207Y-103573542D02*
X159821287Y-103578152D01*
X159851766Y-103585787D01*
X159881350Y-103596372D01*
X159909754Y-103609806D01*
X159936704Y-103625959D01*
X159961942Y-103644677D01*
X159985223Y-103665777D01*
X160006323Y-103689058D01*
X160025041Y-103714296D01*
X160041194Y-103741246D01*
X160054628Y-103769650D01*
X160065213Y-103799234D01*
X160072848Y-103829713D01*
X160077458Y-103860793D01*
X160079000Y-103892176D01*
X160079000Y-105076824D01*
X160077458Y-105108207D01*
X160072848Y-105139287D01*
X160065213Y-105169766D01*
X160054628Y-105199350D01*
X160041194Y-105227754D01*
X160025041Y-105254704D01*
X160006323Y-105279942D01*
X159985223Y-105303223D01*
X159961942Y-105324323D01*
X159936704Y-105343041D01*
X159909754Y-105359194D01*
X159881350Y-105372628D01*
X159851766Y-105383213D01*
X159821287Y-105390848D01*
X159790207Y-105395458D01*
X159758824Y-105397000D01*
X158249176Y-105397000D01*
X158217793Y-105395458D01*
X158186713Y-105390848D01*
X158156234Y-105383213D01*
X158126650Y-105372628D01*
X158098246Y-105359194D01*
X158071296Y-105343041D01*
X158046058Y-105324323D01*
X158022777Y-105303223D01*
X158001677Y-105279942D01*
X157982959Y-105254704D01*
X157966806Y-105227754D01*
X157953372Y-105199350D01*
X157942787Y-105169766D01*
X157935152Y-105139287D01*
X157930542Y-105108207D01*
X157929000Y-105076824D01*
X157929000Y-103892176D01*
X157930542Y-103860793D01*
X157935152Y-103829713D01*
X157942787Y-103799234D01*
X157953372Y-103769650D01*
X157966806Y-103741246D01*
X157982959Y-103714296D01*
X158001677Y-103689058D01*
X158022777Y-103665777D01*
X158046058Y-103644677D01*
X158071296Y-103625959D01*
X158098246Y-103609806D01*
X158126650Y-103596372D01*
X158156234Y-103585787D01*
X158186713Y-103578152D01*
X158217793Y-103573542D01*
X158249176Y-103572000D01*
X159758824Y-103572000D01*
X159790207Y-103573542D01*
X159790207Y-103573542D01*
G37*
D13*
X159004000Y-104484500D03*
G04 #@! TD*
D12*
G04 #@! TO.C,R28*
G36*
X164961707Y-97351542D02*
X164992787Y-97356152D01*
X165023266Y-97363787D01*
X165052850Y-97374372D01*
X165081254Y-97387806D01*
X165108204Y-97403959D01*
X165133442Y-97422677D01*
X165156723Y-97443777D01*
X165177823Y-97467058D01*
X165196541Y-97492296D01*
X165212694Y-97519246D01*
X165226128Y-97547650D01*
X165236713Y-97577234D01*
X165244348Y-97607713D01*
X165248958Y-97638793D01*
X165250500Y-97670176D01*
X165250500Y-99179824D01*
X165248958Y-99211207D01*
X165244348Y-99242287D01*
X165236713Y-99272766D01*
X165226128Y-99302350D01*
X165212694Y-99330754D01*
X165196541Y-99357704D01*
X165177823Y-99382942D01*
X165156723Y-99406223D01*
X165133442Y-99427323D01*
X165108204Y-99446041D01*
X165081254Y-99462194D01*
X165052850Y-99475628D01*
X165023266Y-99486213D01*
X164992787Y-99493848D01*
X164961707Y-99498458D01*
X164930324Y-99500000D01*
X163745676Y-99500000D01*
X163714293Y-99498458D01*
X163683213Y-99493848D01*
X163652734Y-99486213D01*
X163623150Y-99475628D01*
X163594746Y-99462194D01*
X163567796Y-99446041D01*
X163542558Y-99427323D01*
X163519277Y-99406223D01*
X163498177Y-99382942D01*
X163479459Y-99357704D01*
X163463306Y-99330754D01*
X163449872Y-99302350D01*
X163439287Y-99272766D01*
X163431652Y-99242287D01*
X163427042Y-99211207D01*
X163425500Y-99179824D01*
X163425500Y-97670176D01*
X163427042Y-97638793D01*
X163431652Y-97607713D01*
X163439287Y-97577234D01*
X163449872Y-97547650D01*
X163463306Y-97519246D01*
X163479459Y-97492296D01*
X163498177Y-97467058D01*
X163519277Y-97443777D01*
X163542558Y-97422677D01*
X163567796Y-97403959D01*
X163594746Y-97387806D01*
X163623150Y-97374372D01*
X163652734Y-97363787D01*
X163683213Y-97356152D01*
X163714293Y-97351542D01*
X163745676Y-97350000D01*
X164930324Y-97350000D01*
X164961707Y-97351542D01*
X164961707Y-97351542D01*
G37*
D13*
X164338000Y-98425000D03*
D12*
G36*
X161986707Y-97351542D02*
X162017787Y-97356152D01*
X162048266Y-97363787D01*
X162077850Y-97374372D01*
X162106254Y-97387806D01*
X162133204Y-97403959D01*
X162158442Y-97422677D01*
X162181723Y-97443777D01*
X162202823Y-97467058D01*
X162221541Y-97492296D01*
X162237694Y-97519246D01*
X162251128Y-97547650D01*
X162261713Y-97577234D01*
X162269348Y-97607713D01*
X162273958Y-97638793D01*
X162275500Y-97670176D01*
X162275500Y-99179824D01*
X162273958Y-99211207D01*
X162269348Y-99242287D01*
X162261713Y-99272766D01*
X162251128Y-99302350D01*
X162237694Y-99330754D01*
X162221541Y-99357704D01*
X162202823Y-99382942D01*
X162181723Y-99406223D01*
X162158442Y-99427323D01*
X162133204Y-99446041D01*
X162106254Y-99462194D01*
X162077850Y-99475628D01*
X162048266Y-99486213D01*
X162017787Y-99493848D01*
X161986707Y-99498458D01*
X161955324Y-99500000D01*
X160770676Y-99500000D01*
X160739293Y-99498458D01*
X160708213Y-99493848D01*
X160677734Y-99486213D01*
X160648150Y-99475628D01*
X160619746Y-99462194D01*
X160592796Y-99446041D01*
X160567558Y-99427323D01*
X160544277Y-99406223D01*
X160523177Y-99382942D01*
X160504459Y-99357704D01*
X160488306Y-99330754D01*
X160474872Y-99302350D01*
X160464287Y-99272766D01*
X160456652Y-99242287D01*
X160452042Y-99211207D01*
X160450500Y-99179824D01*
X160450500Y-97670176D01*
X160452042Y-97638793D01*
X160456652Y-97607713D01*
X160464287Y-97577234D01*
X160474872Y-97547650D01*
X160488306Y-97519246D01*
X160504459Y-97492296D01*
X160523177Y-97467058D01*
X160544277Y-97443777D01*
X160567558Y-97422677D01*
X160592796Y-97403959D01*
X160619746Y-97387806D01*
X160648150Y-97374372D01*
X160677734Y-97363787D01*
X160708213Y-97356152D01*
X160739293Y-97351542D01*
X160770676Y-97350000D01*
X161955324Y-97350000D01*
X161986707Y-97351542D01*
X161986707Y-97351542D01*
G37*
D13*
X161363000Y-98425000D03*
G04 #@! TD*
D12*
G04 #@! TO.C,R29*
G36*
X166394207Y-100598542D02*
X166425287Y-100603152D01*
X166455766Y-100610787D01*
X166485350Y-100621372D01*
X166513754Y-100634806D01*
X166540704Y-100650959D01*
X166565942Y-100669677D01*
X166589223Y-100690777D01*
X166610323Y-100714058D01*
X166629041Y-100739296D01*
X166645194Y-100766246D01*
X166658628Y-100794650D01*
X166669213Y-100824234D01*
X166676848Y-100854713D01*
X166681458Y-100885793D01*
X166683000Y-100917176D01*
X166683000Y-102101824D01*
X166681458Y-102133207D01*
X166676848Y-102164287D01*
X166669213Y-102194766D01*
X166658628Y-102224350D01*
X166645194Y-102252754D01*
X166629041Y-102279704D01*
X166610323Y-102304942D01*
X166589223Y-102328223D01*
X166565942Y-102349323D01*
X166540704Y-102368041D01*
X166513754Y-102384194D01*
X166485350Y-102397628D01*
X166455766Y-102408213D01*
X166425287Y-102415848D01*
X166394207Y-102420458D01*
X166362824Y-102422000D01*
X164853176Y-102422000D01*
X164821793Y-102420458D01*
X164790713Y-102415848D01*
X164760234Y-102408213D01*
X164730650Y-102397628D01*
X164702246Y-102384194D01*
X164675296Y-102368041D01*
X164650058Y-102349323D01*
X164626777Y-102328223D01*
X164605677Y-102304942D01*
X164586959Y-102279704D01*
X164570806Y-102252754D01*
X164557372Y-102224350D01*
X164546787Y-102194766D01*
X164539152Y-102164287D01*
X164534542Y-102133207D01*
X164533000Y-102101824D01*
X164533000Y-100917176D01*
X164534542Y-100885793D01*
X164539152Y-100854713D01*
X164546787Y-100824234D01*
X164557372Y-100794650D01*
X164570806Y-100766246D01*
X164586959Y-100739296D01*
X164605677Y-100714058D01*
X164626777Y-100690777D01*
X164650058Y-100669677D01*
X164675296Y-100650959D01*
X164702246Y-100634806D01*
X164730650Y-100621372D01*
X164760234Y-100610787D01*
X164790713Y-100603152D01*
X164821793Y-100598542D01*
X164853176Y-100597000D01*
X166362824Y-100597000D01*
X166394207Y-100598542D01*
X166394207Y-100598542D01*
G37*
D13*
X165608000Y-101509500D03*
D12*
G36*
X166394207Y-103573542D02*
X166425287Y-103578152D01*
X166455766Y-103585787D01*
X166485350Y-103596372D01*
X166513754Y-103609806D01*
X166540704Y-103625959D01*
X166565942Y-103644677D01*
X166589223Y-103665777D01*
X166610323Y-103689058D01*
X166629041Y-103714296D01*
X166645194Y-103741246D01*
X166658628Y-103769650D01*
X166669213Y-103799234D01*
X166676848Y-103829713D01*
X166681458Y-103860793D01*
X166683000Y-103892176D01*
X166683000Y-105076824D01*
X166681458Y-105108207D01*
X166676848Y-105139287D01*
X166669213Y-105169766D01*
X166658628Y-105199350D01*
X166645194Y-105227754D01*
X166629041Y-105254704D01*
X166610323Y-105279942D01*
X166589223Y-105303223D01*
X166565942Y-105324323D01*
X166540704Y-105343041D01*
X166513754Y-105359194D01*
X166485350Y-105372628D01*
X166455766Y-105383213D01*
X166425287Y-105390848D01*
X166394207Y-105395458D01*
X166362824Y-105397000D01*
X164853176Y-105397000D01*
X164821793Y-105395458D01*
X164790713Y-105390848D01*
X164760234Y-105383213D01*
X164730650Y-105372628D01*
X164702246Y-105359194D01*
X164675296Y-105343041D01*
X164650058Y-105324323D01*
X164626777Y-105303223D01*
X164605677Y-105279942D01*
X164586959Y-105254704D01*
X164570806Y-105227754D01*
X164557372Y-105199350D01*
X164546787Y-105169766D01*
X164539152Y-105139287D01*
X164534542Y-105108207D01*
X164533000Y-105076824D01*
X164533000Y-103892176D01*
X164534542Y-103860793D01*
X164539152Y-103829713D01*
X164546787Y-103799234D01*
X164557372Y-103769650D01*
X164570806Y-103741246D01*
X164586959Y-103714296D01*
X164605677Y-103689058D01*
X164626777Y-103665777D01*
X164650058Y-103644677D01*
X164675296Y-103625959D01*
X164702246Y-103609806D01*
X164730650Y-103596372D01*
X164760234Y-103585787D01*
X164790713Y-103578152D01*
X164821793Y-103573542D01*
X164853176Y-103572000D01*
X166362824Y-103572000D01*
X166394207Y-103573542D01*
X166394207Y-103573542D01*
G37*
D13*
X165608000Y-104484500D03*
G04 #@! TD*
D12*
G04 #@! TO.C,R30*
G36*
X171783207Y-97351542D02*
X171814287Y-97356152D01*
X171844766Y-97363787D01*
X171874350Y-97374372D01*
X171902754Y-97387806D01*
X171929704Y-97403959D01*
X171954942Y-97422677D01*
X171978223Y-97443777D01*
X171999323Y-97467058D01*
X172018041Y-97492296D01*
X172034194Y-97519246D01*
X172047628Y-97547650D01*
X172058213Y-97577234D01*
X172065848Y-97607713D01*
X172070458Y-97638793D01*
X172072000Y-97670176D01*
X172072000Y-99179824D01*
X172070458Y-99211207D01*
X172065848Y-99242287D01*
X172058213Y-99272766D01*
X172047628Y-99302350D01*
X172034194Y-99330754D01*
X172018041Y-99357704D01*
X171999323Y-99382942D01*
X171978223Y-99406223D01*
X171954942Y-99427323D01*
X171929704Y-99446041D01*
X171902754Y-99462194D01*
X171874350Y-99475628D01*
X171844766Y-99486213D01*
X171814287Y-99493848D01*
X171783207Y-99498458D01*
X171751824Y-99500000D01*
X170567176Y-99500000D01*
X170535793Y-99498458D01*
X170504713Y-99493848D01*
X170474234Y-99486213D01*
X170444650Y-99475628D01*
X170416246Y-99462194D01*
X170389296Y-99446041D01*
X170364058Y-99427323D01*
X170340777Y-99406223D01*
X170319677Y-99382942D01*
X170300959Y-99357704D01*
X170284806Y-99330754D01*
X170271372Y-99302350D01*
X170260787Y-99272766D01*
X170253152Y-99242287D01*
X170248542Y-99211207D01*
X170247000Y-99179824D01*
X170247000Y-97670176D01*
X170248542Y-97638793D01*
X170253152Y-97607713D01*
X170260787Y-97577234D01*
X170271372Y-97547650D01*
X170284806Y-97519246D01*
X170300959Y-97492296D01*
X170319677Y-97467058D01*
X170340777Y-97443777D01*
X170364058Y-97422677D01*
X170389296Y-97403959D01*
X170416246Y-97387806D01*
X170444650Y-97374372D01*
X170474234Y-97363787D01*
X170504713Y-97356152D01*
X170535793Y-97351542D01*
X170567176Y-97350000D01*
X171751824Y-97350000D01*
X171783207Y-97351542D01*
X171783207Y-97351542D01*
G37*
D13*
X171159500Y-98425000D03*
D12*
G36*
X168808207Y-97351542D02*
X168839287Y-97356152D01*
X168869766Y-97363787D01*
X168899350Y-97374372D01*
X168927754Y-97387806D01*
X168954704Y-97403959D01*
X168979942Y-97422677D01*
X169003223Y-97443777D01*
X169024323Y-97467058D01*
X169043041Y-97492296D01*
X169059194Y-97519246D01*
X169072628Y-97547650D01*
X169083213Y-97577234D01*
X169090848Y-97607713D01*
X169095458Y-97638793D01*
X169097000Y-97670176D01*
X169097000Y-99179824D01*
X169095458Y-99211207D01*
X169090848Y-99242287D01*
X169083213Y-99272766D01*
X169072628Y-99302350D01*
X169059194Y-99330754D01*
X169043041Y-99357704D01*
X169024323Y-99382942D01*
X169003223Y-99406223D01*
X168979942Y-99427323D01*
X168954704Y-99446041D01*
X168927754Y-99462194D01*
X168899350Y-99475628D01*
X168869766Y-99486213D01*
X168839287Y-99493848D01*
X168808207Y-99498458D01*
X168776824Y-99500000D01*
X167592176Y-99500000D01*
X167560793Y-99498458D01*
X167529713Y-99493848D01*
X167499234Y-99486213D01*
X167469650Y-99475628D01*
X167441246Y-99462194D01*
X167414296Y-99446041D01*
X167389058Y-99427323D01*
X167365777Y-99406223D01*
X167344677Y-99382942D01*
X167325959Y-99357704D01*
X167309806Y-99330754D01*
X167296372Y-99302350D01*
X167285787Y-99272766D01*
X167278152Y-99242287D01*
X167273542Y-99211207D01*
X167272000Y-99179824D01*
X167272000Y-97670176D01*
X167273542Y-97638793D01*
X167278152Y-97607713D01*
X167285787Y-97577234D01*
X167296372Y-97547650D01*
X167309806Y-97519246D01*
X167325959Y-97492296D01*
X167344677Y-97467058D01*
X167365777Y-97443777D01*
X167389058Y-97422677D01*
X167414296Y-97403959D01*
X167441246Y-97387806D01*
X167469650Y-97374372D01*
X167499234Y-97363787D01*
X167529713Y-97356152D01*
X167560793Y-97351542D01*
X167592176Y-97350000D01*
X168776824Y-97350000D01*
X168808207Y-97351542D01*
X168808207Y-97351542D01*
G37*
D13*
X168184500Y-98425000D03*
G04 #@! TD*
D12*
G04 #@! TO.C,R31*
G36*
X173252207Y-100598542D02*
X173283287Y-100603152D01*
X173313766Y-100610787D01*
X173343350Y-100621372D01*
X173371754Y-100634806D01*
X173398704Y-100650959D01*
X173423942Y-100669677D01*
X173447223Y-100690777D01*
X173468323Y-100714058D01*
X173487041Y-100739296D01*
X173503194Y-100766246D01*
X173516628Y-100794650D01*
X173527213Y-100824234D01*
X173534848Y-100854713D01*
X173539458Y-100885793D01*
X173541000Y-100917176D01*
X173541000Y-102101824D01*
X173539458Y-102133207D01*
X173534848Y-102164287D01*
X173527213Y-102194766D01*
X173516628Y-102224350D01*
X173503194Y-102252754D01*
X173487041Y-102279704D01*
X173468323Y-102304942D01*
X173447223Y-102328223D01*
X173423942Y-102349323D01*
X173398704Y-102368041D01*
X173371754Y-102384194D01*
X173343350Y-102397628D01*
X173313766Y-102408213D01*
X173283287Y-102415848D01*
X173252207Y-102420458D01*
X173220824Y-102422000D01*
X171711176Y-102422000D01*
X171679793Y-102420458D01*
X171648713Y-102415848D01*
X171618234Y-102408213D01*
X171588650Y-102397628D01*
X171560246Y-102384194D01*
X171533296Y-102368041D01*
X171508058Y-102349323D01*
X171484777Y-102328223D01*
X171463677Y-102304942D01*
X171444959Y-102279704D01*
X171428806Y-102252754D01*
X171415372Y-102224350D01*
X171404787Y-102194766D01*
X171397152Y-102164287D01*
X171392542Y-102133207D01*
X171391000Y-102101824D01*
X171391000Y-100917176D01*
X171392542Y-100885793D01*
X171397152Y-100854713D01*
X171404787Y-100824234D01*
X171415372Y-100794650D01*
X171428806Y-100766246D01*
X171444959Y-100739296D01*
X171463677Y-100714058D01*
X171484777Y-100690777D01*
X171508058Y-100669677D01*
X171533296Y-100650959D01*
X171560246Y-100634806D01*
X171588650Y-100621372D01*
X171618234Y-100610787D01*
X171648713Y-100603152D01*
X171679793Y-100598542D01*
X171711176Y-100597000D01*
X173220824Y-100597000D01*
X173252207Y-100598542D01*
X173252207Y-100598542D01*
G37*
D13*
X172466000Y-101509500D03*
D12*
G36*
X173252207Y-103573542D02*
X173283287Y-103578152D01*
X173313766Y-103585787D01*
X173343350Y-103596372D01*
X173371754Y-103609806D01*
X173398704Y-103625959D01*
X173423942Y-103644677D01*
X173447223Y-103665777D01*
X173468323Y-103689058D01*
X173487041Y-103714296D01*
X173503194Y-103741246D01*
X173516628Y-103769650D01*
X173527213Y-103799234D01*
X173534848Y-103829713D01*
X173539458Y-103860793D01*
X173541000Y-103892176D01*
X173541000Y-105076824D01*
X173539458Y-105108207D01*
X173534848Y-105139287D01*
X173527213Y-105169766D01*
X173516628Y-105199350D01*
X173503194Y-105227754D01*
X173487041Y-105254704D01*
X173468323Y-105279942D01*
X173447223Y-105303223D01*
X173423942Y-105324323D01*
X173398704Y-105343041D01*
X173371754Y-105359194D01*
X173343350Y-105372628D01*
X173313766Y-105383213D01*
X173283287Y-105390848D01*
X173252207Y-105395458D01*
X173220824Y-105397000D01*
X171711176Y-105397000D01*
X171679793Y-105395458D01*
X171648713Y-105390848D01*
X171618234Y-105383213D01*
X171588650Y-105372628D01*
X171560246Y-105359194D01*
X171533296Y-105343041D01*
X171508058Y-105324323D01*
X171484777Y-105303223D01*
X171463677Y-105279942D01*
X171444959Y-105254704D01*
X171428806Y-105227754D01*
X171415372Y-105199350D01*
X171404787Y-105169766D01*
X171397152Y-105139287D01*
X171392542Y-105108207D01*
X171391000Y-105076824D01*
X171391000Y-103892176D01*
X171392542Y-103860793D01*
X171397152Y-103829713D01*
X171404787Y-103799234D01*
X171415372Y-103769650D01*
X171428806Y-103741246D01*
X171444959Y-103714296D01*
X171463677Y-103689058D01*
X171484777Y-103665777D01*
X171508058Y-103644677D01*
X171533296Y-103625959D01*
X171560246Y-103609806D01*
X171588650Y-103596372D01*
X171618234Y-103585787D01*
X171648713Y-103578152D01*
X171679793Y-103573542D01*
X171711176Y-103572000D01*
X173220824Y-103572000D01*
X173252207Y-103573542D01*
X173252207Y-103573542D01*
G37*
D13*
X172466000Y-104484500D03*
G04 #@! TD*
D16*
G04 #@! TO.C,U5*
X151130000Y-46228000D03*
X153670000Y-46228000D03*
X156210000Y-46228000D03*
X158750000Y-46228000D03*
X161290000Y-46228000D03*
X163830000Y-46228000D03*
X166370000Y-46228000D03*
D17*
X168910000Y-46228000D03*
G04 #@! TD*
D16*
G04 #@! TO.C,U6*
X175260000Y-69850000D03*
X175260000Y-72390000D03*
X175260000Y-74930000D03*
X175260000Y-77470000D03*
X175260000Y-80010000D03*
X175260000Y-82550000D03*
X175260000Y-85090000D03*
D17*
X175260000Y-87630000D03*
G04 #@! TD*
D16*
G04 #@! TO.C,U7*
X170942000Y-109474000D03*
X168402000Y-109474000D03*
X165862000Y-109474000D03*
X163322000Y-109474000D03*
X160782000Y-109474000D03*
X158242000Y-109474000D03*
X155702000Y-109474000D03*
D17*
X153162000Y-109474000D03*
G04 #@! TD*
D16*
G04 #@! TO.C,JP1*
X119380000Y-59182000D03*
X116840000Y-59182000D03*
X114300000Y-59182000D03*
X111760000Y-59182000D03*
X109220000Y-59182000D03*
X106680000Y-59182000D03*
X104140000Y-59182000D03*
D17*
X101600000Y-59182000D03*
G04 #@! TD*
D16*
G04 #@! TO.C,JP4*
X97536000Y-50038000D03*
X94996000Y-50038000D03*
X92456000Y-50038000D03*
X89916000Y-50038000D03*
X87376000Y-50038000D03*
X84836000Y-50038000D03*
X82296000Y-50038000D03*
X79756000Y-50038000D03*
X77216000Y-50038000D03*
D17*
X74676000Y-50038000D03*
G04 #@! TD*
D16*
G04 #@! TO.C,JP5*
X106680000Y-95758000D03*
X109220000Y-95758000D03*
X111760000Y-95758000D03*
X114300000Y-95758000D03*
X116840000Y-95758000D03*
D17*
X119380000Y-95758000D03*
G04 #@! TD*
D16*
G04 #@! TO.C,JP6*
X93980000Y-95758000D03*
X96520000Y-95758000D03*
X99060000Y-95758000D03*
D17*
X101600000Y-95758000D03*
G04 #@! TD*
D16*
G04 #@! TO.C,JP7*
X106680000Y-104902000D03*
X109220000Y-104902000D03*
X111760000Y-104902000D03*
X114300000Y-104902000D03*
X116840000Y-104902000D03*
D17*
X119380000Y-104902000D03*
G04 #@! TD*
D16*
G04 #@! TO.C,JP8*
X83820000Y-104902000D03*
X86360000Y-104902000D03*
X88900000Y-104902000D03*
X91440000Y-104902000D03*
X93980000Y-104902000D03*
X96520000Y-104902000D03*
X99060000Y-104902000D03*
D17*
X101600000Y-104902000D03*
G04 #@! TD*
D16*
G04 #@! TO.C,JP9*
X65532000Y-98552000D03*
X65532000Y-96012000D03*
D17*
X65532000Y-93472000D03*
G04 #@! TD*
G04 #@! TO.C,JP10*
X59436000Y-93472000D03*
D16*
X59436000Y-96012000D03*
X59436000Y-98552000D03*
G04 #@! TD*
M02*
