G04 #@! TF.GenerationSoftware,KiCad,Pcbnew,5.0.0-fee4fd1~66~ubuntu18.04.1*
G04 #@! TF.CreationDate,2018-10-02T15:59:07+02:00*
G04 #@! TF.ProjectId,pcb,7063622E6B696361645F706362000000,rev?*
G04 #@! TF.SameCoordinates,Original*
G04 #@! TF.FileFunction,Soldermask,Top*
G04 #@! TF.FilePolarity,Negative*
%FSLAX46Y46*%
G04 Gerber Fmt 4.6, Leading zero omitted, Abs format (unit mm)*
G04 Created by KiCad (PCBNEW 5.0.0-fee4fd1~66~ubuntu18.04.1) date Tue Oct  2 15:59:07 2018*
%MOMM*%
%LPD*%
G01*
G04 APERTURE LIST*
%ADD10C,1.924000*%
%ADD11C,1.923000*%
%ADD12R,1.700000X1.000000*%
%ADD13O,2.250000X2.100000*%
%ADD14R,2.250000X2.100000*%
%ADD15R,1.873200X0.679400*%
%ADD16R,0.679400X1.873200*%
%ADD17O,2.100000X2.100000*%
%ADD18R,2.100000X2.100000*%
%ADD19C,2.100000*%
%ADD20R,1.950000X1.700000*%
%ADD21C,0.100000*%
%ADD22C,1.825000*%
%ADD23R,1.000000X1.700000*%
%ADD24R,1.700000X1.950000*%
G04 APERTURE END LIST*
D10*
G04 #@! TO.C,U2*
X83820000Y-101600000D03*
X86360000Y-101600000D03*
X74676000Y-53340000D03*
X77216000Y-53340000D03*
X93980000Y-101600000D03*
D11*
X79756000Y-53340000D03*
D10*
X82296000Y-53340000D03*
X84836000Y-53340000D03*
X87376000Y-53340000D03*
X89916000Y-53340000D03*
X92456000Y-53340000D03*
X94996000Y-53340000D03*
X97536000Y-53340000D03*
X101600000Y-53340000D03*
X104140000Y-53340000D03*
X106680000Y-53340000D03*
X109220000Y-53340000D03*
X111760000Y-53340000D03*
X114300000Y-53340000D03*
X116840000Y-53340000D03*
X119380000Y-53340000D03*
X88900000Y-101600000D03*
X91440000Y-101600000D03*
X96520000Y-101600000D03*
X99060000Y-101600000D03*
X101600000Y-101600000D03*
X111760000Y-101600000D03*
X109220000Y-101600000D03*
X106680000Y-101600000D03*
X114300000Y-101600000D03*
X116840000Y-101600000D03*
X119380000Y-101600000D03*
X119380000Y-55880000D03*
X116840000Y-55880000D03*
X114300000Y-55880000D03*
X111760000Y-55880000D03*
X109220000Y-55880000D03*
X106680000Y-55880000D03*
X104140000Y-55880000D03*
X101600000Y-55880000D03*
X97536000Y-55880000D03*
X94996000Y-55880000D03*
X92456000Y-55880000D03*
X89916000Y-55880000D03*
X87376000Y-55880000D03*
X84836000Y-55880000D03*
X82296000Y-55880000D03*
D11*
X79756000Y-55880000D03*
D10*
X119380000Y-99060000D03*
X116840000Y-99060000D03*
X114300000Y-99060000D03*
X106680000Y-99060000D03*
X109220000Y-99060000D03*
X111760000Y-99060000D03*
X101600000Y-99060000D03*
X99060000Y-99060000D03*
X96520000Y-99060000D03*
X93980000Y-99060000D03*
G04 #@! TD*
G04 #@! TO.C,U3*
X136652000Y-69850000D03*
X139192000Y-69850000D03*
X141732000Y-69850000D03*
X144272000Y-69850000D03*
X146812000Y-69850000D03*
X149352000Y-69850000D03*
X146812000Y-87630000D03*
X144272000Y-87630000D03*
X141732000Y-87630000D03*
X139192000Y-87630000D03*
G04 #@! TD*
D12*
G04 #@! TO.C,SW3*
X166006000Y-51082000D03*
X166006000Y-52832000D03*
X166006000Y-54582000D03*
X171306000Y-54582000D03*
X171306000Y-52832000D03*
X171306000Y-51082000D03*
G04 #@! TD*
D13*
G04 #@! TO.C,U4*
X74676000Y-86628000D03*
X74676000Y-84128000D03*
X74676000Y-81628000D03*
X74676000Y-79128000D03*
X74676000Y-76628000D03*
X74676000Y-74128000D03*
D14*
X74676000Y-71628000D03*
G04 #@! TD*
D15*
G04 #@! TO.C,U1*
X93980000Y-83978001D03*
X93980000Y-83477999D03*
X93980000Y-82978000D03*
X93980000Y-82478001D03*
X93980000Y-81978000D03*
X93980000Y-81478001D03*
X93980000Y-80977999D03*
X93980000Y-80478000D03*
X93980000Y-79978001D03*
X93980000Y-79478000D03*
X93980000Y-78978001D03*
X93980000Y-78477999D03*
X93980000Y-77978000D03*
X93980000Y-77478001D03*
X93980000Y-76977999D03*
X93980000Y-76478000D03*
X93980000Y-75977999D03*
X93980000Y-75478000D03*
X93980000Y-74978001D03*
X93980000Y-74477999D03*
X93980000Y-73978000D03*
X93980000Y-73477999D03*
X93980000Y-72978000D03*
X93980000Y-72478001D03*
X93980000Y-71977999D03*
D16*
X95599999Y-70358000D03*
X96100001Y-70358000D03*
X96600000Y-70358000D03*
X97099999Y-70358000D03*
X97600000Y-70358000D03*
X98099999Y-70358000D03*
X98600001Y-70358000D03*
X99100000Y-70358000D03*
X99599999Y-70358000D03*
X100100000Y-70358000D03*
X100599999Y-70358000D03*
X101100001Y-70358000D03*
X101600000Y-70358000D03*
X102099999Y-70358000D03*
X102600001Y-70358000D03*
X103100000Y-70358000D03*
X103600001Y-70358000D03*
X104100000Y-70358000D03*
X104599999Y-70358000D03*
X105100001Y-70358000D03*
X105600000Y-70358000D03*
X106100001Y-70358000D03*
X106600000Y-70358000D03*
X107099999Y-70358000D03*
X107600001Y-70358000D03*
D15*
X109220000Y-71977999D03*
X109220000Y-72478001D03*
X109220000Y-72978000D03*
X109220000Y-73477999D03*
X109220000Y-73978000D03*
X109220000Y-74477999D03*
X109220000Y-74978001D03*
X109220000Y-75478000D03*
X109220000Y-75977999D03*
X109220000Y-76478000D03*
X109220000Y-76977999D03*
X109220000Y-77478001D03*
X109220000Y-77978000D03*
X109220000Y-78477999D03*
X109220000Y-78978001D03*
X109220000Y-79478000D03*
X109220000Y-79978001D03*
X109220000Y-80478000D03*
X109220000Y-80977999D03*
X109220000Y-81478001D03*
X109220000Y-81978000D03*
X109220000Y-82478001D03*
X109220000Y-82978000D03*
X109220000Y-83477999D03*
X109220000Y-83978001D03*
D16*
X107600001Y-85598000D03*
X107099999Y-85598000D03*
X106600000Y-85598000D03*
X106099999Y-85598000D03*
X105600000Y-85598000D03*
X105100001Y-85598000D03*
X104599999Y-85598000D03*
X104100000Y-85598000D03*
X103599999Y-85598000D03*
X103100000Y-85598000D03*
X102600001Y-85598000D03*
X102099999Y-85598000D03*
X101600000Y-85598000D03*
X101099998Y-85598000D03*
X100599999Y-85598000D03*
X100100000Y-85598000D03*
X99599999Y-85598000D03*
X99100000Y-85598000D03*
X98600001Y-85598000D03*
X98099999Y-85598000D03*
X97600000Y-85598000D03*
X97099999Y-85598000D03*
X96600000Y-85598000D03*
X96100001Y-85598000D03*
X95599999Y-85598000D03*
G04 #@! TD*
D17*
G04 #@! TO.C,J2*
X119380000Y-76200000D03*
X121920000Y-76200000D03*
X119380000Y-78740000D03*
X121920000Y-78740000D03*
X119380000Y-81280000D03*
D18*
X121920000Y-81280000D03*
G04 #@! TD*
D19*
G04 #@! TO.C,J1*
X83820000Y-68580000D03*
X86360000Y-68580000D03*
X83820000Y-71120000D03*
X86360000Y-71120000D03*
X83820000Y-73660000D03*
X86360000Y-73660000D03*
X83820000Y-76200000D03*
X86360000Y-76200000D03*
X83820000Y-78740000D03*
X86360000Y-78740000D03*
X83820000Y-81280000D03*
X86360000Y-81280000D03*
X83820000Y-83820000D03*
X86360000Y-83820000D03*
X83820000Y-86360000D03*
X86360000Y-86360000D03*
X83820000Y-88900000D03*
X86360000Y-88900000D03*
X83820000Y-91440000D03*
D18*
X86360000Y-91440000D03*
G04 #@! TD*
D17*
G04 #@! TO.C,JP2*
X97536000Y-59182000D03*
X94996000Y-59182000D03*
X92456000Y-59182000D03*
X89916000Y-59182000D03*
X87376000Y-59182000D03*
X84836000Y-59182000D03*
X82296000Y-59182000D03*
D18*
X79756000Y-59182000D03*
G04 #@! TD*
D17*
G04 #@! TO.C,JP3*
X119380000Y-50038000D03*
X116840000Y-50038000D03*
X114300000Y-50038000D03*
X111760000Y-50038000D03*
X109220000Y-50038000D03*
X106680000Y-50038000D03*
X104140000Y-50038000D03*
D18*
X101600000Y-50038000D03*
G04 #@! TD*
D20*
G04 #@! TO.C,SW1*
X59779000Y-75220000D03*
X67729000Y-75220000D03*
X67729000Y-79720000D03*
X59779000Y-79720000D03*
G04 #@! TD*
G04 #@! TO.C,SW2*
X59779000Y-67092000D03*
X67729000Y-67092000D03*
X67729000Y-71592000D03*
X59779000Y-71592000D03*
G04 #@! TD*
D17*
G04 #@! TO.C,BT1*
X71120000Y-96012000D03*
D18*
X71120000Y-93472000D03*
G04 #@! TD*
D21*
G04 #@! TO.C,D1*
G36*
X63778207Y-50614542D02*
X63809287Y-50619152D01*
X63839766Y-50626787D01*
X63869350Y-50637372D01*
X63897754Y-50650806D01*
X63924704Y-50666959D01*
X63949942Y-50685677D01*
X63973223Y-50706777D01*
X63994323Y-50730058D01*
X64013041Y-50755296D01*
X64029194Y-50782246D01*
X64042628Y-50810650D01*
X64053213Y-50840234D01*
X64060848Y-50870713D01*
X64065458Y-50901793D01*
X64067000Y-50933176D01*
X64067000Y-52117824D01*
X64065458Y-52149207D01*
X64060848Y-52180287D01*
X64053213Y-52210766D01*
X64042628Y-52240350D01*
X64029194Y-52268754D01*
X64013041Y-52295704D01*
X63994323Y-52320942D01*
X63973223Y-52344223D01*
X63949942Y-52365323D01*
X63924704Y-52384041D01*
X63897754Y-52400194D01*
X63869350Y-52413628D01*
X63839766Y-52424213D01*
X63809287Y-52431848D01*
X63778207Y-52436458D01*
X63746824Y-52438000D01*
X62237176Y-52438000D01*
X62205793Y-52436458D01*
X62174713Y-52431848D01*
X62144234Y-52424213D01*
X62114650Y-52413628D01*
X62086246Y-52400194D01*
X62059296Y-52384041D01*
X62034058Y-52365323D01*
X62010777Y-52344223D01*
X61989677Y-52320942D01*
X61970959Y-52295704D01*
X61954806Y-52268754D01*
X61941372Y-52240350D01*
X61930787Y-52210766D01*
X61923152Y-52180287D01*
X61918542Y-52149207D01*
X61917000Y-52117824D01*
X61917000Y-50933176D01*
X61918542Y-50901793D01*
X61923152Y-50870713D01*
X61930787Y-50840234D01*
X61941372Y-50810650D01*
X61954806Y-50782246D01*
X61970959Y-50755296D01*
X61989677Y-50730058D01*
X62010777Y-50706777D01*
X62034058Y-50685677D01*
X62059296Y-50666959D01*
X62086246Y-50650806D01*
X62114650Y-50637372D01*
X62144234Y-50626787D01*
X62174713Y-50619152D01*
X62205793Y-50614542D01*
X62237176Y-50613000D01*
X63746824Y-50613000D01*
X63778207Y-50614542D01*
X63778207Y-50614542D01*
G37*
D22*
X62992000Y-51525500D03*
D21*
G36*
X63778207Y-47639542D02*
X63809287Y-47644152D01*
X63839766Y-47651787D01*
X63869350Y-47662372D01*
X63897754Y-47675806D01*
X63924704Y-47691959D01*
X63949942Y-47710677D01*
X63973223Y-47731777D01*
X63994323Y-47755058D01*
X64013041Y-47780296D01*
X64029194Y-47807246D01*
X64042628Y-47835650D01*
X64053213Y-47865234D01*
X64060848Y-47895713D01*
X64065458Y-47926793D01*
X64067000Y-47958176D01*
X64067000Y-49142824D01*
X64065458Y-49174207D01*
X64060848Y-49205287D01*
X64053213Y-49235766D01*
X64042628Y-49265350D01*
X64029194Y-49293754D01*
X64013041Y-49320704D01*
X63994323Y-49345942D01*
X63973223Y-49369223D01*
X63949942Y-49390323D01*
X63924704Y-49409041D01*
X63897754Y-49425194D01*
X63869350Y-49438628D01*
X63839766Y-49449213D01*
X63809287Y-49456848D01*
X63778207Y-49461458D01*
X63746824Y-49463000D01*
X62237176Y-49463000D01*
X62205793Y-49461458D01*
X62174713Y-49456848D01*
X62144234Y-49449213D01*
X62114650Y-49438628D01*
X62086246Y-49425194D01*
X62059296Y-49409041D01*
X62034058Y-49390323D01*
X62010777Y-49369223D01*
X61989677Y-49345942D01*
X61970959Y-49320704D01*
X61954806Y-49293754D01*
X61941372Y-49265350D01*
X61930787Y-49235766D01*
X61923152Y-49205287D01*
X61918542Y-49174207D01*
X61917000Y-49142824D01*
X61917000Y-47958176D01*
X61918542Y-47926793D01*
X61923152Y-47895713D01*
X61930787Y-47865234D01*
X61941372Y-47835650D01*
X61954806Y-47807246D01*
X61970959Y-47780296D01*
X61989677Y-47755058D01*
X62010777Y-47731777D01*
X62034058Y-47710677D01*
X62059296Y-47691959D01*
X62086246Y-47675806D01*
X62114650Y-47662372D01*
X62144234Y-47651787D01*
X62174713Y-47644152D01*
X62205793Y-47639542D01*
X62237176Y-47638000D01*
X63746824Y-47638000D01*
X63778207Y-47639542D01*
X63778207Y-47639542D01*
G37*
D22*
X62992000Y-48550500D03*
G04 #@! TD*
D21*
G04 #@! TO.C,D2*
G36*
X61238207Y-50614542D02*
X61269287Y-50619152D01*
X61299766Y-50626787D01*
X61329350Y-50637372D01*
X61357754Y-50650806D01*
X61384704Y-50666959D01*
X61409942Y-50685677D01*
X61433223Y-50706777D01*
X61454323Y-50730058D01*
X61473041Y-50755296D01*
X61489194Y-50782246D01*
X61502628Y-50810650D01*
X61513213Y-50840234D01*
X61520848Y-50870713D01*
X61525458Y-50901793D01*
X61527000Y-50933176D01*
X61527000Y-52117824D01*
X61525458Y-52149207D01*
X61520848Y-52180287D01*
X61513213Y-52210766D01*
X61502628Y-52240350D01*
X61489194Y-52268754D01*
X61473041Y-52295704D01*
X61454323Y-52320942D01*
X61433223Y-52344223D01*
X61409942Y-52365323D01*
X61384704Y-52384041D01*
X61357754Y-52400194D01*
X61329350Y-52413628D01*
X61299766Y-52424213D01*
X61269287Y-52431848D01*
X61238207Y-52436458D01*
X61206824Y-52438000D01*
X59697176Y-52438000D01*
X59665793Y-52436458D01*
X59634713Y-52431848D01*
X59604234Y-52424213D01*
X59574650Y-52413628D01*
X59546246Y-52400194D01*
X59519296Y-52384041D01*
X59494058Y-52365323D01*
X59470777Y-52344223D01*
X59449677Y-52320942D01*
X59430959Y-52295704D01*
X59414806Y-52268754D01*
X59401372Y-52240350D01*
X59390787Y-52210766D01*
X59383152Y-52180287D01*
X59378542Y-52149207D01*
X59377000Y-52117824D01*
X59377000Y-50933176D01*
X59378542Y-50901793D01*
X59383152Y-50870713D01*
X59390787Y-50840234D01*
X59401372Y-50810650D01*
X59414806Y-50782246D01*
X59430959Y-50755296D01*
X59449677Y-50730058D01*
X59470777Y-50706777D01*
X59494058Y-50685677D01*
X59519296Y-50666959D01*
X59546246Y-50650806D01*
X59574650Y-50637372D01*
X59604234Y-50626787D01*
X59634713Y-50619152D01*
X59665793Y-50614542D01*
X59697176Y-50613000D01*
X61206824Y-50613000D01*
X61238207Y-50614542D01*
X61238207Y-50614542D01*
G37*
D22*
X60452000Y-51525500D03*
D21*
G36*
X61238207Y-47639542D02*
X61269287Y-47644152D01*
X61299766Y-47651787D01*
X61329350Y-47662372D01*
X61357754Y-47675806D01*
X61384704Y-47691959D01*
X61409942Y-47710677D01*
X61433223Y-47731777D01*
X61454323Y-47755058D01*
X61473041Y-47780296D01*
X61489194Y-47807246D01*
X61502628Y-47835650D01*
X61513213Y-47865234D01*
X61520848Y-47895713D01*
X61525458Y-47926793D01*
X61527000Y-47958176D01*
X61527000Y-49142824D01*
X61525458Y-49174207D01*
X61520848Y-49205287D01*
X61513213Y-49235766D01*
X61502628Y-49265350D01*
X61489194Y-49293754D01*
X61473041Y-49320704D01*
X61454323Y-49345942D01*
X61433223Y-49369223D01*
X61409942Y-49390323D01*
X61384704Y-49409041D01*
X61357754Y-49425194D01*
X61329350Y-49438628D01*
X61299766Y-49449213D01*
X61269287Y-49456848D01*
X61238207Y-49461458D01*
X61206824Y-49463000D01*
X59697176Y-49463000D01*
X59665793Y-49461458D01*
X59634713Y-49456848D01*
X59604234Y-49449213D01*
X59574650Y-49438628D01*
X59546246Y-49425194D01*
X59519296Y-49409041D01*
X59494058Y-49390323D01*
X59470777Y-49369223D01*
X59449677Y-49345942D01*
X59430959Y-49320704D01*
X59414806Y-49293754D01*
X59401372Y-49265350D01*
X59390787Y-49235766D01*
X59383152Y-49205287D01*
X59378542Y-49174207D01*
X59377000Y-49142824D01*
X59377000Y-47958176D01*
X59378542Y-47926793D01*
X59383152Y-47895713D01*
X59390787Y-47865234D01*
X59401372Y-47835650D01*
X59414806Y-47807246D01*
X59430959Y-47780296D01*
X59449677Y-47755058D01*
X59470777Y-47731777D01*
X59494058Y-47710677D01*
X59519296Y-47691959D01*
X59546246Y-47675806D01*
X59574650Y-47662372D01*
X59604234Y-47651787D01*
X59634713Y-47644152D01*
X59665793Y-47639542D01*
X59697176Y-47638000D01*
X61206824Y-47638000D01*
X61238207Y-47639542D01*
X61238207Y-47639542D01*
G37*
D22*
X60452000Y-48550500D03*
G04 #@! TD*
D21*
G04 #@! TO.C,D3*
G36*
X68858207Y-50614542D02*
X68889287Y-50619152D01*
X68919766Y-50626787D01*
X68949350Y-50637372D01*
X68977754Y-50650806D01*
X69004704Y-50666959D01*
X69029942Y-50685677D01*
X69053223Y-50706777D01*
X69074323Y-50730058D01*
X69093041Y-50755296D01*
X69109194Y-50782246D01*
X69122628Y-50810650D01*
X69133213Y-50840234D01*
X69140848Y-50870713D01*
X69145458Y-50901793D01*
X69147000Y-50933176D01*
X69147000Y-52117824D01*
X69145458Y-52149207D01*
X69140848Y-52180287D01*
X69133213Y-52210766D01*
X69122628Y-52240350D01*
X69109194Y-52268754D01*
X69093041Y-52295704D01*
X69074323Y-52320942D01*
X69053223Y-52344223D01*
X69029942Y-52365323D01*
X69004704Y-52384041D01*
X68977754Y-52400194D01*
X68949350Y-52413628D01*
X68919766Y-52424213D01*
X68889287Y-52431848D01*
X68858207Y-52436458D01*
X68826824Y-52438000D01*
X67317176Y-52438000D01*
X67285793Y-52436458D01*
X67254713Y-52431848D01*
X67224234Y-52424213D01*
X67194650Y-52413628D01*
X67166246Y-52400194D01*
X67139296Y-52384041D01*
X67114058Y-52365323D01*
X67090777Y-52344223D01*
X67069677Y-52320942D01*
X67050959Y-52295704D01*
X67034806Y-52268754D01*
X67021372Y-52240350D01*
X67010787Y-52210766D01*
X67003152Y-52180287D01*
X66998542Y-52149207D01*
X66997000Y-52117824D01*
X66997000Y-50933176D01*
X66998542Y-50901793D01*
X67003152Y-50870713D01*
X67010787Y-50840234D01*
X67021372Y-50810650D01*
X67034806Y-50782246D01*
X67050959Y-50755296D01*
X67069677Y-50730058D01*
X67090777Y-50706777D01*
X67114058Y-50685677D01*
X67139296Y-50666959D01*
X67166246Y-50650806D01*
X67194650Y-50637372D01*
X67224234Y-50626787D01*
X67254713Y-50619152D01*
X67285793Y-50614542D01*
X67317176Y-50613000D01*
X68826824Y-50613000D01*
X68858207Y-50614542D01*
X68858207Y-50614542D01*
G37*
D22*
X68072000Y-51525500D03*
D21*
G36*
X68858207Y-47639542D02*
X68889287Y-47644152D01*
X68919766Y-47651787D01*
X68949350Y-47662372D01*
X68977754Y-47675806D01*
X69004704Y-47691959D01*
X69029942Y-47710677D01*
X69053223Y-47731777D01*
X69074323Y-47755058D01*
X69093041Y-47780296D01*
X69109194Y-47807246D01*
X69122628Y-47835650D01*
X69133213Y-47865234D01*
X69140848Y-47895713D01*
X69145458Y-47926793D01*
X69147000Y-47958176D01*
X69147000Y-49142824D01*
X69145458Y-49174207D01*
X69140848Y-49205287D01*
X69133213Y-49235766D01*
X69122628Y-49265350D01*
X69109194Y-49293754D01*
X69093041Y-49320704D01*
X69074323Y-49345942D01*
X69053223Y-49369223D01*
X69029942Y-49390323D01*
X69004704Y-49409041D01*
X68977754Y-49425194D01*
X68949350Y-49438628D01*
X68919766Y-49449213D01*
X68889287Y-49456848D01*
X68858207Y-49461458D01*
X68826824Y-49463000D01*
X67317176Y-49463000D01*
X67285793Y-49461458D01*
X67254713Y-49456848D01*
X67224234Y-49449213D01*
X67194650Y-49438628D01*
X67166246Y-49425194D01*
X67139296Y-49409041D01*
X67114058Y-49390323D01*
X67090777Y-49369223D01*
X67069677Y-49345942D01*
X67050959Y-49320704D01*
X67034806Y-49293754D01*
X67021372Y-49265350D01*
X67010787Y-49235766D01*
X67003152Y-49205287D01*
X66998542Y-49174207D01*
X66997000Y-49142824D01*
X66997000Y-47958176D01*
X66998542Y-47926793D01*
X67003152Y-47895713D01*
X67010787Y-47865234D01*
X67021372Y-47835650D01*
X67034806Y-47807246D01*
X67050959Y-47780296D01*
X67069677Y-47755058D01*
X67090777Y-47731777D01*
X67114058Y-47710677D01*
X67139296Y-47691959D01*
X67166246Y-47675806D01*
X67194650Y-47662372D01*
X67224234Y-47651787D01*
X67254713Y-47644152D01*
X67285793Y-47639542D01*
X67317176Y-47638000D01*
X68826824Y-47638000D01*
X68858207Y-47639542D01*
X68858207Y-47639542D01*
G37*
D22*
X68072000Y-48550500D03*
G04 #@! TD*
D21*
G04 #@! TO.C,D4*
G36*
X66318207Y-50614542D02*
X66349287Y-50619152D01*
X66379766Y-50626787D01*
X66409350Y-50637372D01*
X66437754Y-50650806D01*
X66464704Y-50666959D01*
X66489942Y-50685677D01*
X66513223Y-50706777D01*
X66534323Y-50730058D01*
X66553041Y-50755296D01*
X66569194Y-50782246D01*
X66582628Y-50810650D01*
X66593213Y-50840234D01*
X66600848Y-50870713D01*
X66605458Y-50901793D01*
X66607000Y-50933176D01*
X66607000Y-52117824D01*
X66605458Y-52149207D01*
X66600848Y-52180287D01*
X66593213Y-52210766D01*
X66582628Y-52240350D01*
X66569194Y-52268754D01*
X66553041Y-52295704D01*
X66534323Y-52320942D01*
X66513223Y-52344223D01*
X66489942Y-52365323D01*
X66464704Y-52384041D01*
X66437754Y-52400194D01*
X66409350Y-52413628D01*
X66379766Y-52424213D01*
X66349287Y-52431848D01*
X66318207Y-52436458D01*
X66286824Y-52438000D01*
X64777176Y-52438000D01*
X64745793Y-52436458D01*
X64714713Y-52431848D01*
X64684234Y-52424213D01*
X64654650Y-52413628D01*
X64626246Y-52400194D01*
X64599296Y-52384041D01*
X64574058Y-52365323D01*
X64550777Y-52344223D01*
X64529677Y-52320942D01*
X64510959Y-52295704D01*
X64494806Y-52268754D01*
X64481372Y-52240350D01*
X64470787Y-52210766D01*
X64463152Y-52180287D01*
X64458542Y-52149207D01*
X64457000Y-52117824D01*
X64457000Y-50933176D01*
X64458542Y-50901793D01*
X64463152Y-50870713D01*
X64470787Y-50840234D01*
X64481372Y-50810650D01*
X64494806Y-50782246D01*
X64510959Y-50755296D01*
X64529677Y-50730058D01*
X64550777Y-50706777D01*
X64574058Y-50685677D01*
X64599296Y-50666959D01*
X64626246Y-50650806D01*
X64654650Y-50637372D01*
X64684234Y-50626787D01*
X64714713Y-50619152D01*
X64745793Y-50614542D01*
X64777176Y-50613000D01*
X66286824Y-50613000D01*
X66318207Y-50614542D01*
X66318207Y-50614542D01*
G37*
D22*
X65532000Y-51525500D03*
D21*
G36*
X66318207Y-47639542D02*
X66349287Y-47644152D01*
X66379766Y-47651787D01*
X66409350Y-47662372D01*
X66437754Y-47675806D01*
X66464704Y-47691959D01*
X66489942Y-47710677D01*
X66513223Y-47731777D01*
X66534323Y-47755058D01*
X66553041Y-47780296D01*
X66569194Y-47807246D01*
X66582628Y-47835650D01*
X66593213Y-47865234D01*
X66600848Y-47895713D01*
X66605458Y-47926793D01*
X66607000Y-47958176D01*
X66607000Y-49142824D01*
X66605458Y-49174207D01*
X66600848Y-49205287D01*
X66593213Y-49235766D01*
X66582628Y-49265350D01*
X66569194Y-49293754D01*
X66553041Y-49320704D01*
X66534323Y-49345942D01*
X66513223Y-49369223D01*
X66489942Y-49390323D01*
X66464704Y-49409041D01*
X66437754Y-49425194D01*
X66409350Y-49438628D01*
X66379766Y-49449213D01*
X66349287Y-49456848D01*
X66318207Y-49461458D01*
X66286824Y-49463000D01*
X64777176Y-49463000D01*
X64745793Y-49461458D01*
X64714713Y-49456848D01*
X64684234Y-49449213D01*
X64654650Y-49438628D01*
X64626246Y-49425194D01*
X64599296Y-49409041D01*
X64574058Y-49390323D01*
X64550777Y-49369223D01*
X64529677Y-49345942D01*
X64510959Y-49320704D01*
X64494806Y-49293754D01*
X64481372Y-49265350D01*
X64470787Y-49235766D01*
X64463152Y-49205287D01*
X64458542Y-49174207D01*
X64457000Y-49142824D01*
X64457000Y-47958176D01*
X64458542Y-47926793D01*
X64463152Y-47895713D01*
X64470787Y-47865234D01*
X64481372Y-47835650D01*
X64494806Y-47807246D01*
X64510959Y-47780296D01*
X64529677Y-47755058D01*
X64550777Y-47731777D01*
X64574058Y-47710677D01*
X64599296Y-47691959D01*
X64626246Y-47675806D01*
X64654650Y-47662372D01*
X64684234Y-47651787D01*
X64714713Y-47644152D01*
X64745793Y-47639542D01*
X64777176Y-47638000D01*
X66286824Y-47638000D01*
X66318207Y-47639542D01*
X66318207Y-47639542D01*
G37*
D22*
X65532000Y-48550500D03*
G04 #@! TD*
D21*
G04 #@! TO.C,R1*
G36*
X73938207Y-64584542D02*
X73969287Y-64589152D01*
X73999766Y-64596787D01*
X74029350Y-64607372D01*
X74057754Y-64620806D01*
X74084704Y-64636959D01*
X74109942Y-64655677D01*
X74133223Y-64676777D01*
X74154323Y-64700058D01*
X74173041Y-64725296D01*
X74189194Y-64752246D01*
X74202628Y-64780650D01*
X74213213Y-64810234D01*
X74220848Y-64840713D01*
X74225458Y-64871793D01*
X74227000Y-64903176D01*
X74227000Y-66087824D01*
X74225458Y-66119207D01*
X74220848Y-66150287D01*
X74213213Y-66180766D01*
X74202628Y-66210350D01*
X74189194Y-66238754D01*
X74173041Y-66265704D01*
X74154323Y-66290942D01*
X74133223Y-66314223D01*
X74109942Y-66335323D01*
X74084704Y-66354041D01*
X74057754Y-66370194D01*
X74029350Y-66383628D01*
X73999766Y-66394213D01*
X73969287Y-66401848D01*
X73938207Y-66406458D01*
X73906824Y-66408000D01*
X72397176Y-66408000D01*
X72365793Y-66406458D01*
X72334713Y-66401848D01*
X72304234Y-66394213D01*
X72274650Y-66383628D01*
X72246246Y-66370194D01*
X72219296Y-66354041D01*
X72194058Y-66335323D01*
X72170777Y-66314223D01*
X72149677Y-66290942D01*
X72130959Y-66265704D01*
X72114806Y-66238754D01*
X72101372Y-66210350D01*
X72090787Y-66180766D01*
X72083152Y-66150287D01*
X72078542Y-66119207D01*
X72077000Y-66087824D01*
X72077000Y-64903176D01*
X72078542Y-64871793D01*
X72083152Y-64840713D01*
X72090787Y-64810234D01*
X72101372Y-64780650D01*
X72114806Y-64752246D01*
X72130959Y-64725296D01*
X72149677Y-64700058D01*
X72170777Y-64676777D01*
X72194058Y-64655677D01*
X72219296Y-64636959D01*
X72246246Y-64620806D01*
X72274650Y-64607372D01*
X72304234Y-64596787D01*
X72334713Y-64589152D01*
X72365793Y-64584542D01*
X72397176Y-64583000D01*
X73906824Y-64583000D01*
X73938207Y-64584542D01*
X73938207Y-64584542D01*
G37*
D22*
X73152000Y-65495500D03*
D21*
G36*
X73938207Y-61609542D02*
X73969287Y-61614152D01*
X73999766Y-61621787D01*
X74029350Y-61632372D01*
X74057754Y-61645806D01*
X74084704Y-61661959D01*
X74109942Y-61680677D01*
X74133223Y-61701777D01*
X74154323Y-61725058D01*
X74173041Y-61750296D01*
X74189194Y-61777246D01*
X74202628Y-61805650D01*
X74213213Y-61835234D01*
X74220848Y-61865713D01*
X74225458Y-61896793D01*
X74227000Y-61928176D01*
X74227000Y-63112824D01*
X74225458Y-63144207D01*
X74220848Y-63175287D01*
X74213213Y-63205766D01*
X74202628Y-63235350D01*
X74189194Y-63263754D01*
X74173041Y-63290704D01*
X74154323Y-63315942D01*
X74133223Y-63339223D01*
X74109942Y-63360323D01*
X74084704Y-63379041D01*
X74057754Y-63395194D01*
X74029350Y-63408628D01*
X73999766Y-63419213D01*
X73969287Y-63426848D01*
X73938207Y-63431458D01*
X73906824Y-63433000D01*
X72397176Y-63433000D01*
X72365793Y-63431458D01*
X72334713Y-63426848D01*
X72304234Y-63419213D01*
X72274650Y-63408628D01*
X72246246Y-63395194D01*
X72219296Y-63379041D01*
X72194058Y-63360323D01*
X72170777Y-63339223D01*
X72149677Y-63315942D01*
X72130959Y-63290704D01*
X72114806Y-63263754D01*
X72101372Y-63235350D01*
X72090787Y-63205766D01*
X72083152Y-63175287D01*
X72078542Y-63144207D01*
X72077000Y-63112824D01*
X72077000Y-61928176D01*
X72078542Y-61896793D01*
X72083152Y-61865713D01*
X72090787Y-61835234D01*
X72101372Y-61805650D01*
X72114806Y-61777246D01*
X72130959Y-61750296D01*
X72149677Y-61725058D01*
X72170777Y-61701777D01*
X72194058Y-61680677D01*
X72219296Y-61661959D01*
X72246246Y-61645806D01*
X72274650Y-61632372D01*
X72304234Y-61621787D01*
X72334713Y-61614152D01*
X72365793Y-61609542D01*
X72397176Y-61608000D01*
X73906824Y-61608000D01*
X73938207Y-61609542D01*
X73938207Y-61609542D01*
G37*
D22*
X73152000Y-62520500D03*
G04 #@! TD*
D21*
G04 #@! TO.C,R2*
G36*
X71398207Y-64584542D02*
X71429287Y-64589152D01*
X71459766Y-64596787D01*
X71489350Y-64607372D01*
X71517754Y-64620806D01*
X71544704Y-64636959D01*
X71569942Y-64655677D01*
X71593223Y-64676777D01*
X71614323Y-64700058D01*
X71633041Y-64725296D01*
X71649194Y-64752246D01*
X71662628Y-64780650D01*
X71673213Y-64810234D01*
X71680848Y-64840713D01*
X71685458Y-64871793D01*
X71687000Y-64903176D01*
X71687000Y-66087824D01*
X71685458Y-66119207D01*
X71680848Y-66150287D01*
X71673213Y-66180766D01*
X71662628Y-66210350D01*
X71649194Y-66238754D01*
X71633041Y-66265704D01*
X71614323Y-66290942D01*
X71593223Y-66314223D01*
X71569942Y-66335323D01*
X71544704Y-66354041D01*
X71517754Y-66370194D01*
X71489350Y-66383628D01*
X71459766Y-66394213D01*
X71429287Y-66401848D01*
X71398207Y-66406458D01*
X71366824Y-66408000D01*
X69857176Y-66408000D01*
X69825793Y-66406458D01*
X69794713Y-66401848D01*
X69764234Y-66394213D01*
X69734650Y-66383628D01*
X69706246Y-66370194D01*
X69679296Y-66354041D01*
X69654058Y-66335323D01*
X69630777Y-66314223D01*
X69609677Y-66290942D01*
X69590959Y-66265704D01*
X69574806Y-66238754D01*
X69561372Y-66210350D01*
X69550787Y-66180766D01*
X69543152Y-66150287D01*
X69538542Y-66119207D01*
X69537000Y-66087824D01*
X69537000Y-64903176D01*
X69538542Y-64871793D01*
X69543152Y-64840713D01*
X69550787Y-64810234D01*
X69561372Y-64780650D01*
X69574806Y-64752246D01*
X69590959Y-64725296D01*
X69609677Y-64700058D01*
X69630777Y-64676777D01*
X69654058Y-64655677D01*
X69679296Y-64636959D01*
X69706246Y-64620806D01*
X69734650Y-64607372D01*
X69764234Y-64596787D01*
X69794713Y-64589152D01*
X69825793Y-64584542D01*
X69857176Y-64583000D01*
X71366824Y-64583000D01*
X71398207Y-64584542D01*
X71398207Y-64584542D01*
G37*
D22*
X70612000Y-65495500D03*
D21*
G36*
X71398207Y-61609542D02*
X71429287Y-61614152D01*
X71459766Y-61621787D01*
X71489350Y-61632372D01*
X71517754Y-61645806D01*
X71544704Y-61661959D01*
X71569942Y-61680677D01*
X71593223Y-61701777D01*
X71614323Y-61725058D01*
X71633041Y-61750296D01*
X71649194Y-61777246D01*
X71662628Y-61805650D01*
X71673213Y-61835234D01*
X71680848Y-61865713D01*
X71685458Y-61896793D01*
X71687000Y-61928176D01*
X71687000Y-63112824D01*
X71685458Y-63144207D01*
X71680848Y-63175287D01*
X71673213Y-63205766D01*
X71662628Y-63235350D01*
X71649194Y-63263754D01*
X71633041Y-63290704D01*
X71614323Y-63315942D01*
X71593223Y-63339223D01*
X71569942Y-63360323D01*
X71544704Y-63379041D01*
X71517754Y-63395194D01*
X71489350Y-63408628D01*
X71459766Y-63419213D01*
X71429287Y-63426848D01*
X71398207Y-63431458D01*
X71366824Y-63433000D01*
X69857176Y-63433000D01*
X69825793Y-63431458D01*
X69794713Y-63426848D01*
X69764234Y-63419213D01*
X69734650Y-63408628D01*
X69706246Y-63395194D01*
X69679296Y-63379041D01*
X69654058Y-63360323D01*
X69630777Y-63339223D01*
X69609677Y-63315942D01*
X69590959Y-63290704D01*
X69574806Y-63263754D01*
X69561372Y-63235350D01*
X69550787Y-63205766D01*
X69543152Y-63175287D01*
X69538542Y-63144207D01*
X69537000Y-63112824D01*
X69537000Y-61928176D01*
X69538542Y-61896793D01*
X69543152Y-61865713D01*
X69550787Y-61835234D01*
X69561372Y-61805650D01*
X69574806Y-61777246D01*
X69590959Y-61750296D01*
X69609677Y-61725058D01*
X69630777Y-61701777D01*
X69654058Y-61680677D01*
X69679296Y-61661959D01*
X69706246Y-61645806D01*
X69734650Y-61632372D01*
X69764234Y-61621787D01*
X69794713Y-61614152D01*
X69825793Y-61609542D01*
X69857176Y-61608000D01*
X71366824Y-61608000D01*
X71398207Y-61609542D01*
X71398207Y-61609542D01*
G37*
D22*
X70612000Y-62520500D03*
G04 #@! TD*
D21*
G04 #@! TO.C,R3*
G36*
X63778207Y-54243542D02*
X63809287Y-54248152D01*
X63839766Y-54255787D01*
X63869350Y-54266372D01*
X63897754Y-54279806D01*
X63924704Y-54295959D01*
X63949942Y-54314677D01*
X63973223Y-54335777D01*
X63994323Y-54359058D01*
X64013041Y-54384296D01*
X64029194Y-54411246D01*
X64042628Y-54439650D01*
X64053213Y-54469234D01*
X64060848Y-54499713D01*
X64065458Y-54530793D01*
X64067000Y-54562176D01*
X64067000Y-55746824D01*
X64065458Y-55778207D01*
X64060848Y-55809287D01*
X64053213Y-55839766D01*
X64042628Y-55869350D01*
X64029194Y-55897754D01*
X64013041Y-55924704D01*
X63994323Y-55949942D01*
X63973223Y-55973223D01*
X63949942Y-55994323D01*
X63924704Y-56013041D01*
X63897754Y-56029194D01*
X63869350Y-56042628D01*
X63839766Y-56053213D01*
X63809287Y-56060848D01*
X63778207Y-56065458D01*
X63746824Y-56067000D01*
X62237176Y-56067000D01*
X62205793Y-56065458D01*
X62174713Y-56060848D01*
X62144234Y-56053213D01*
X62114650Y-56042628D01*
X62086246Y-56029194D01*
X62059296Y-56013041D01*
X62034058Y-55994323D01*
X62010777Y-55973223D01*
X61989677Y-55949942D01*
X61970959Y-55924704D01*
X61954806Y-55897754D01*
X61941372Y-55869350D01*
X61930787Y-55839766D01*
X61923152Y-55809287D01*
X61918542Y-55778207D01*
X61917000Y-55746824D01*
X61917000Y-54562176D01*
X61918542Y-54530793D01*
X61923152Y-54499713D01*
X61930787Y-54469234D01*
X61941372Y-54439650D01*
X61954806Y-54411246D01*
X61970959Y-54384296D01*
X61989677Y-54359058D01*
X62010777Y-54335777D01*
X62034058Y-54314677D01*
X62059296Y-54295959D01*
X62086246Y-54279806D01*
X62114650Y-54266372D01*
X62144234Y-54255787D01*
X62174713Y-54248152D01*
X62205793Y-54243542D01*
X62237176Y-54242000D01*
X63746824Y-54242000D01*
X63778207Y-54243542D01*
X63778207Y-54243542D01*
G37*
D22*
X62992000Y-55154500D03*
D21*
G36*
X63778207Y-57218542D02*
X63809287Y-57223152D01*
X63839766Y-57230787D01*
X63869350Y-57241372D01*
X63897754Y-57254806D01*
X63924704Y-57270959D01*
X63949942Y-57289677D01*
X63973223Y-57310777D01*
X63994323Y-57334058D01*
X64013041Y-57359296D01*
X64029194Y-57386246D01*
X64042628Y-57414650D01*
X64053213Y-57444234D01*
X64060848Y-57474713D01*
X64065458Y-57505793D01*
X64067000Y-57537176D01*
X64067000Y-58721824D01*
X64065458Y-58753207D01*
X64060848Y-58784287D01*
X64053213Y-58814766D01*
X64042628Y-58844350D01*
X64029194Y-58872754D01*
X64013041Y-58899704D01*
X63994323Y-58924942D01*
X63973223Y-58948223D01*
X63949942Y-58969323D01*
X63924704Y-58988041D01*
X63897754Y-59004194D01*
X63869350Y-59017628D01*
X63839766Y-59028213D01*
X63809287Y-59035848D01*
X63778207Y-59040458D01*
X63746824Y-59042000D01*
X62237176Y-59042000D01*
X62205793Y-59040458D01*
X62174713Y-59035848D01*
X62144234Y-59028213D01*
X62114650Y-59017628D01*
X62086246Y-59004194D01*
X62059296Y-58988041D01*
X62034058Y-58969323D01*
X62010777Y-58948223D01*
X61989677Y-58924942D01*
X61970959Y-58899704D01*
X61954806Y-58872754D01*
X61941372Y-58844350D01*
X61930787Y-58814766D01*
X61923152Y-58784287D01*
X61918542Y-58753207D01*
X61917000Y-58721824D01*
X61917000Y-57537176D01*
X61918542Y-57505793D01*
X61923152Y-57474713D01*
X61930787Y-57444234D01*
X61941372Y-57414650D01*
X61954806Y-57386246D01*
X61970959Y-57359296D01*
X61989677Y-57334058D01*
X62010777Y-57310777D01*
X62034058Y-57289677D01*
X62059296Y-57270959D01*
X62086246Y-57254806D01*
X62114650Y-57241372D01*
X62144234Y-57230787D01*
X62174713Y-57223152D01*
X62205793Y-57218542D01*
X62237176Y-57217000D01*
X63746824Y-57217000D01*
X63778207Y-57218542D01*
X63778207Y-57218542D01*
G37*
D22*
X62992000Y-58129500D03*
G04 #@! TD*
D21*
G04 #@! TO.C,R4*
G36*
X61238207Y-54243542D02*
X61269287Y-54248152D01*
X61299766Y-54255787D01*
X61329350Y-54266372D01*
X61357754Y-54279806D01*
X61384704Y-54295959D01*
X61409942Y-54314677D01*
X61433223Y-54335777D01*
X61454323Y-54359058D01*
X61473041Y-54384296D01*
X61489194Y-54411246D01*
X61502628Y-54439650D01*
X61513213Y-54469234D01*
X61520848Y-54499713D01*
X61525458Y-54530793D01*
X61527000Y-54562176D01*
X61527000Y-55746824D01*
X61525458Y-55778207D01*
X61520848Y-55809287D01*
X61513213Y-55839766D01*
X61502628Y-55869350D01*
X61489194Y-55897754D01*
X61473041Y-55924704D01*
X61454323Y-55949942D01*
X61433223Y-55973223D01*
X61409942Y-55994323D01*
X61384704Y-56013041D01*
X61357754Y-56029194D01*
X61329350Y-56042628D01*
X61299766Y-56053213D01*
X61269287Y-56060848D01*
X61238207Y-56065458D01*
X61206824Y-56067000D01*
X59697176Y-56067000D01*
X59665793Y-56065458D01*
X59634713Y-56060848D01*
X59604234Y-56053213D01*
X59574650Y-56042628D01*
X59546246Y-56029194D01*
X59519296Y-56013041D01*
X59494058Y-55994323D01*
X59470777Y-55973223D01*
X59449677Y-55949942D01*
X59430959Y-55924704D01*
X59414806Y-55897754D01*
X59401372Y-55869350D01*
X59390787Y-55839766D01*
X59383152Y-55809287D01*
X59378542Y-55778207D01*
X59377000Y-55746824D01*
X59377000Y-54562176D01*
X59378542Y-54530793D01*
X59383152Y-54499713D01*
X59390787Y-54469234D01*
X59401372Y-54439650D01*
X59414806Y-54411246D01*
X59430959Y-54384296D01*
X59449677Y-54359058D01*
X59470777Y-54335777D01*
X59494058Y-54314677D01*
X59519296Y-54295959D01*
X59546246Y-54279806D01*
X59574650Y-54266372D01*
X59604234Y-54255787D01*
X59634713Y-54248152D01*
X59665793Y-54243542D01*
X59697176Y-54242000D01*
X61206824Y-54242000D01*
X61238207Y-54243542D01*
X61238207Y-54243542D01*
G37*
D22*
X60452000Y-55154500D03*
D21*
G36*
X61238207Y-57218542D02*
X61269287Y-57223152D01*
X61299766Y-57230787D01*
X61329350Y-57241372D01*
X61357754Y-57254806D01*
X61384704Y-57270959D01*
X61409942Y-57289677D01*
X61433223Y-57310777D01*
X61454323Y-57334058D01*
X61473041Y-57359296D01*
X61489194Y-57386246D01*
X61502628Y-57414650D01*
X61513213Y-57444234D01*
X61520848Y-57474713D01*
X61525458Y-57505793D01*
X61527000Y-57537176D01*
X61527000Y-58721824D01*
X61525458Y-58753207D01*
X61520848Y-58784287D01*
X61513213Y-58814766D01*
X61502628Y-58844350D01*
X61489194Y-58872754D01*
X61473041Y-58899704D01*
X61454323Y-58924942D01*
X61433223Y-58948223D01*
X61409942Y-58969323D01*
X61384704Y-58988041D01*
X61357754Y-59004194D01*
X61329350Y-59017628D01*
X61299766Y-59028213D01*
X61269287Y-59035848D01*
X61238207Y-59040458D01*
X61206824Y-59042000D01*
X59697176Y-59042000D01*
X59665793Y-59040458D01*
X59634713Y-59035848D01*
X59604234Y-59028213D01*
X59574650Y-59017628D01*
X59546246Y-59004194D01*
X59519296Y-58988041D01*
X59494058Y-58969323D01*
X59470777Y-58948223D01*
X59449677Y-58924942D01*
X59430959Y-58899704D01*
X59414806Y-58872754D01*
X59401372Y-58844350D01*
X59390787Y-58814766D01*
X59383152Y-58784287D01*
X59378542Y-58753207D01*
X59377000Y-58721824D01*
X59377000Y-57537176D01*
X59378542Y-57505793D01*
X59383152Y-57474713D01*
X59390787Y-57444234D01*
X59401372Y-57414650D01*
X59414806Y-57386246D01*
X59430959Y-57359296D01*
X59449677Y-57334058D01*
X59470777Y-57310777D01*
X59494058Y-57289677D01*
X59519296Y-57270959D01*
X59546246Y-57254806D01*
X59574650Y-57241372D01*
X59604234Y-57230787D01*
X59634713Y-57223152D01*
X59665793Y-57218542D01*
X59697176Y-57217000D01*
X61206824Y-57217000D01*
X61238207Y-57218542D01*
X61238207Y-57218542D01*
G37*
D22*
X60452000Y-58129500D03*
G04 #@! TD*
D21*
G04 #@! TO.C,C11*
G36*
X72033207Y-98058542D02*
X72064287Y-98063152D01*
X72094766Y-98070787D01*
X72124350Y-98081372D01*
X72152754Y-98094806D01*
X72179704Y-98110959D01*
X72204942Y-98129677D01*
X72228223Y-98150777D01*
X72249323Y-98174058D01*
X72268041Y-98199296D01*
X72284194Y-98226246D01*
X72297628Y-98254650D01*
X72308213Y-98284234D01*
X72315848Y-98314713D01*
X72320458Y-98345793D01*
X72322000Y-98377176D01*
X72322000Y-99561824D01*
X72320458Y-99593207D01*
X72315848Y-99624287D01*
X72308213Y-99654766D01*
X72297628Y-99684350D01*
X72284194Y-99712754D01*
X72268041Y-99739704D01*
X72249323Y-99764942D01*
X72228223Y-99788223D01*
X72204942Y-99809323D01*
X72179704Y-99828041D01*
X72152754Y-99844194D01*
X72124350Y-99857628D01*
X72094766Y-99868213D01*
X72064287Y-99875848D01*
X72033207Y-99880458D01*
X72001824Y-99882000D01*
X70492176Y-99882000D01*
X70460793Y-99880458D01*
X70429713Y-99875848D01*
X70399234Y-99868213D01*
X70369650Y-99857628D01*
X70341246Y-99844194D01*
X70314296Y-99828041D01*
X70289058Y-99809323D01*
X70265777Y-99788223D01*
X70244677Y-99764942D01*
X70225959Y-99739704D01*
X70209806Y-99712754D01*
X70196372Y-99684350D01*
X70185787Y-99654766D01*
X70178152Y-99624287D01*
X70173542Y-99593207D01*
X70172000Y-99561824D01*
X70172000Y-98377176D01*
X70173542Y-98345793D01*
X70178152Y-98314713D01*
X70185787Y-98284234D01*
X70196372Y-98254650D01*
X70209806Y-98226246D01*
X70225959Y-98199296D01*
X70244677Y-98174058D01*
X70265777Y-98150777D01*
X70289058Y-98129677D01*
X70314296Y-98110959D01*
X70341246Y-98094806D01*
X70369650Y-98081372D01*
X70399234Y-98070787D01*
X70429713Y-98063152D01*
X70460793Y-98058542D01*
X70492176Y-98057000D01*
X72001824Y-98057000D01*
X72033207Y-98058542D01*
X72033207Y-98058542D01*
G37*
D22*
X71247000Y-98969500D03*
D21*
G36*
X72033207Y-101033542D02*
X72064287Y-101038152D01*
X72094766Y-101045787D01*
X72124350Y-101056372D01*
X72152754Y-101069806D01*
X72179704Y-101085959D01*
X72204942Y-101104677D01*
X72228223Y-101125777D01*
X72249323Y-101149058D01*
X72268041Y-101174296D01*
X72284194Y-101201246D01*
X72297628Y-101229650D01*
X72308213Y-101259234D01*
X72315848Y-101289713D01*
X72320458Y-101320793D01*
X72322000Y-101352176D01*
X72322000Y-102536824D01*
X72320458Y-102568207D01*
X72315848Y-102599287D01*
X72308213Y-102629766D01*
X72297628Y-102659350D01*
X72284194Y-102687754D01*
X72268041Y-102714704D01*
X72249323Y-102739942D01*
X72228223Y-102763223D01*
X72204942Y-102784323D01*
X72179704Y-102803041D01*
X72152754Y-102819194D01*
X72124350Y-102832628D01*
X72094766Y-102843213D01*
X72064287Y-102850848D01*
X72033207Y-102855458D01*
X72001824Y-102857000D01*
X70492176Y-102857000D01*
X70460793Y-102855458D01*
X70429713Y-102850848D01*
X70399234Y-102843213D01*
X70369650Y-102832628D01*
X70341246Y-102819194D01*
X70314296Y-102803041D01*
X70289058Y-102784323D01*
X70265777Y-102763223D01*
X70244677Y-102739942D01*
X70225959Y-102714704D01*
X70209806Y-102687754D01*
X70196372Y-102659350D01*
X70185787Y-102629766D01*
X70178152Y-102599287D01*
X70173542Y-102568207D01*
X70172000Y-102536824D01*
X70172000Y-101352176D01*
X70173542Y-101320793D01*
X70178152Y-101289713D01*
X70185787Y-101259234D01*
X70196372Y-101229650D01*
X70209806Y-101201246D01*
X70225959Y-101174296D01*
X70244677Y-101149058D01*
X70265777Y-101125777D01*
X70289058Y-101104677D01*
X70314296Y-101085959D01*
X70341246Y-101069806D01*
X70369650Y-101056372D01*
X70399234Y-101045787D01*
X70429713Y-101038152D01*
X70460793Y-101033542D01*
X70492176Y-101032000D01*
X72001824Y-101032000D01*
X72033207Y-101033542D01*
X72033207Y-101033542D01*
G37*
D22*
X71247000Y-101944500D03*
G04 #@! TD*
D21*
G04 #@! TO.C,C12*
G36*
X75843207Y-98058542D02*
X75874287Y-98063152D01*
X75904766Y-98070787D01*
X75934350Y-98081372D01*
X75962754Y-98094806D01*
X75989704Y-98110959D01*
X76014942Y-98129677D01*
X76038223Y-98150777D01*
X76059323Y-98174058D01*
X76078041Y-98199296D01*
X76094194Y-98226246D01*
X76107628Y-98254650D01*
X76118213Y-98284234D01*
X76125848Y-98314713D01*
X76130458Y-98345793D01*
X76132000Y-98377176D01*
X76132000Y-99561824D01*
X76130458Y-99593207D01*
X76125848Y-99624287D01*
X76118213Y-99654766D01*
X76107628Y-99684350D01*
X76094194Y-99712754D01*
X76078041Y-99739704D01*
X76059323Y-99764942D01*
X76038223Y-99788223D01*
X76014942Y-99809323D01*
X75989704Y-99828041D01*
X75962754Y-99844194D01*
X75934350Y-99857628D01*
X75904766Y-99868213D01*
X75874287Y-99875848D01*
X75843207Y-99880458D01*
X75811824Y-99882000D01*
X74302176Y-99882000D01*
X74270793Y-99880458D01*
X74239713Y-99875848D01*
X74209234Y-99868213D01*
X74179650Y-99857628D01*
X74151246Y-99844194D01*
X74124296Y-99828041D01*
X74099058Y-99809323D01*
X74075777Y-99788223D01*
X74054677Y-99764942D01*
X74035959Y-99739704D01*
X74019806Y-99712754D01*
X74006372Y-99684350D01*
X73995787Y-99654766D01*
X73988152Y-99624287D01*
X73983542Y-99593207D01*
X73982000Y-99561824D01*
X73982000Y-98377176D01*
X73983542Y-98345793D01*
X73988152Y-98314713D01*
X73995787Y-98284234D01*
X74006372Y-98254650D01*
X74019806Y-98226246D01*
X74035959Y-98199296D01*
X74054677Y-98174058D01*
X74075777Y-98150777D01*
X74099058Y-98129677D01*
X74124296Y-98110959D01*
X74151246Y-98094806D01*
X74179650Y-98081372D01*
X74209234Y-98070787D01*
X74239713Y-98063152D01*
X74270793Y-98058542D01*
X74302176Y-98057000D01*
X75811824Y-98057000D01*
X75843207Y-98058542D01*
X75843207Y-98058542D01*
G37*
D22*
X75057000Y-98969500D03*
D21*
G36*
X75843207Y-101033542D02*
X75874287Y-101038152D01*
X75904766Y-101045787D01*
X75934350Y-101056372D01*
X75962754Y-101069806D01*
X75989704Y-101085959D01*
X76014942Y-101104677D01*
X76038223Y-101125777D01*
X76059323Y-101149058D01*
X76078041Y-101174296D01*
X76094194Y-101201246D01*
X76107628Y-101229650D01*
X76118213Y-101259234D01*
X76125848Y-101289713D01*
X76130458Y-101320793D01*
X76132000Y-101352176D01*
X76132000Y-102536824D01*
X76130458Y-102568207D01*
X76125848Y-102599287D01*
X76118213Y-102629766D01*
X76107628Y-102659350D01*
X76094194Y-102687754D01*
X76078041Y-102714704D01*
X76059323Y-102739942D01*
X76038223Y-102763223D01*
X76014942Y-102784323D01*
X75989704Y-102803041D01*
X75962754Y-102819194D01*
X75934350Y-102832628D01*
X75904766Y-102843213D01*
X75874287Y-102850848D01*
X75843207Y-102855458D01*
X75811824Y-102857000D01*
X74302176Y-102857000D01*
X74270793Y-102855458D01*
X74239713Y-102850848D01*
X74209234Y-102843213D01*
X74179650Y-102832628D01*
X74151246Y-102819194D01*
X74124296Y-102803041D01*
X74099058Y-102784323D01*
X74075777Y-102763223D01*
X74054677Y-102739942D01*
X74035959Y-102714704D01*
X74019806Y-102687754D01*
X74006372Y-102659350D01*
X73995787Y-102629766D01*
X73988152Y-102599287D01*
X73983542Y-102568207D01*
X73982000Y-102536824D01*
X73982000Y-101352176D01*
X73983542Y-101320793D01*
X73988152Y-101289713D01*
X73995787Y-101259234D01*
X74006372Y-101229650D01*
X74019806Y-101201246D01*
X74035959Y-101174296D01*
X74054677Y-101149058D01*
X74075777Y-101125777D01*
X74099058Y-101104677D01*
X74124296Y-101085959D01*
X74151246Y-101069806D01*
X74179650Y-101056372D01*
X74209234Y-101045787D01*
X74239713Y-101038152D01*
X74270793Y-101033542D01*
X74302176Y-101032000D01*
X75811824Y-101032000D01*
X75843207Y-101033542D01*
X75843207Y-101033542D01*
G37*
D22*
X75057000Y-101944500D03*
G04 #@! TD*
D21*
G04 #@! TO.C,C13*
G36*
X79653207Y-98058542D02*
X79684287Y-98063152D01*
X79714766Y-98070787D01*
X79744350Y-98081372D01*
X79772754Y-98094806D01*
X79799704Y-98110959D01*
X79824942Y-98129677D01*
X79848223Y-98150777D01*
X79869323Y-98174058D01*
X79888041Y-98199296D01*
X79904194Y-98226246D01*
X79917628Y-98254650D01*
X79928213Y-98284234D01*
X79935848Y-98314713D01*
X79940458Y-98345793D01*
X79942000Y-98377176D01*
X79942000Y-99561824D01*
X79940458Y-99593207D01*
X79935848Y-99624287D01*
X79928213Y-99654766D01*
X79917628Y-99684350D01*
X79904194Y-99712754D01*
X79888041Y-99739704D01*
X79869323Y-99764942D01*
X79848223Y-99788223D01*
X79824942Y-99809323D01*
X79799704Y-99828041D01*
X79772754Y-99844194D01*
X79744350Y-99857628D01*
X79714766Y-99868213D01*
X79684287Y-99875848D01*
X79653207Y-99880458D01*
X79621824Y-99882000D01*
X78112176Y-99882000D01*
X78080793Y-99880458D01*
X78049713Y-99875848D01*
X78019234Y-99868213D01*
X77989650Y-99857628D01*
X77961246Y-99844194D01*
X77934296Y-99828041D01*
X77909058Y-99809323D01*
X77885777Y-99788223D01*
X77864677Y-99764942D01*
X77845959Y-99739704D01*
X77829806Y-99712754D01*
X77816372Y-99684350D01*
X77805787Y-99654766D01*
X77798152Y-99624287D01*
X77793542Y-99593207D01*
X77792000Y-99561824D01*
X77792000Y-98377176D01*
X77793542Y-98345793D01*
X77798152Y-98314713D01*
X77805787Y-98284234D01*
X77816372Y-98254650D01*
X77829806Y-98226246D01*
X77845959Y-98199296D01*
X77864677Y-98174058D01*
X77885777Y-98150777D01*
X77909058Y-98129677D01*
X77934296Y-98110959D01*
X77961246Y-98094806D01*
X77989650Y-98081372D01*
X78019234Y-98070787D01*
X78049713Y-98063152D01*
X78080793Y-98058542D01*
X78112176Y-98057000D01*
X79621824Y-98057000D01*
X79653207Y-98058542D01*
X79653207Y-98058542D01*
G37*
D22*
X78867000Y-98969500D03*
D21*
G36*
X79653207Y-101033542D02*
X79684287Y-101038152D01*
X79714766Y-101045787D01*
X79744350Y-101056372D01*
X79772754Y-101069806D01*
X79799704Y-101085959D01*
X79824942Y-101104677D01*
X79848223Y-101125777D01*
X79869323Y-101149058D01*
X79888041Y-101174296D01*
X79904194Y-101201246D01*
X79917628Y-101229650D01*
X79928213Y-101259234D01*
X79935848Y-101289713D01*
X79940458Y-101320793D01*
X79942000Y-101352176D01*
X79942000Y-102536824D01*
X79940458Y-102568207D01*
X79935848Y-102599287D01*
X79928213Y-102629766D01*
X79917628Y-102659350D01*
X79904194Y-102687754D01*
X79888041Y-102714704D01*
X79869323Y-102739942D01*
X79848223Y-102763223D01*
X79824942Y-102784323D01*
X79799704Y-102803041D01*
X79772754Y-102819194D01*
X79744350Y-102832628D01*
X79714766Y-102843213D01*
X79684287Y-102850848D01*
X79653207Y-102855458D01*
X79621824Y-102857000D01*
X78112176Y-102857000D01*
X78080793Y-102855458D01*
X78049713Y-102850848D01*
X78019234Y-102843213D01*
X77989650Y-102832628D01*
X77961246Y-102819194D01*
X77934296Y-102803041D01*
X77909058Y-102784323D01*
X77885777Y-102763223D01*
X77864677Y-102739942D01*
X77845959Y-102714704D01*
X77829806Y-102687754D01*
X77816372Y-102659350D01*
X77805787Y-102629766D01*
X77798152Y-102599287D01*
X77793542Y-102568207D01*
X77792000Y-102536824D01*
X77792000Y-101352176D01*
X77793542Y-101320793D01*
X77798152Y-101289713D01*
X77805787Y-101259234D01*
X77816372Y-101229650D01*
X77829806Y-101201246D01*
X77845959Y-101174296D01*
X77864677Y-101149058D01*
X77885777Y-101125777D01*
X77909058Y-101104677D01*
X77934296Y-101085959D01*
X77961246Y-101069806D01*
X77989650Y-101056372D01*
X78019234Y-101045787D01*
X78049713Y-101038152D01*
X78080793Y-101033542D01*
X78112176Y-101032000D01*
X79621824Y-101032000D01*
X79653207Y-101033542D01*
X79653207Y-101033542D01*
G37*
D22*
X78867000Y-101944500D03*
G04 #@! TD*
D21*
G04 #@! TO.C,R32*
G36*
X128548207Y-58053542D02*
X128579287Y-58058152D01*
X128609766Y-58065787D01*
X128639350Y-58076372D01*
X128667754Y-58089806D01*
X128694704Y-58105959D01*
X128719942Y-58124677D01*
X128743223Y-58145777D01*
X128764323Y-58169058D01*
X128783041Y-58194296D01*
X128799194Y-58221246D01*
X128812628Y-58249650D01*
X128823213Y-58279234D01*
X128830848Y-58309713D01*
X128835458Y-58340793D01*
X128837000Y-58372176D01*
X128837000Y-59556824D01*
X128835458Y-59588207D01*
X128830848Y-59619287D01*
X128823213Y-59649766D01*
X128812628Y-59679350D01*
X128799194Y-59707754D01*
X128783041Y-59734704D01*
X128764323Y-59759942D01*
X128743223Y-59783223D01*
X128719942Y-59804323D01*
X128694704Y-59823041D01*
X128667754Y-59839194D01*
X128639350Y-59852628D01*
X128609766Y-59863213D01*
X128579287Y-59870848D01*
X128548207Y-59875458D01*
X128516824Y-59877000D01*
X127007176Y-59877000D01*
X126975793Y-59875458D01*
X126944713Y-59870848D01*
X126914234Y-59863213D01*
X126884650Y-59852628D01*
X126856246Y-59839194D01*
X126829296Y-59823041D01*
X126804058Y-59804323D01*
X126780777Y-59783223D01*
X126759677Y-59759942D01*
X126740959Y-59734704D01*
X126724806Y-59707754D01*
X126711372Y-59679350D01*
X126700787Y-59649766D01*
X126693152Y-59619287D01*
X126688542Y-59588207D01*
X126687000Y-59556824D01*
X126687000Y-58372176D01*
X126688542Y-58340793D01*
X126693152Y-58309713D01*
X126700787Y-58279234D01*
X126711372Y-58249650D01*
X126724806Y-58221246D01*
X126740959Y-58194296D01*
X126759677Y-58169058D01*
X126780777Y-58145777D01*
X126804058Y-58124677D01*
X126829296Y-58105959D01*
X126856246Y-58089806D01*
X126884650Y-58076372D01*
X126914234Y-58065787D01*
X126944713Y-58058152D01*
X126975793Y-58053542D01*
X127007176Y-58052000D01*
X128516824Y-58052000D01*
X128548207Y-58053542D01*
X128548207Y-58053542D01*
G37*
D22*
X127762000Y-58964500D03*
D21*
G36*
X128548207Y-61028542D02*
X128579287Y-61033152D01*
X128609766Y-61040787D01*
X128639350Y-61051372D01*
X128667754Y-61064806D01*
X128694704Y-61080959D01*
X128719942Y-61099677D01*
X128743223Y-61120777D01*
X128764323Y-61144058D01*
X128783041Y-61169296D01*
X128799194Y-61196246D01*
X128812628Y-61224650D01*
X128823213Y-61254234D01*
X128830848Y-61284713D01*
X128835458Y-61315793D01*
X128837000Y-61347176D01*
X128837000Y-62531824D01*
X128835458Y-62563207D01*
X128830848Y-62594287D01*
X128823213Y-62624766D01*
X128812628Y-62654350D01*
X128799194Y-62682754D01*
X128783041Y-62709704D01*
X128764323Y-62734942D01*
X128743223Y-62758223D01*
X128719942Y-62779323D01*
X128694704Y-62798041D01*
X128667754Y-62814194D01*
X128639350Y-62827628D01*
X128609766Y-62838213D01*
X128579287Y-62845848D01*
X128548207Y-62850458D01*
X128516824Y-62852000D01*
X127007176Y-62852000D01*
X126975793Y-62850458D01*
X126944713Y-62845848D01*
X126914234Y-62838213D01*
X126884650Y-62827628D01*
X126856246Y-62814194D01*
X126829296Y-62798041D01*
X126804058Y-62779323D01*
X126780777Y-62758223D01*
X126759677Y-62734942D01*
X126740959Y-62709704D01*
X126724806Y-62682754D01*
X126711372Y-62654350D01*
X126700787Y-62624766D01*
X126693152Y-62594287D01*
X126688542Y-62563207D01*
X126687000Y-62531824D01*
X126687000Y-61347176D01*
X126688542Y-61315793D01*
X126693152Y-61284713D01*
X126700787Y-61254234D01*
X126711372Y-61224650D01*
X126724806Y-61196246D01*
X126740959Y-61169296D01*
X126759677Y-61144058D01*
X126780777Y-61120777D01*
X126804058Y-61099677D01*
X126829296Y-61080959D01*
X126856246Y-61064806D01*
X126884650Y-61051372D01*
X126914234Y-61040787D01*
X126944713Y-61033152D01*
X126975793Y-61028542D01*
X127007176Y-61027000D01*
X128516824Y-61027000D01*
X128548207Y-61028542D01*
X128548207Y-61028542D01*
G37*
D22*
X127762000Y-61939500D03*
G04 #@! TD*
D21*
G04 #@! TO.C,R33*
G36*
X136930207Y-58017042D02*
X136961287Y-58021652D01*
X136991766Y-58029287D01*
X137021350Y-58039872D01*
X137049754Y-58053306D01*
X137076704Y-58069459D01*
X137101942Y-58088177D01*
X137125223Y-58109277D01*
X137146323Y-58132558D01*
X137165041Y-58157796D01*
X137181194Y-58184746D01*
X137194628Y-58213150D01*
X137205213Y-58242734D01*
X137212848Y-58273213D01*
X137217458Y-58304293D01*
X137219000Y-58335676D01*
X137219000Y-59520324D01*
X137217458Y-59551707D01*
X137212848Y-59582787D01*
X137205213Y-59613266D01*
X137194628Y-59642850D01*
X137181194Y-59671254D01*
X137165041Y-59698204D01*
X137146323Y-59723442D01*
X137125223Y-59746723D01*
X137101942Y-59767823D01*
X137076704Y-59786541D01*
X137049754Y-59802694D01*
X137021350Y-59816128D01*
X136991766Y-59826713D01*
X136961287Y-59834348D01*
X136930207Y-59838958D01*
X136898824Y-59840500D01*
X135389176Y-59840500D01*
X135357793Y-59838958D01*
X135326713Y-59834348D01*
X135296234Y-59826713D01*
X135266650Y-59816128D01*
X135238246Y-59802694D01*
X135211296Y-59786541D01*
X135186058Y-59767823D01*
X135162777Y-59746723D01*
X135141677Y-59723442D01*
X135122959Y-59698204D01*
X135106806Y-59671254D01*
X135093372Y-59642850D01*
X135082787Y-59613266D01*
X135075152Y-59582787D01*
X135070542Y-59551707D01*
X135069000Y-59520324D01*
X135069000Y-58335676D01*
X135070542Y-58304293D01*
X135075152Y-58273213D01*
X135082787Y-58242734D01*
X135093372Y-58213150D01*
X135106806Y-58184746D01*
X135122959Y-58157796D01*
X135141677Y-58132558D01*
X135162777Y-58109277D01*
X135186058Y-58088177D01*
X135211296Y-58069459D01*
X135238246Y-58053306D01*
X135266650Y-58039872D01*
X135296234Y-58029287D01*
X135326713Y-58021652D01*
X135357793Y-58017042D01*
X135389176Y-58015500D01*
X136898824Y-58015500D01*
X136930207Y-58017042D01*
X136930207Y-58017042D01*
G37*
D22*
X136144000Y-58928000D03*
D21*
G36*
X136930207Y-60992042D02*
X136961287Y-60996652D01*
X136991766Y-61004287D01*
X137021350Y-61014872D01*
X137049754Y-61028306D01*
X137076704Y-61044459D01*
X137101942Y-61063177D01*
X137125223Y-61084277D01*
X137146323Y-61107558D01*
X137165041Y-61132796D01*
X137181194Y-61159746D01*
X137194628Y-61188150D01*
X137205213Y-61217734D01*
X137212848Y-61248213D01*
X137217458Y-61279293D01*
X137219000Y-61310676D01*
X137219000Y-62495324D01*
X137217458Y-62526707D01*
X137212848Y-62557787D01*
X137205213Y-62588266D01*
X137194628Y-62617850D01*
X137181194Y-62646254D01*
X137165041Y-62673204D01*
X137146323Y-62698442D01*
X137125223Y-62721723D01*
X137101942Y-62742823D01*
X137076704Y-62761541D01*
X137049754Y-62777694D01*
X137021350Y-62791128D01*
X136991766Y-62801713D01*
X136961287Y-62809348D01*
X136930207Y-62813958D01*
X136898824Y-62815500D01*
X135389176Y-62815500D01*
X135357793Y-62813958D01*
X135326713Y-62809348D01*
X135296234Y-62801713D01*
X135266650Y-62791128D01*
X135238246Y-62777694D01*
X135211296Y-62761541D01*
X135186058Y-62742823D01*
X135162777Y-62721723D01*
X135141677Y-62698442D01*
X135122959Y-62673204D01*
X135106806Y-62646254D01*
X135093372Y-62617850D01*
X135082787Y-62588266D01*
X135075152Y-62557787D01*
X135070542Y-62526707D01*
X135069000Y-62495324D01*
X135069000Y-61310676D01*
X135070542Y-61279293D01*
X135075152Y-61248213D01*
X135082787Y-61217734D01*
X135093372Y-61188150D01*
X135106806Y-61159746D01*
X135122959Y-61132796D01*
X135141677Y-61107558D01*
X135162777Y-61084277D01*
X135186058Y-61063177D01*
X135211296Y-61044459D01*
X135238246Y-61028306D01*
X135266650Y-61014872D01*
X135296234Y-61004287D01*
X135326713Y-60996652D01*
X135357793Y-60992042D01*
X135389176Y-60990500D01*
X136898824Y-60990500D01*
X136930207Y-60992042D01*
X136930207Y-60992042D01*
G37*
D22*
X136144000Y-61903000D03*
G04 #@! TD*
D21*
G04 #@! TO.C,R34*
G36*
X68858207Y-54243542D02*
X68889287Y-54248152D01*
X68919766Y-54255787D01*
X68949350Y-54266372D01*
X68977754Y-54279806D01*
X69004704Y-54295959D01*
X69029942Y-54314677D01*
X69053223Y-54335777D01*
X69074323Y-54359058D01*
X69093041Y-54384296D01*
X69109194Y-54411246D01*
X69122628Y-54439650D01*
X69133213Y-54469234D01*
X69140848Y-54499713D01*
X69145458Y-54530793D01*
X69147000Y-54562176D01*
X69147000Y-55746824D01*
X69145458Y-55778207D01*
X69140848Y-55809287D01*
X69133213Y-55839766D01*
X69122628Y-55869350D01*
X69109194Y-55897754D01*
X69093041Y-55924704D01*
X69074323Y-55949942D01*
X69053223Y-55973223D01*
X69029942Y-55994323D01*
X69004704Y-56013041D01*
X68977754Y-56029194D01*
X68949350Y-56042628D01*
X68919766Y-56053213D01*
X68889287Y-56060848D01*
X68858207Y-56065458D01*
X68826824Y-56067000D01*
X67317176Y-56067000D01*
X67285793Y-56065458D01*
X67254713Y-56060848D01*
X67224234Y-56053213D01*
X67194650Y-56042628D01*
X67166246Y-56029194D01*
X67139296Y-56013041D01*
X67114058Y-55994323D01*
X67090777Y-55973223D01*
X67069677Y-55949942D01*
X67050959Y-55924704D01*
X67034806Y-55897754D01*
X67021372Y-55869350D01*
X67010787Y-55839766D01*
X67003152Y-55809287D01*
X66998542Y-55778207D01*
X66997000Y-55746824D01*
X66997000Y-54562176D01*
X66998542Y-54530793D01*
X67003152Y-54499713D01*
X67010787Y-54469234D01*
X67021372Y-54439650D01*
X67034806Y-54411246D01*
X67050959Y-54384296D01*
X67069677Y-54359058D01*
X67090777Y-54335777D01*
X67114058Y-54314677D01*
X67139296Y-54295959D01*
X67166246Y-54279806D01*
X67194650Y-54266372D01*
X67224234Y-54255787D01*
X67254713Y-54248152D01*
X67285793Y-54243542D01*
X67317176Y-54242000D01*
X68826824Y-54242000D01*
X68858207Y-54243542D01*
X68858207Y-54243542D01*
G37*
D22*
X68072000Y-55154500D03*
D21*
G36*
X68858207Y-57218542D02*
X68889287Y-57223152D01*
X68919766Y-57230787D01*
X68949350Y-57241372D01*
X68977754Y-57254806D01*
X69004704Y-57270959D01*
X69029942Y-57289677D01*
X69053223Y-57310777D01*
X69074323Y-57334058D01*
X69093041Y-57359296D01*
X69109194Y-57386246D01*
X69122628Y-57414650D01*
X69133213Y-57444234D01*
X69140848Y-57474713D01*
X69145458Y-57505793D01*
X69147000Y-57537176D01*
X69147000Y-58721824D01*
X69145458Y-58753207D01*
X69140848Y-58784287D01*
X69133213Y-58814766D01*
X69122628Y-58844350D01*
X69109194Y-58872754D01*
X69093041Y-58899704D01*
X69074323Y-58924942D01*
X69053223Y-58948223D01*
X69029942Y-58969323D01*
X69004704Y-58988041D01*
X68977754Y-59004194D01*
X68949350Y-59017628D01*
X68919766Y-59028213D01*
X68889287Y-59035848D01*
X68858207Y-59040458D01*
X68826824Y-59042000D01*
X67317176Y-59042000D01*
X67285793Y-59040458D01*
X67254713Y-59035848D01*
X67224234Y-59028213D01*
X67194650Y-59017628D01*
X67166246Y-59004194D01*
X67139296Y-58988041D01*
X67114058Y-58969323D01*
X67090777Y-58948223D01*
X67069677Y-58924942D01*
X67050959Y-58899704D01*
X67034806Y-58872754D01*
X67021372Y-58844350D01*
X67010787Y-58814766D01*
X67003152Y-58784287D01*
X66998542Y-58753207D01*
X66997000Y-58721824D01*
X66997000Y-57537176D01*
X66998542Y-57505793D01*
X67003152Y-57474713D01*
X67010787Y-57444234D01*
X67021372Y-57414650D01*
X67034806Y-57386246D01*
X67050959Y-57359296D01*
X67069677Y-57334058D01*
X67090777Y-57310777D01*
X67114058Y-57289677D01*
X67139296Y-57270959D01*
X67166246Y-57254806D01*
X67194650Y-57241372D01*
X67224234Y-57230787D01*
X67254713Y-57223152D01*
X67285793Y-57218542D01*
X67317176Y-57217000D01*
X68826824Y-57217000D01*
X68858207Y-57218542D01*
X68858207Y-57218542D01*
G37*
D22*
X68072000Y-58129500D03*
G04 #@! TD*
D21*
G04 #@! TO.C,R35*
G36*
X66318207Y-54243542D02*
X66349287Y-54248152D01*
X66379766Y-54255787D01*
X66409350Y-54266372D01*
X66437754Y-54279806D01*
X66464704Y-54295959D01*
X66489942Y-54314677D01*
X66513223Y-54335777D01*
X66534323Y-54359058D01*
X66553041Y-54384296D01*
X66569194Y-54411246D01*
X66582628Y-54439650D01*
X66593213Y-54469234D01*
X66600848Y-54499713D01*
X66605458Y-54530793D01*
X66607000Y-54562176D01*
X66607000Y-55746824D01*
X66605458Y-55778207D01*
X66600848Y-55809287D01*
X66593213Y-55839766D01*
X66582628Y-55869350D01*
X66569194Y-55897754D01*
X66553041Y-55924704D01*
X66534323Y-55949942D01*
X66513223Y-55973223D01*
X66489942Y-55994323D01*
X66464704Y-56013041D01*
X66437754Y-56029194D01*
X66409350Y-56042628D01*
X66379766Y-56053213D01*
X66349287Y-56060848D01*
X66318207Y-56065458D01*
X66286824Y-56067000D01*
X64777176Y-56067000D01*
X64745793Y-56065458D01*
X64714713Y-56060848D01*
X64684234Y-56053213D01*
X64654650Y-56042628D01*
X64626246Y-56029194D01*
X64599296Y-56013041D01*
X64574058Y-55994323D01*
X64550777Y-55973223D01*
X64529677Y-55949942D01*
X64510959Y-55924704D01*
X64494806Y-55897754D01*
X64481372Y-55869350D01*
X64470787Y-55839766D01*
X64463152Y-55809287D01*
X64458542Y-55778207D01*
X64457000Y-55746824D01*
X64457000Y-54562176D01*
X64458542Y-54530793D01*
X64463152Y-54499713D01*
X64470787Y-54469234D01*
X64481372Y-54439650D01*
X64494806Y-54411246D01*
X64510959Y-54384296D01*
X64529677Y-54359058D01*
X64550777Y-54335777D01*
X64574058Y-54314677D01*
X64599296Y-54295959D01*
X64626246Y-54279806D01*
X64654650Y-54266372D01*
X64684234Y-54255787D01*
X64714713Y-54248152D01*
X64745793Y-54243542D01*
X64777176Y-54242000D01*
X66286824Y-54242000D01*
X66318207Y-54243542D01*
X66318207Y-54243542D01*
G37*
D22*
X65532000Y-55154500D03*
D21*
G36*
X66318207Y-57218542D02*
X66349287Y-57223152D01*
X66379766Y-57230787D01*
X66409350Y-57241372D01*
X66437754Y-57254806D01*
X66464704Y-57270959D01*
X66489942Y-57289677D01*
X66513223Y-57310777D01*
X66534323Y-57334058D01*
X66553041Y-57359296D01*
X66569194Y-57386246D01*
X66582628Y-57414650D01*
X66593213Y-57444234D01*
X66600848Y-57474713D01*
X66605458Y-57505793D01*
X66607000Y-57537176D01*
X66607000Y-58721824D01*
X66605458Y-58753207D01*
X66600848Y-58784287D01*
X66593213Y-58814766D01*
X66582628Y-58844350D01*
X66569194Y-58872754D01*
X66553041Y-58899704D01*
X66534323Y-58924942D01*
X66513223Y-58948223D01*
X66489942Y-58969323D01*
X66464704Y-58988041D01*
X66437754Y-59004194D01*
X66409350Y-59017628D01*
X66379766Y-59028213D01*
X66349287Y-59035848D01*
X66318207Y-59040458D01*
X66286824Y-59042000D01*
X64777176Y-59042000D01*
X64745793Y-59040458D01*
X64714713Y-59035848D01*
X64684234Y-59028213D01*
X64654650Y-59017628D01*
X64626246Y-59004194D01*
X64599296Y-58988041D01*
X64574058Y-58969323D01*
X64550777Y-58948223D01*
X64529677Y-58924942D01*
X64510959Y-58899704D01*
X64494806Y-58872754D01*
X64481372Y-58844350D01*
X64470787Y-58814766D01*
X64463152Y-58784287D01*
X64458542Y-58753207D01*
X64457000Y-58721824D01*
X64457000Y-57537176D01*
X64458542Y-57505793D01*
X64463152Y-57474713D01*
X64470787Y-57444234D01*
X64481372Y-57414650D01*
X64494806Y-57386246D01*
X64510959Y-57359296D01*
X64529677Y-57334058D01*
X64550777Y-57310777D01*
X64574058Y-57289677D01*
X64599296Y-57270959D01*
X64626246Y-57254806D01*
X64654650Y-57241372D01*
X64684234Y-57230787D01*
X64714713Y-57223152D01*
X64745793Y-57218542D01*
X64777176Y-57217000D01*
X66286824Y-57217000D01*
X66318207Y-57218542D01*
X66318207Y-57218542D01*
G37*
D22*
X65532000Y-58129500D03*
G04 #@! TD*
D17*
G04 #@! TO.C,U5*
X151130000Y-46228000D03*
X153670000Y-46228000D03*
X156210000Y-46228000D03*
X158750000Y-46228000D03*
X161290000Y-46228000D03*
X163830000Y-46228000D03*
X166370000Y-46228000D03*
D18*
X168910000Y-46228000D03*
G04 #@! TD*
D17*
G04 #@! TO.C,U6*
X175260000Y-69850000D03*
X175260000Y-72390000D03*
X175260000Y-74930000D03*
X175260000Y-77470000D03*
X175260000Y-80010000D03*
X175260000Y-82550000D03*
X175260000Y-85090000D03*
D18*
X175260000Y-87630000D03*
G04 #@! TD*
D17*
G04 #@! TO.C,U7*
X170942000Y-109474000D03*
X168402000Y-109474000D03*
X165862000Y-109474000D03*
X163322000Y-109474000D03*
X160782000Y-109474000D03*
X158242000Y-109474000D03*
X155702000Y-109474000D03*
D18*
X153162000Y-109474000D03*
G04 #@! TD*
D17*
G04 #@! TO.C,JP1*
X119380000Y-59182000D03*
X116840000Y-59182000D03*
X114300000Y-59182000D03*
X111760000Y-59182000D03*
X109220000Y-59182000D03*
X106680000Y-59182000D03*
X104140000Y-59182000D03*
D18*
X101600000Y-59182000D03*
G04 #@! TD*
D17*
G04 #@! TO.C,JP4*
X97536000Y-50038000D03*
X94996000Y-50038000D03*
X92456000Y-50038000D03*
X89916000Y-50038000D03*
X87376000Y-50038000D03*
X84836000Y-50038000D03*
X82296000Y-50038000D03*
X79756000Y-50038000D03*
X77216000Y-50038000D03*
D18*
X74676000Y-50038000D03*
G04 #@! TD*
D17*
G04 #@! TO.C,JP5*
X106680000Y-95758000D03*
X109220000Y-95758000D03*
X111760000Y-95758000D03*
X114300000Y-95758000D03*
X116840000Y-95758000D03*
D18*
X119380000Y-95758000D03*
G04 #@! TD*
D17*
G04 #@! TO.C,JP6*
X93980000Y-95758000D03*
X96520000Y-95758000D03*
X99060000Y-95758000D03*
D18*
X101600000Y-95758000D03*
G04 #@! TD*
D17*
G04 #@! TO.C,JP7*
X106680000Y-104902000D03*
X109220000Y-104902000D03*
X111760000Y-104902000D03*
X114300000Y-104902000D03*
X116840000Y-104902000D03*
D18*
X119380000Y-104902000D03*
G04 #@! TD*
D17*
G04 #@! TO.C,JP8*
X83820000Y-104902000D03*
X86360000Y-104902000D03*
X88900000Y-104902000D03*
X91440000Y-104902000D03*
X93980000Y-104902000D03*
X96520000Y-104902000D03*
X99060000Y-104902000D03*
D18*
X101600000Y-104902000D03*
G04 #@! TD*
D17*
G04 #@! TO.C,JP9*
X65532000Y-98552000D03*
X65532000Y-96012000D03*
D18*
X65532000Y-93472000D03*
G04 #@! TD*
D12*
G04 #@! TO.C,SW4*
X157116000Y-51082000D03*
X157116000Y-52832000D03*
X157116000Y-54582000D03*
X162416000Y-54582000D03*
X162416000Y-52832000D03*
X162416000Y-51082000D03*
G04 #@! TD*
D23*
G04 #@! TO.C,SW5*
X169136000Y-85742000D03*
X167386000Y-85742000D03*
X165636000Y-85742000D03*
X165636000Y-91042000D03*
X167386000Y-91042000D03*
X169136000Y-91042000D03*
G04 #@! TD*
D12*
G04 #@! TO.C,SW6*
X148226000Y-51082000D03*
X148226000Y-52832000D03*
X148226000Y-54582000D03*
X153526000Y-54582000D03*
X153526000Y-52832000D03*
X153526000Y-51082000D03*
G04 #@! TD*
D23*
G04 #@! TO.C,SW7*
X169136000Y-76598000D03*
X167386000Y-76598000D03*
X165636000Y-76598000D03*
X165636000Y-81898000D03*
X167386000Y-81898000D03*
X169136000Y-81898000D03*
G04 #@! TD*
G04 #@! TO.C,SW8*
X169136000Y-67454000D03*
X167386000Y-67454000D03*
X165636000Y-67454000D03*
X165636000Y-72754000D03*
X167386000Y-72754000D03*
X169136000Y-72754000D03*
G04 #@! TD*
D12*
G04 #@! TO.C,SW9*
X154288000Y-103350000D03*
X154288000Y-101600000D03*
X154288000Y-99850000D03*
X148988000Y-99850000D03*
X148988000Y-101600000D03*
X148988000Y-103350000D03*
G04 #@! TD*
G04 #@! TO.C,SW10*
X163178000Y-103350000D03*
X163178000Y-101600000D03*
X163178000Y-99850000D03*
X157878000Y-99850000D03*
X157878000Y-101600000D03*
X157878000Y-103350000D03*
G04 #@! TD*
G04 #@! TO.C,SW11*
X172068000Y-103350000D03*
X172068000Y-101600000D03*
X172068000Y-99850000D03*
X166768000Y-99850000D03*
X166768000Y-101600000D03*
X166768000Y-103350000D03*
G04 #@! TD*
D24*
G04 #@! TO.C,SW12*
X127580000Y-55956000D03*
X127580000Y-48006000D03*
X132080000Y-48006000D03*
X132080000Y-55956000D03*
G04 #@! TD*
G04 #@! TO.C,SW13*
X136144000Y-55956000D03*
X136144000Y-48006000D03*
X140644000Y-48006000D03*
X140644000Y-55956000D03*
G04 #@! TD*
D18*
G04 #@! TO.C,JP10*
X59436000Y-93472000D03*
D17*
X59436000Y-96012000D03*
X59436000Y-98552000D03*
G04 #@! TD*
M02*
